<?xml version="1.0" encoding="utf-8"?>
<!-- Generator: Adobe Illustrator 24.1.3, SVG Export Plug-In . SVG Version: 6.00 Build 0)  -->
<svg version="1.1" id="Layer_1" xmlns="http://www.w3.org/2000/svg" xmlns:xlink="http://www.w3.org/1999/xlink" x="0px" y="0px"
	 viewBox="0 0 480.3 272.1" style="enable-background:new 0 0 480.3 272.1;" xml:space="preserve">
<style type="text/css">
	.st0{fill:#CCCCCC;}
	.st1{fill:#006683;}
	.st2{fill:#FFFFFF;}
	.st3{fill:#222222;}
</style>
<path class="st0" d="M363.9,75.1l-1,0c-0.3,0-0.6,0.3-0.5,0.6l0.1,0.8L363.9,75.1z M363.6,101.3l-1.1-4c-0.1-0.3-0.4-0.4-0.7-0.3
	l-3.9,1.4c-0.2,0.1-0.3,0.3-0.3,0.5l0,2.7c0,0.4,0.4,0.6,0.8,0.4l1.4-0.8c0.4-0.2,0.8,0.1,0.8,0.5l-0.1,0.9
	c-0.1,0.4,0.4,0.7,0.7,0.5l2.2-1.2C363.5,101.7,363.6,101.5,363.6,101.3z M361.4,59l-0.9,0.4c-0.2,0.1-0.4,0.3-0.3,0.6l0.2,1.9
	c0,0.4-0.4,0.8-0.8,0.5l-1.7-1.1c-0.4-0.2-0.8,0.1-0.8,0.5l0,0.6c0,0.4-0.4,0.7-0.8,0.5l0,0c-0.2-0.1-0.5-0.1-0.6,0.1l-0.4,0.4
	c-0.3,0.2-0.2,0.7,0.1,0.8l2.4,1.7l0.2-1.2l0.8,0.6c0.2,0.2,0.3,0.4,0.2,0.7l-0.1,0.3c-0.1,0.2-0.1,0.4,0,0.5l1.9,3.1
	c0.1,0.2,0.3,0.3,0.5,0.3l2.7-0.3c0.5,0,0.9,0.3,0.9,0.8l0.1,1.2c0,0.5,0.5,0.8,1,0.8l0.1,0c0.2,0,0.3-0.2,0.4-0.3l0.8-2.2
	c0-0.1,0.1-0.1,0.1-0.2l1.7-0.9c0.2-0.1,0.2-0.4,0-0.5l-0.7-0.4c-0.1,0-0.1-0.1-0.2,0l-1.5,0.3c-0.2,0-0.3,0-0.5-0.1l-2.8-1.4
	c-0.2-0.1-0.3-0.3-0.3-0.5l0.3-4.4c0-0.2,0-0.4-0.1-0.5l-1.3-2C361.9,59,361.6,58.9,361.4,59z M367.7,84.2l-1.6-0.2
	c-0.1,0-0.2-0.1-0.3-0.1l-2.3-2.4c-0.2-0.2-0.4-0.2-0.6-0.1l-1.9,1.2c-0.3,0.2-0.3,0.7,0.1,0.9l2.5,1.1c0.4,0.2,0.4,0.7,0,0.9
	l-0.9,0.5c-0.3,0.1-0.4,0.5-0.2,0.7l0,0c0.2,0.2,0.1,0.6-0.1,0.7l-0.3,0.2c-0.5,0.3-0.2,1,0.4,0.9l3.2-0.7c0.3-0.1,0.5,0.1,0.6,0.4
	l0.1,0.4l2.6-1.8c0.2-0.1,0.3-0.4,0.2-0.6l-0.9-1.8C368,84.3,367.9,84.2,367.7,84.2z M359.6,73.3l0.6,1.1c0.2,0.3,0.6,0.4,0.8,0.1
	l0.3-0.3c0.2-0.2,0.2-0.4,0.1-0.7l-0.5-0.9c-0.1-0.2-0.3-0.3-0.5-0.3l-0.5,0.1C359.6,72.5,359.4,72.9,359.6,73.3z M366.6,97.2
	l1.4-2.9c0.2-0.5-0.4-1-0.8-0.6l-3.6,3c-0.2,0.1-0.2,0.4-0.1,0.6l0.7,1.6c0.1,0.3,0.6,0.4,0.9,0.1L366.6,97.2
	C366.5,97.3,366.5,97.2,366.6,97.2z M355.6,82.6l1.2-0.5c0.6-0.2,1-0.7,1.2-1.3l0.4-1.4L355.6,82.6z M361.9,92.2l-1,2.9l1.2-1.1
	c0.1-0.1,0.2-0.3,0.1-0.5L361.9,92.2z M426.9,18.2c-0.2-0.2-0.6-0.1-0.8,0.1l-1.1,1.9l1.9-1.2C427.2,18.9,427.2,18.4,426.9,18.2
	L426.9,18.2z M429.1,5.8l0-3c0-0.2-0.1-0.3-0.2-0.4l-0.3-0.2c-0.3-0.2-0.8,0-0.8,0.4l-0.1,1c0,0.1,0,0.2-0.1,0.2l-1,1.3
	c-0.2,0.2-0.1,0.5,0.1,0.7l1,1c0.2,0.2,0.5,0.2,0.7,0l0.6-0.6C429.1,6.1,429.1,5.9,429.1,5.8z M431,0.1l-0.2,0.2
	c-0.2,0.2-0.2,0.4-0.1,0.7l0.1,0.2c0.2,0.4,0.8,0.3,0.9-0.1l0.1-0.4C432,0.2,431.4-0.2,431,0.1z M401.9,34.4l-0.8-1
	c-0.1-0.1-0.3-0.2-0.5-0.2l-0.5,0.1c-0.3,0.1-0.5,0.4-0.3,0.7l1,1.4c0.2,0.3,0.6,0.3,0.8,0l0.3-0.5C402,34.8,402,34.6,401.9,34.4z
	 M401.5,30.4l0.1,1.7c0,0.3,0.3,0.5,0.5,0.4l2.5-0.3c0.1,0,0.2,0,0.3,0.1l0.9,0.5c0.3,0.2,0.7,0,0.7-0.4l0-1c0-0.3-0.2-0.5-0.5-0.5
	l-3.1,0.2l0.9-0.9c0.2-0.2,0.2-0.5,0-0.7l-1.4-1.3c-0.1-0.1-0.2-0.1-0.4-0.1l-1.8,0.2c-0.2,0-0.4,0.2-0.4,0.5v2.1
	c0,0.1,0,0.2,0.1,0.3l0.4,0.5c0.2,0.3,0.7,0.2,0.8-0.1L401.5,30.4z M424,5.7L422.7,6c-0.2,0-0.3,0.2-0.4,0.3L422,7.5
	c-0.1,0.2,0,0.5,0.3,0.6c0.4,0.2,1,0.5,1.5,0.7c0.3,0.2,0.7-0.1,0.8-0.4l0.2-2.2C424.7,5.9,424.4,5.6,424,5.7z M404.1,27.1
	L404.1,27.1c-0.4,0-0.5,0.5-0.3,0.8l0,0c0.3,0.3,0.7,0.1,0.8-0.2l0,0C404.7,27.3,404.4,27.1,404.1,27.1z M369.4,130l-0.8-0.1
	c-0.5-0.1-0.7-0.6-0.6-1l0.5-1.2c0.1-0.2,0.1-0.4,0-0.6l-0.3-0.6c-0.2-0.5,0-1,0.6-1.1l0.2,0c0.3,0,0.7,0.2,0.8,0.5l0.4,1.1
	c0.2,0.4,0.8,0.3,0.7-0.2l-0.4-2.3c-0.1-0.3-0.3-0.6-0.7-0.6l-1.7-0.1c-0.7,0-1-0.9-0.4-1.3l0,0c0.4-0.2,0.4-0.7,0.2-1.1l-4.3-5.5
	c-0.1-0.1-0.1-0.2-0.1-0.4l-0.3-2.2c0-0.3-0.2-0.5-0.4-0.6l-2-1c-0.1,0-0.2-0.1-0.2-0.1l-4.7-0.5c-0.2,0-0.3,0-0.4,0.1l-2.9,1.7
	c-0.1,0.1-0.2,0.1-0.3,0.1l-1.5,0.2c-0.2,0-0.3,0.1-0.4,0.2l-0.7,0.7c-0.1,0.1-0.2,0.2-0.4,0.2l-2.7,0.5c-0.1,0-0.3,0.1-0.4,0.2
	l-1.3,1.3c-0.1,0.1-0.1,0.1-0.2,0.1l-1.9,0.9c-0.2,0.1-0.3,0.2-0.4,0.4l-0.7,2c-0.1,0.3-0.3,0.4-0.6,0.5l-2.6,0.3
	c-0.2,0-0.4,0.2-0.6,0.4l-3.2,6c-0.2,0.3-0.1,0.7,0.2,0.9l6.3,5.3c0.2,0.1,0.4,0.2,0.6,0.2l1.6-0.3c0.3-0.1,0.5-0.3,0.6-0.6l0.8-3.4
	c0-0.2,0.1-0.3,0.3-0.4l1.4-0.9c0.2-0.1,0.5-0.2,0.7-0.1l4.3,2c0.1,0.1,0.3,0.2,0.3,0.3l2.9,5.2c0.1,0.2,0.3,0.3,0.5,0.4l2,0.3
	c0.1,0,0.2,0.1,0.3,0.1l3.4,2.1c0.1,0.1,0.2,0.1,0.3,0.1l0.5,0.1l-0.1-1.2c-0.1-0.5,0.4-0.9,0.9-0.8l0.2,0c0.2,0,0.4,0,0.6-0.1
	l2-1.5c0.2-0.1,0.3-0.3,0.3-0.5l0.2-1.1c0.1-0.4,0.4-0.7,0.8-0.6l2.6,0.3c0.4,0.1,0.7-0.2,0.8-0.6l0.2-1.2
	C370.1,130.4,369.9,130,369.4,130z M467.2,190.9C467.2,190.9,467.2,190.9,467.2,190.9l-1.2,0.6l2,0.9c0,0,0.1,0,0.1,0l1.4-0.4
	c0.1,0,0.1-0.1,0.1-0.2l-0.8-0.8c0,0-0.1,0-0.1,0L467.2,190.9z M372.7,103.3l0.8,4l3.2,1.2l0.9-2.8c0-0.1,0-0.3,0-0.4l-1.9-3.6
	c-0.1-0.3-0.5-0.3-0.7-0.2l-2,1.2C372.7,102.9,372.7,103.1,372.7,103.3z M479,166l-0.7-3.3c0-0.2-0.1-0.3-0.2-0.4l-5.3-3.8
	c-0.1-0.1-0.2-0.1-0.3-0.1l-7.6-0.4c0,0,0,0,0,0l-4.3,0.1c-0.3,0-0.5,0.2-0.6,0.5l-0.3,2.7c0,0.1,0,0.2-0.1,0.3l-0.8,1.2
	c-0.2,0.3-0.6,0.4-0.9,0.1l-2-2c-0.1-0.1-0.2-0.1-0.3-0.2l-1.7-0.4c-0.5-0.1-0.6-0.7-0.3-1l3.8-3.5c0.1-0.1,0.2-0.3,0.2-0.4v-2.2
	c0-0.1,0-0.2-0.1-0.3l-3.1-4.5c-0.4-0.6-1.1-1-1.8-1.2l0,0c-0.2,0-0.5-0.1-0.7-0.2l-2.6-1.4c-0.3-0.2-0.6-0.4-0.8-0.7l-0.3-0.5
	c-0.5-0.7-1.3-1.1-2.2-0.9l-0.3,0.1c-0.1,0-0.1,0-0.2,0l-0.6,0.2c-0.4,0.1-0.8,0.1-1.1,0l-1.2-0.4c-0.2-0.1-0.4-0.1-0.6-0.1l-0.9,0
	l1.8-0.4c0.3-0.1,0.7-0.1,1,0l0.6,0.1c0.3,0.1,0.6,0.1,0.9,0l1.4-0.3c0.4-0.1,0.8,0,1.2,0.1l0.6,0.2c0.3,0.1,0.5,0.2,0.7,0.4
	l0.2,0.2c0.5,0.5,1.2,0.7,1.8,0.5l0.3-0.1c0.3,0,0.5,0,0.8,0l1.3,0.3l-4.5-5.1l-1.1-1.3c-0.6-0.7-0.7-1.8-0.1-2.6l0,0
	c0.3-0.4,0.6-0.7,1.1-0.8l0.6-0.2l-1.7-0.9c-0.3-0.2-0.6-0.4-0.8-0.8l-0.5-0.8c-0.1-0.1-0.2-0.2-0.4-0.2l-0.5-0.1
	c-0.2,0-0.3-0.1-0.4-0.3l-2.3-3.8c-0.2-0.3-0.4-0.5-0.7-0.6l-3.4-1.6c-0.1-0.1-0.2-0.1-0.4-0.1l-4.3-0.8c-0.7-0.1-1.2-0.7-1.3-1.4
	l0,0c-0.1-0.5-0.3-1-0.8-1.2l0,0c-0.3-0.2-0.6-0.5-0.7-0.9l-1.5-4.7c-0.1-0.2-0.1-0.3-0.2-0.5l-1.7-2.6c-0.1-0.2-0.2-0.5-0.3-0.7
	l-1.3-6.6c0-0.1,0-0.1-0.1-0.2l-1.5-2.1c-0.1-0.1-0.2-0.2-0.3-0.2l-1.1,0c-0.1,0-0.2-0.1-0.3-0.2l-4.6-6c-0.1-0.1-0.1-0.1-0.2-0.2
	l-2.3-0.5c-0.3-0.1-0.5-0.2-0.7-0.3l-1.7-1.3c-0.1-0.1-0.2-0.1-0.4-0.2l-2.7-1c-0.4-0.2-0.9-0.1-1.3,0.2l-0.7,0.6
	c0,0-0.1,0.1-0.1,0.1l-2.1,1.2c-0.4,0.3-0.9,0.3-1.4,0.2l-2.9-0.9c-0.2-0.1-0.5-0.1-0.7-0.1l-1.1,0.1c-0.2,0-0.5,0-0.7,0l-2.3-0.6
	c-0.4-0.1-0.6-0.3-0.8-0.6l-0.6-1.1l1.7,0.8c0.1,0.1,0.3,0.1,0.5,0.1l3.4,0.2c0.2,0,0.3,0,0.5-0.1l2.3-0.7c0.4-0.1,0.7-0.4,0.9-0.8
	L405,92c0.2-0.5,0.7-0.8,1.3-0.8l1.9,0.1c0.3,0,0.6-0.1,0.8-0.2l0.5-0.3c0.9-0.6,0.8-2-0.2-2.4l0,0c-0.4-0.2-0.8-0.6-0.8-1.1l0-0.2
	c0-0.4-0.3-0.7-0.6-0.9l-0.1-0.1c-0.4-0.3-0.9-0.3-1.3-0.1l-2.5,1.2c-0.5,0.3-1.2,0.1-1.6-0.3l0,0l2.8-1.9c0.2-0.2,0.5-0.2,0.8-0.2
	l2.9,0.2c0.3,0,0.6-0.1,0.9-0.3l1.5-1.1c0.2-0.2,0.4-0.5,0.5-0.8l0.1-0.5c0.1-0.4,0.3-0.7,0.6-0.9l0.8-0.5c0.2-0.1,0.4-0.3,0.5-0.5
	l2-3.5c0,0,0.1-0.1,0.1-0.1l1-1.3c0.2-0.3,0.3-0.7,0.3-1l0-0.2c-0.1-0.3,0-0.6,0.2-0.9l1-1.8c0.2-0.3,0.2-0.6,0-0.9l-0.1-0.1
	c-0.1-0.2-0.2-0.5-0.1-0.8l1.2-3c0.1-0.1,0.2-0.3,0.3-0.4l2.1-1.7c0.2-0.2,0.3-0.4,0.3-0.7v-1.5c0-0.3-0.1-0.5-0.3-0.7l-3.1-2.6
	c-0.3-0.3-0.8-0.3-1.1,0l0,0c-0.1,0.1-0.3,0.2-0.5,0.2l-6.3,0.2c-0.1,0-0.3,0-0.4,0l-3.2-0.5c-0.5-0.1-1,0-1.5,0.3l0,0
	c-0.3,0.2-0.7,0.3-1.1,0.3l-1.1,0c-0.2,0-0.4,0-0.6-0.1l-1.9-0.6c-0.2-0.1-0.5-0.1-0.7-0.1l-1,0c-0.3,0-0.5,0.2-0.6,0.4l0,0.1
	c-0.1,0.2-0.2,0.4-0.4,0.4l-2.1,0.6c-0.1,0-0.2,0.1-0.3,0.1l-2.3,1.1c-0.2,0.1-0.4,0.1-0.6,0.1l-0.4,0c-0.3,0-0.5,0.1-0.8,0.2
	l-1.5,1.1l-0.6-0.5l2.5-2.5c0.1-0.1,0.2-0.2,0.2-0.3l2.4-3.6l-1.2,0.6c-0.5,0.2-1,0.3-1.5,0.1l-0.4-0.1c-0.5-0.2-0.5-0.9-0.1-1.1
	l0,0c0.1-0.1,0.3-0.2,0.3-0.4l0.4-1.3c0-0.1,0.1-0.3,0.2-0.3l6.3-4.3c0.1,0,0.1-0.1,0.2-0.2l1.8-2.7c0.1-0.1,0.2-0.2,0.3-0.2
	l1.8-0.6c0.2-0.1,0.3-0.2,0.4-0.4l0.8-2c0.1-0.2,0-0.5-0.1-0.7l-0.5-0.5c-0.2-0.2-0.2-0.5-0.1-0.8l0.9-1.3c0.1-0.1,0.1-0.3,0.1-0.4
	l0,0c-0.1-0.5-0.5-1-1.1-1l-1.9,0c-0.3,0-0.6,0.1-0.8,0.3l-0.8,0.8c-0.2,0.2-0.4,0.2-0.6,0.2l-1.4-0.4c-0.2-0.1-0.5,0-0.7,0
	l-2.8,1.1l-3-0.2l-2.4,0.9l-1.4,0l-1.5,1.3l0.3-1.4l-1.4-0.5l-2.7,2.2l0.8-2l-3.8-1.5l-0.5,1.7c-0.1,0.2-0.2,0.5-0.4,0.6l-0.3,0.2
	c-0.4,0.3-0.6,0.7-0.5,1.2l0.2,1.2l-0.8,0.1l0.1,1.4c0,0.6-0.4,1.1-0.9,1.2l0,0c-0.8,0.2-1.2,1.1-0.8,1.8l0,0c0.2,0.4,0.2,0.8,0,1.2
	l-0.5,0.9c-0.2,0.4-0.6,0.6-1,0.6l-0.7,0l3.1,2.5c0.1,0.1,0.2,0.2,0.3,0.3l1,1.7l-2.7-1.2c-0.4-0.2-0.9-0.1-1.2,0.2l0,0
	c-0.4,0.3-0.9,0.3-1.3,0.1l-1.7-1l-0.2,1c0,0.1,0,0.1,0,0.2l0.5,1.1c0,0.1,0,0.2,0,0.3l-0.4,0.5c-0.1,0.2-0.4,0.2-0.5,0l-0.7-1.4
	c-0.1-0.2-0.4-0.2-0.5,0l-0.8,1.7c-0.1,0.1,0,0.3,0.1,0.3l0.9,1c0.1,0.1,0.1,0.3,0,0.4l-0.6,0.8c-0.1,0.1-0.1,0.3,0,0.4L370,62
	c0.1,0.1,0.1,0.1,0.2,0.1l1.8,0.1l-2.1,0.7c-0.1,0-0.2,0-0.2,0L368,62c-0.2-0.1-0.5,0.1-0.4,0.3L368,65c0,0,0,0,0,0.1l-0.1,0.7
	c0,0.2,0.2,0.3,0.3,0.3l3.9-0.5l-2.6,1.2c-0.1,0-0.1,0.1-0.1,0.1l-0.2,0.5l0.8,0.5c0.1,0,0.2,0.1,0.3,0l2.5-0.8l-0.6,0.7l1.1,1.2
	l-1.8-0.6c-0.1,0-0.2,0-0.2,0l-0.6,0.3c-0.1,0-0.1,0.1-0.1,0.2l-0.4,1.3c0,0.1,0,0.3,0.1,0.4l0.9,0.6l-1.5,0.2
	c-0.1,0-0.2,0.1-0.2,0.1l-0.7,1c-0.1,0.2,0,0.4,0.2,0.5l1.3,0.4c0.1,0,0.2,0.1,0.2,0.2l0.4,1.1l-2.7-1c-0.2-0.1-0.3,0-0.4,0.2
	l-0.3,0.9c-0.1,0.4,0,0.7,0.3,0.9l0,0c0.4,0.2,0.5,0.7,0.3,1.1l-0.2,0.4c-0.1,0.1-0.1,0.2-0.2,0.3l-1,0.7c-0.1,0.1-0.3,0.1-0.5,0.2
	l-2.6,0c-0.1,0-0.3,0.1-0.3,0.1l-0.6,0.6c-0.2,0.2-0.2,0.6,0.1,0.8l0.4,0.2c0.1,0,0.2,0.1,0.3,0.1l2.3-0.1c0.1,0,0.1,0,0.2,0
	l1.6,0.5l-0.3,0.4c-0.1,0.1-0.3,0.2-0.4,0.2l-0.3,0c-0.5,0-0.7,0.6-0.3,0.9l1.4,1.2c0.1,0.1,0.3,0.2,0.5,0.1l0.2-0.1
	c0.2-0.1,0.4,0,0.5,0.1l0.8,0.7c0.2,0.2,0.5,0.2,0.7,0l6.5-5.9l-0.9,1.4c-0.1,0.2-0.1,0.6,0.2,0.7l0.6,0.3l-1.8,0.6
	c-0.1,0-0.2,0.1-0.3,0.3l-1.5,3.2c0,0.1-0.1,0.2,0,0.3l0.1,0.5c0,0.1,0,0.3-0.1,0.4l-1.8,3c-0.1,0.3-0.1,0.6,0.2,0.7l0,0
	c0.2,0.1,0.3,0.4,0.2,0.6l-1.6,3.8c0,0.1,0,0.2,0,0.3l0.4,2.5c0,0.1,0,0.3-0.1,0.4l-0.9,1.1c-0.1,0.2-0.2,0.4,0,0.6l0.5,0.8
	c0.1,0.2,0.4,0.3,0.6,0.2l0.8-0.4l-2.1,3c-0.1,0.1-0.1,0.2-0.1,0.3l-0.3,4.2l-1.6,1.5l0.1,0.4c0.1,0.3,0.4,0.6,0.7,0.6h2
	c0.5,0,0.8-0.4,0.7-0.9l-0.3-1.4l1.5-3.1c0-0.1,0.1-0.2,0-0.3l-0.1-1.6c0-0.1,0-0.3,0.1-0.4l1.5-1.7c0.1-0.1,0.2-0.3,0.1-0.5
	l-1.2-4.5c-0.1-0.3,0.1-0.6,0.5-0.6l0.5,0c0.1,0,0.3-0.1,0.4-0.2l4.2-4.4l-3.2,4.3c-0.1,0.1-0.1,0.2-0.1,0.2l-0.3,2.7
	c0,0.2,0.1,0.4,0.2,0.5l0.3,0.2c0.3,0.2,0.7,0,0.8-0.3l0.1-0.9c0-0.1,0.1-0.3,0.2-0.3l1.4-1c0.3-0.2,0.7-0.1,0.8,0.3l0.3,1
	c0.1,0.4,0.7,0.5,0.9,0.1l1.1-2.3c0-0.1,0.1-0.2,0-0.3l-0.3-1.9c0-0.2,0.1-0.4,0.3-0.5l0.2-0.1c0.4-0.2,0.8,0.1,0.7,0.5l-0.3,1.9
	c0,0.2,0.1,0.4,0.2,0.5l3.3,2.2l-2.6-0.7c-0.3-0.1-0.5,0.1-0.6,0.4l-0.9,3.5c0,0.1,0,0.2,0,0.2l0.6,2.6c0,0.2,0.2,0.3,0.4,0.4
	l1.6,0.3l1.1,2.6l-2.7,2.6l-2.7,6.4c-0.1,0.1-0.1,0.2,0,0.4l0.3,1.4c0.1,0.5-0.4,0.9-0.9,0.7l-0.3-0.1c-0.4-0.2-1,0.1-0.9,0.6
	l0.1,1.9c0,0.1,0.1,0.3,0.1,0.4l1.3,1.7c0.4,0.5,1.3,0.1,1.1-0.5l-0.1-0.4c-0.1-0.3,0.1-0.7,0.4-0.8l1.4-0.4c0.2,0,0.4,0,0.5,0.1
	l4.7,3.1c0.4,0.3,0.9,0,1-0.5l0.1-1.6c0-0.2-0.1-0.4-0.3-0.5l-1.1-0.8c-0.4-0.3-0.3-1,0.2-1.1l0,0c0.2,0,0.3,0,0.4,0.1l4.3,2.5
	c0.1,0.1,0.3,0.1,0.4,0.1l3.1-0.5v-0.8c0-0.2,0.2-0.4,0.4-0.4l2.1,0c0.3,0,0.6-0.2,0.7-0.5l0.5-1.5c0.1-0.3,0.4-0.5,0.7-0.5l2.4,0.1
	c0.8,0,1,1.2,0.1,1.4l0,0c-0.1,0-0.2,0.1-0.3,0.2l-3.1,8.1c-0.1,0.2-0.1,0.5,0.1,0.7l3.5,5.7c0.2,0.4,0.7,0.5,1.1,0.3l0.1-0.1
	c0.6-0.3,1.2,0.1,1.2,0.7l0,0c0,0.8,1,1.1,1.5,0.6l0.9-1c0.2-0.2,0.5-0.3,0.7-0.3l2.9,0.4l-1.2,3.6l1,0.6l-2.8,2
	c-0.3,0.2-0.5,0.7-0.4,1.1l0.8,3c0.1,0.3,0,0.5-0.1,0.7l-1.3,2.2c-0.2,0.4-0.2,0.8,0.1,1.2l1.5,1.8c0,0,0.1,0.1,0.1,0.1l2.1,1.7
	c0.2,0.1,0.3,0.2,0.5,0.2l1.7,0.1l-1.1,0.7c-0.1,0.1-0.3,0.2-0.5,0.2l-1.4,0.1c-0.3,0-0.6-0.1-0.8-0.4l-1.2-1.5
	c-0.3-0.3-0.7-0.5-1.1-0.3l0,0c-0.6,0.2-0.9,0.9-0.5,1.5l0.7,1.1c0.1,0.1,0.2,0.2,0.3,0.3l1.4,0.8l-2.3-0.4c-0.2,0-0.4-0.1-0.5-0.3
	l-1.6-1.5c-0.2-0.2-0.4-0.2-0.6-0.2l-4.9,1.4c-0.1,0-0.2,0-0.3,0l-2.1-0.3c-0.1,0-0.2,0-0.4,0l-5.2,2.3c-0.1,0-0.2,0.1-0.3,0.2
	l-2.7,3.4c-0.1,0.1-0.1,0.1-0.2,0.2l-3.8,2.2c-0.1,0-0.1,0.1-0.2,0.2l-0.7,0.9c-0.4,0.5,0,1.1,0.6,1l0.8-0.1c0.1,0,0.2,0,0.3,0
	l0.5,0.1c0.3,0.1,0.7-0.1,0.8-0.4l0.1-0.4c0.1-0.2,0.2-0.4,0.5-0.5l4.3-1.1c0.5-0.1,0.9,0.3,0.8,0.7l-0.3,1.4c0,0.2,0,0.4,0.2,0.6
	l1.1,1.1c0.3,0.3,0.3,0.8-0.1,1l-0.9,0.6c-0.3,0.2-0.4,0.6-0.2,0.9l0.8,1.3c0.1,0.2,0.2,0.3,0.4,0.3l0.2,0c0.4,0.1,0.7,0.6,0.4,1
	l-3.3,5.6l-2.7,0.9l-2.7,1.8l-1.3,0.1l-3.3,1.9c-0.1,0-0.2,0.1-0.3,0.1l-2.2,0c-0.1,0-0.2,0-0.3,0.1l-2.4,1.5
	c-0.5,0.3-0.3,1,0.2,1.1l1.1,0.2c0.3,0,0.5,0.3,0.5,0.5l0.1,1.2c0,0.3-0.1,0.5-0.4,0.6l0,0c-0.5,0.2-0.4,1,0.1,1.1l2,0.3l-0.4,0.3
	c-0.3,0.3-0.2,0.8,0.1,1l0.6,0.3c0.1,0.1,0.3,0.1,0.4,0l2-0.5c0.1,0,0.1,0,0.1-0.1l2.5-1.4c0,0,0.1,0,0.1,0l3.7-1.1
	c0.3-0.1,0.7,0.1,0.8,0.4l0.2,0.8c0,0.2,0.2,0.4,0.4,0.4l0.6,0.1c0.6,0.1,0.6,1,0,1.2l0,0c-0.2,0.1-0.4,0.2-0.4,0.5l-0.1,0.4
	c-0.1,0.4,0.2,0.7,0.6,0.7l4,0.1l0-0.4c0-0.3,0.2-0.5,0.5-0.6l1.6-0.4c0.2,0,0.4,0,0.6,0.2l2.2,2.3l2.2,2.3l5.1,0
	c0.2,0,0.4-0.1,0.6-0.3l0.8-1.3c0.1-0.2,0.4-0.4,0.6-0.5l2.2-0.9c0,0,0,0,0.1,0l3.3-1.1c0.1,0,0.2-0.1,0.3-0.2l1.1-1.5
	c0.1-0.1,0.1-0.1,0.2-0.2l2.8-1.2l-4,4.2c0,0-0.1,0.1-0.1,0.1l-3.8,3.2c-0.1,0.1-0.2,0.3-0.2,0.5l-0.1,3.2c0,0.4-0.3,0.7-0.7,0.6
	l-1.9-0.1c-0.1,0-0.2,0-0.2,0l-1.8,0.6c-0.2,0.1-0.4,0-0.5,0l-2.1-1c-0.1,0-0.2-0.1-0.2-0.1l-7-0.7l-5,1.2l0.1,2.3l-1.9,1.7
	c-0.1,0.1-0.2,0.1-0.4,0.1l-2,0c-0.3,0-0.6,0.2-0.6,0.5l-0.4,4.4c0,0.2-0.1,0.3-0.2,0.4l-2.7,2.3c-0.1,0-0.1,0.1-0.1,0.2l-0.6,1
	c-0.1,0.2-0.2,0.3-0.4,0.3l-2.6,0.4c-0.2,0-0.4,0.2-0.5,0.4l-0.6,2.2c-0.1,0.3-0.3,0.4-0.6,0.4l-0.6,0c-0.2,0-0.4,0.1-0.5,0.3
	l-0.5,1.1c0,0.1-0.1,0.2-0.2,0.2l-3.6,2.4c-0.2,0.1-0.3,0.1-0.5,0.1l-1.3-0.4c-0.2-0.1-0.4,0-0.5,0.1l-2.2,1.5
	c-0.2,0.1-0.3,0.3-0.3,0.5l0,1.4c0,0.3,0.2,0.6,0.6,0.6l1.8,0.1c0.3,0,0.6-0.2,0.6-0.6l0-0.8c0-0.4,0.4-0.6,0.7-0.6l2.8,0.7
	c0.1,0,0.3,0.1,0.4,0.3l1,1.6c0.2,0.3,0.6,0.4,0.9,0.1l0.9-0.8c0.2-0.2,0.3-0.5,0.1-0.8l-0.3-0.4c-0.1-0.2-0.1-0.5,0-0.7l0.9-1.1
	c0.2-0.3,0.7-0.3,0.9,0l0,0c0.2,0.2,0.6,0.3,0.8,0.1l1.4-1.2c0.1-0.1,0.2-0.1,0.4-0.1l0.8,0c0.2,0,0.4-0.1,0.5-0.3l0.6-1.4
	c0.1-0.3,0.4-0.4,0.7-0.3l2.5,0.6c0.1,0,0.3,0,0.4,0l2.1-0.9c0.1,0,0.2-0.1,0.3,0l1.6,0.2c0.1,0,0.2,0,0.4-0.1l0.8-0.4
	c0.2-0.1,0.6-0.1,0.7,0.2l0.9,1.1c0.1,0.1,0.3,0.2,0.5,0.2l1.2-0.1c0.1,0,0.3,0,0.4,0.1l2,1.5c0.1,0.1,0.2,0.1,0.4,0.1l1.7-0.1
	c0.4,0,0.7-0.4,0.5-0.8l-0.1-0.3c-0.1-0.3,0.1-0.6,0.3-0.7l1.4-0.6c0.2-0.1,0.3-0.2,0.3-0.3l0.4-1.1c0-0.1,0.1-0.2,0-0.3l-0.5-2.1
	c0-0.2,0-0.4,0.2-0.6l1.3-1.2c0.2-0.2,0.4-0.3,0.7-0.3l0.5-0.1c0.4,0,0.7-0.3,0.9-0.6l0.1-0.1c0.2-0.3,0.5-0.5,0.8-0.6l5.3-1.2
	c0.1,0,0.2,0,0.4,0l2.8,0.2c0.1,0,0.2,0,0.3,0.1l3.2,2c0.2,0.1,0.4,0.1,0.6,0.1l1-0.3c0.1,0,0.1,0,0.2,0l3.7,0.1c0.1,0,0.1,0,0.2,0
	l1.4,0.5c0.3,0.1,0.7,0,0.8-0.4l0.7-1.5c0.1-0.1,0.2-0.3,0.3-0.3l3.2-1.5c0.1-0.1,0.3-0.1,0.4,0l2,0.5c0.2,0,0.4,0,0.5-0.1l3-1.8
	c0.1-0.1,0.3-0.1,0.5-0.1l2.1,0.4c0.1,0,0.3,0,0.4,0l0.7-0.1c0.2,0,0.4-0.1,0.6-0.2l0.8-0.5c0.4-0.2,0.9-0.1,1,0.3l0.1,0.1
	c0.1,0.2,0.2,0.3,0.3,0.4l1.6,0.8c0.2,0.1,0.5,0.1,0.7,0l1.8-1.1c0.2-0.1,0.5-0.2,0.7-0.2l4.9-0.1c0.1,0,0.2,0,0.2,0l3.2-0.6
	c0.1,0,0.2,0,0.3,0l3.1,0.9c0,0,0,0,0.1,0l1.3,0.2c0.2,0,0.4,0,0.6-0.1l2.1-1.5c0.1-0.1,0.2-0.1,0.3-0.1l2.3-0.4
	c0.1,0,0.3-0.1,0.4-0.2l2.1-1.8c0.1-0.1,0.3-0.2,0.4-0.2l1.3-0.1c0.1,0,0.1,0,0.2,0l0.4,0.1c0.6,0.1,1.1-0.4,0.9-0.9l0,0
	c-0.1-0.3,0.1-0.7,0.4-0.8l3.4-2.1c0,0,0,0,0,0l2.3-0.4c0.1,0,0.1-0.1,0.1-0.1l0.2-2.1c0,0,0,0,0-0.1l-0.6-1.5c0,0,0-0.1,0-0.1
	l0.7-1.6c0-0.1,0-0.2-0.1-0.2l-4.2,0.1c0,0,0,0,0,0l-3.1,1.1c0,0,0,0,0,0l-1.8,0.3c0,0,0,0-0.1,0l-2.9-1c0,0,0,0,0,0l-1-0.2l1-0.8
	c0,0,0,0,0.1,0l0.9-0.1l0.2-0.5l-2.6-0.6c0,0,0,0-0.1,0l-2.3,0.7l3.2-2c0,0,0.1,0,0.1,0l2,0.2c0,0,0,0,0.1,0l1.9-0.9
	c0.4-0.2,0.5-0.6,0.4-0.9l-0.4-1c-0.1-0.2-0.3-0.4-0.6-0.4l0,0c-0.7,0-1-0.9-0.5-1.3l0.2-0.2c0,0,0,0,0,0l0.9-0.8
	c0.3-0.2,0.7-0.3,0.9,0l0.6,0.5c0.2,0.2,0.6,0.2,0.9,0l1.8-1.2c0.1,0,0.1-0.1,0.2-0.2l0.9-1.2l-1.2-0.2l0-0.1c0.3-0.5,0-1.1-0.5-1.2
	l-0.5,0c-0.5,0-0.7-0.5-0.5-0.9l0.3-0.5c0.1-0.2,0.4-0.3,0.7-0.3l1,0.2c0.2,0,0.3,0.2,0.4,0.4l0,0c0.2,0.4,0.7,0.5,1,0.2l1.2-1.5
	c0.1-0.1,0.2-0.1,0.2-0.2l1.4-0.5c0.2-0.1,0.4-0.3,0.4-0.5l0.3-4c0-0.1,0-0.1,0-0.2l1.6-3.7c0.1-0.2,0.1-0.5-0.1-0.6l-1.1-1.2
	C479,166.2,479,166.1,479,166z M381.9,133.4l-0.8,2.4c-0.2,0.6,0.3,1.2,0.9,1.1l1.2-0.2c0.2,0,0.3-0.1,0.4-0.2l3.4-3.1
	c0.3-0.2,0.3-0.6,0.2-0.9l-0.3-0.8c-0.1-0.2-0.1-0.3,0-0.5l0,0c0.2-0.8-0.7-1.3-1.3-0.8l-3.4,2.7C382,133.1,381.9,133.2,381.9,133.4
	z M388.7,155.2l1.7-1.2c0.6-0.4,0.2-1.3-0.4-1.2l0,0c-0.3,0-0.5-0.1-0.6-0.3l-0.9-1.7c-0.1-0.2-0.4-0.4-0.7-0.3l-2.6,0.3
	c-0.2,0-0.5,0.2-0.5,0.4c-0.2,0.4-0.4,1.1-0.6,1.6c-0.1,0.3,0,0.7,0.3,0.8l3.7,1.7C388.3,155.3,388.6,155.3,388.7,155.2z M435.5,207
	l-2.3,1.1c-0.6,0.3-0.5,1.2,0.2,1.3l0,0c0.1,0,0.2,0,0.2,0.1l2,1.3c0.1,0.1,0.3,0.1,0.5,0.1l1.4-0.2c0.3,0,0.6-0.3,0.6-0.7l0-0.3
	c0-0.1,0-0.3,0.1-0.4l0.2-0.3c0.3-0.5-0.1-1.1-0.6-1l0,0c-0.2,0-0.3,0-0.4-0.1l-1.1-0.8C435.9,206.9,435.7,206.9,435.5,207z
	 M353.9,53.8l-1,0.5c-0.1,0.1-0.2,0.1-0.3,0.3l-0.5,0.9c-0.1,0.1-0.1,0.2-0.2,0.2l-1,0.5l1.7,1.2c0.2,0.1,0.5,0.1,0.6,0l2.7-2.1
	c0.3-0.3,0.2-0.8-0.1-0.9l-1.5-0.6C354.2,53.7,354.1,53.7,353.9,53.8z M377.9,98.8l-0.5-0.5c-0.3-0.3-0.8-0.1-0.8,0.3l-0.1,0.8
	c0,0.2,0.1,0.3,0.2,0.5l0.7,0.5c0.4,0.3,0.9,0,0.8-0.5l-0.1-0.8C378,99,378,98.8,377.9,98.8z M350.2,60.6l0.1-0.8
	c0-0.3-0.2-0.6-0.5-0.6l-3.5-0.3c-0.1,0-0.2,0-0.3,0.1l-0.5,0.2c-0.3,0.2-0.4,0.6-0.1,0.9l1.5,1.4c0.1,0.1,0.3,0.2,0.5,0.1l2.3-0.5
	C350,61,350.2,60.8,350.2,60.6z M351.7,52.2l0.8,0.6c0.1,0.1,0.3,0.1,0.4,0.1l2.5-0.4c0.1,0,0.1,0,0.2,0l2.5,0.6
	c0.2,0,0.4,0,0.6-0.2l1.5-2c0.2-0.2,0.1-0.6-0.1-0.8l-0.2-0.1c-0.2-0.1-0.3-0.4-0.2-0.7l0.7-1.7c0-0.1,0.1-0.1,0.1-0.2l2.6-2.2
	c0.1-0.1,0.2-0.3,0.2-0.5l-0.4-2.8c-0.1-0.4-0.5-0.6-0.8-0.4l-6.5,4.1c-0.2,0.1-0.3,0.4-0.2,0.6l0.3,0.7c0.2,0.4-0.3,0.9-0.7,0.7
	l-2-0.8c-0.2-0.1-0.5,0-0.6,0.1l-1.3,1.4c-0.2,0.2-0.2,0.6,0,0.8l1,0.9c0.3,0.2,0.2,0.6-0.1,0.8l-0.3,0.2
	C351.4,51.6,351.4,52,351.7,52.2z M352.3,85l0.8-0.6c0.4-0.3,0.2-0.9-0.3-0.9l-0.7,0c-0.3,0-0.5,0.2-0.5,0.4l-0.1,0.6
	C351.5,85,352,85.3,352.3,85z M344.9,72.5l-0.6,0.7c-0.1,0.1-0.1,0.2-0.1,0.3l-0.1,0.4c-0.1,0.4,0.4,0.8,0.8,0.5l0.9-0.5
	c0.2-0.1,0.3-0.4,0.2-0.7l-0.3-0.6C345.7,72.3,345.2,72.2,344.9,72.5z M346.4,63.2L346.4,63.2c0,0.3,0.1,0.5,0.4,0.6l1.2,0.4
	c0.3,0.1,0.6,0,0.7-0.3l0.3-0.7c0.2-0.4-0.2-0.8-0.6-0.7l-1.6,0.2C346.6,62.7,346.4,63,346.4,63.2z M347.9,65l-0.7-0.1
	c-0.3-0.1-0.7,0.2-0.6,0.6l0.1,0.9c0,0.1,0,0.2-0.1,0.3l-0.8,1.5c-0.1,0.1-0.1,0.3,0,0.4l0.5,1.5c0.1,0.2,0.2,0.3,0.4,0.4l0.8,0.2
	c0.4,0.1,0.7-0.3,0.6-0.7l-0.4-1.5c0-0.1,0-0.3,0.1-0.4l0.6-1.1c0.1-0.1,0.1-0.2,0.1-0.4l-0.2-1.2C348.3,65.2,348.1,65.1,347.9,65z"
	/>
<path class="st1" d="M141.9,63.2c-5-10.1-12-17.9-20.9-23.5c-10.8-6.9-26.5-10.3-47.1-10.3H26.6L0,223.8h34.7l9.3-55.3h25.6
	c30,0,51.9-9.4,65.8-28.3c9.4-12.7,14.1-27.4,14.1-44.2C149.5,84.5,146.9,73.6,141.9,63.2z"/>
<g>
	<path class="st1" d="M193.4,143.5h27.3v77h-27.3v-8.5c-5.8,7.3-13.7,10.9-23.6,10.9c-5.6,0-10.8-1-15.4-3.1
		c-4.7-2-8.8-4.9-12.3-8.6c-3.5-3.7-6.2-8-8.2-13.1c-2-5-2.9-10.4-2.9-16.4c0-5.5,0.9-10.7,2.9-15.7c1.9-5,4.5-9.3,8-13
		c3.4-3.7,7.4-6.6,12.1-8.8c4.7-2.1,9.9-3.2,15.6-3.2c9.6,0,17.5,3.4,23.9,10.1V143.5z M159.2,181.8c0,2.5,0.5,4.8,1.4,7
		c0.9,2.2,2.1,4,3.7,5.6c1.5,1.6,3.4,2.9,5.6,3.8c2.1,0.9,4.5,1.4,7,1.4c2.4,0,4.7-0.5,6.8-1.4c2.1-0.9,4-2.1,5.5-3.8
		c1.5-1.6,2.8-3.4,3.8-5.5c0.9-2.1,1.4-4.4,1.4-6.8s-0.5-4.7-1.4-6.8c-1-2.1-2.2-4-3.8-5.6c-1.6-1.6-3.4-2.9-5.5-3.8
		c-2.2-0.9-4.4-1.4-6.8-1.4c-2.5,0-4.8,0.5-7,1.4c-2.2,0.9-4,2.2-5.6,3.8c-1.6,1.6-2.8,3.4-3.7,5.5
		C159.6,177.2,159.2,179.4,159.2,181.8z"/>
	<path class="st1" d="M231.6,143.5h27.2v9.8c3.7-4.5,7.4-7.5,11.2-9.1c3.8-1.5,8.2-2.3,13.3-2.3c5.4,0,10,0.9,13.9,2.6
		c3.8,1.8,7.1,4.2,9.8,7.4c2.2,2.6,3.7,5.5,4.5,8.7c0.8,3.2,1.2,6.9,1.2,11v48.9h-27.2v-38.9c0-3.8-0.3-6.9-0.8-9.2
		c-0.6-2.3-1.5-4.2-2.9-5.6c-1.2-1.2-2.6-2-4.1-2.5c-1.5-0.5-3.1-0.8-4.8-0.8c-4.6,0-8.1,1.4-10.6,4.1c-2.5,2.8-3.7,6.7-3.7,11.8
		v41.1h-27.2V143.5z"/>
	<path class="st1" d="M321.9,169h43v22.7h-43V169z"/>
</g>
<ellipse class="st2" cx="79.8" cy="98.3" rx="48.2" ry="49.6"/>
<g>
	<path class="st1" d="M49.1,75.5v30.8c0,1.6,0.1,3.3,0.2,5.1c0.1,1.7,0.5,3.3,1.1,4.7c0.6,1.4,1.6,2.5,3,3.4
		c1.4,0.9,3.2,1.3,5.7,1.3c2.4,0,4.3-0.4,5.7-1.3c1.3-0.9,2.3-2,3-3.4c0.6-1.4,1-3,1.2-4.7c0.1-1.7,0.2-3.4,0.2-5.1V75.5h14.6v32.8
		c0,8.8-2,15.2-6,19.3c-4,4-10.2,6.1-18.6,6.1c-8.4,0-14.6-2-18.6-6.1c-4-4-6.1-10.5-6.1-19.3V75.5H49.1z"/>
	<path class="st1" d="M104.6,98.8l17.9-23.3h18.2l-22.4,26.8l24.5,29.8h-19l-19.1-24.5v24.5H89.9V75.5h14.7V98.8z"/>
	<path class="st3" d="M153.6,75.5h21.9c5.2,0,9.1,1.2,11.8,3.8c2.7,2.5,4,6.1,4,10.8c0,2.9-0.5,5.2-1.5,7.1c-1,1.9-2.6,3.5-4.7,4.8
		c2.1,0.4,3.9,1,5.4,1.8c1.5,0.8,2.7,1.8,3.6,3c0.9,1.2,1.6,2.5,2,4c0.4,1.5,0.6,3.1,0.6,4.8c0,2.7-0.5,5-1.4,7
		c-0.9,2.1-2.2,3.8-3.9,5.2c-1.7,1.4-3.7,2.5-6.1,3.2c-2.4,0.7-5.1,1-8.1,1h-23.6V75.5z M168.3,97.7h2.7c4.6,0,6.9-1.8,6.9-5.5
		c0-3.6-2.3-5.5-6.9-5.5h-2.7V97.7z M168.3,120.7h3.2c3.7,0,6.3-0.5,8-1.4c1.6-0.9,2.4-2.5,2.4-4.6s-0.8-3.6-2.4-4.6
		c-1.6-0.9-4.2-1.4-8-1.4h-3.2V120.7z"/>
	<path class="st3" d="M197.7,78.8c0-1,0.2-2,0.6-3c0.4-0.9,0.9-1.7,1.7-2.4c0.7-0.7,1.5-1.2,2.4-1.6c0.9-0.4,1.9-0.6,3-0.6
		c1,0,2,0.2,3,0.6c0.9,0.4,1.7,1,2.4,1.6c0.7,0.7,1.2,1.5,1.7,2.4c0.4,0.9,0.6,1.9,0.6,3s-0.2,2-0.6,3c-0.4,0.9-1,1.7-1.7,2.4
		c-0.7,0.7-1.5,1.3-2.4,1.6c-0.9,0.4-1.9,0.6-3,0.6c-1.1,0-2-0.2-3-0.6c-0.9-0.4-1.7-0.9-2.4-1.6c-0.7-0.7-1.2-1.5-1.7-2.4
		C197.9,80.9,197.7,79.9,197.7,78.8z M212.2,93.6v38.5h-13.6V93.6H212.2z"/>
	<path class="st3" d="M214.4,112.5c0-2.8,0.6-5.5,1.7-8c1.1-2.5,2.7-4.6,4.8-6.5c2-1.8,4.5-3.3,7.3-4.3c2.8-1,5.9-1.6,9.3-1.6
		c3.3,0,6.4,0.5,9.2,1.5c2.8,1,5.3,2.5,7.3,4.3c2.1,1.8,3.7,4,4.8,6.5c1.1,2.5,1.7,5.3,1.7,8.4c0,3.1-0.6,5.8-1.8,8.4
		c-1.2,2.5-2.8,4.7-4.8,6.5c-2.1,1.8-4.5,3.2-7.4,4.2c-2.9,1-6,1.5-9.3,1.5c-3.3,0-6.4-0.5-9.2-1.5c-2.8-1-5.2-2.4-7.2-4.3
		c-2-1.8-3.6-4.1-4.8-6.6C215,118.5,214.4,115.6,214.4,112.5z M228.7,112.6c0,1.3,0.2,2.5,0.7,3.6c0.5,1.1,1.1,2,1.9,2.8
		c0.8,0.8,1.7,1.4,2.8,1.9c1.1,0.4,2.2,0.7,3.4,0.7s2.3-0.2,3.4-0.7c1.1-0.5,2-1.1,2.8-1.9c0.8-0.8,1.4-1.7,1.9-2.8
		c0.5-1.1,0.7-2.2,0.7-3.5c0-1.2-0.2-2.3-0.7-3.4c-0.5-1.1-1.1-2-1.9-2.8c-0.8-0.8-1.7-1.4-2.8-1.9c-1.1-0.4-2.2-0.7-3.4-0.7
		s-2.3,0.2-3.4,0.7c-1.1,0.5-2,1.1-2.8,1.9c-0.8,0.8-1.4,1.7-1.9,2.8C228.9,110.3,228.7,111.4,228.7,112.6z"/>
	<path class="st3" d="M276.3,69.8v27.6c3.2-3.3,7.2-5,12-5c2.9,0,5.5,0.5,7.8,1.6c2.4,1.1,4.4,2.5,6.1,4.4c1.7,1.8,3,4,3.9,6.4
		c0.9,2.5,1.4,5.1,1.4,7.9c0,2.9-0.5,5.5-1.5,8c-1,2.5-2.3,4.7-4.1,6.5c-1.8,1.9-3.8,3.3-6.2,4.4c-2.4,1.1-4.9,1.6-7.7,1.6
		c-5,0-9-1.8-11.9-5.5v4.3h-13.6V69.8H276.3z M293.4,112.9c0-1.2-0.2-2.3-0.7-3.4c-0.5-1.1-1.1-2-1.9-2.8c-0.8-0.8-1.7-1.4-2.8-1.9
		c-1-0.5-2.2-0.7-3.5-0.7c-1.2,0-2.3,0.2-3.4,0.7c-1,0.4-2,1.1-2.7,1.9c-0.8,0.8-1.4,1.7-1.9,2.8c-0.5,1.1-0.7,2.2-0.7,3.4
		c0,1.2,0.2,2.3,0.7,3.4c0.4,1.1,1.1,2,1.9,2.7c0.8,0.8,1.7,1.4,2.8,1.9c1.1,0.5,2.2,0.7,3.4,0.7s2.3-0.2,3.4-0.7
		c1-0.5,2-1.1,2.7-1.9c0.8-0.8,1.4-1.7,1.9-2.8C293.2,115.2,293.4,114.1,293.4,112.9z"/>
	<path class="st3" d="M339.4,93.6h13.7v38.5h-13.7v-4.3c-2.9,3.7-6.8,5.5-11.8,5.5c-2.8,0-5.4-0.5-7.7-1.5c-2.4-1-4.4-2.5-6.1-4.3
		c-1.8-1.8-3.1-4-4.1-6.5c-1-2.5-1.5-5.2-1.5-8.2c0-2.7,0.5-5.4,1.4-7.8c0.9-2.5,2.3-4.6,4-6.5c1.7-1.8,3.7-3.3,6.1-4.4
		c2.3-1.1,5-1.6,7.8-1.6c4.8,0,8.8,1.7,11.9,5V93.6z M322.3,112.7c0,1.3,0.2,2.4,0.7,3.5c0.5,1.1,1.1,2,1.8,2.8
		c0.8,0.8,1.7,1.4,2.8,1.9c1.1,0.4,2.2,0.7,3.5,0.7c1.2,0,2.3-0.2,3.4-0.7c1.1-0.5,2-1.1,2.8-1.9c0.8-0.8,1.4-1.7,1.9-2.8
		c0.5-1,0.7-2.2,0.7-3.4c0-1.2-0.2-2.3-0.7-3.4c-0.5-1.1-1.1-2-1.9-2.8c-0.8-0.8-1.7-1.4-2.8-1.9c-1.1-0.5-2.2-0.7-3.4-0.7
		c-1.3,0-2.4,0.2-3.5,0.7c-1.1,0.4-2,1.1-2.8,1.9c-0.8,0.8-1.4,1.7-1.8,2.7C322.5,110.4,322.3,111.5,322.3,112.7z"/>
	<path class="st3" d="M356.7,93.6h13.6v4.9c1.8-2.2,3.7-3.8,5.6-4.5c1.9-0.8,4.1-1.2,6.7-1.2c2.7,0,5,0.4,6.9,1.3
		c1.9,0.9,3.6,2.1,4.9,3.7c1.1,1.3,1.8,2.8,2.2,4.4c0.4,1.6,0.6,3.4,0.6,5.5v24.5h-13.6v-19.4c0-1.9-0.1-3.4-0.4-4.6
		c-0.3-1.2-0.8-2.1-1.5-2.8c-0.6-0.6-1.3-1-2-1.3c-0.8-0.2-1.6-0.4-2.4-0.4c-2.3,0-4.1,0.7-5.3,2.1c-1.2,1.4-1.8,3.3-1.8,5.9v20.5
		h-13.6V93.6z"/>
	<path class="st3" d="M414.4,69.8v37.6l14.2-13.9h18.6L428,111.4l20.4,20.7h-19l-14.9-15.7v15.7h-13.6V69.8H414.4z"/>
</g>
<g>
</g>
<g>
</g>
<g>
</g>
<g>
</g>
<g>
</g>
<g>
</g>
</svg>
