<svg id="Layer_1" data-name="Layer 1" xmlns="http://www.w3.org/2000/svg" viewBox="0 0 480.32 272.08"><defs><style>.cls-1{fill:#ccc;}.cls-2,.cls-3,.cls-6{fill:#3578e5;}.cls-3{font-size:150px;}.cls-3,.cls-6,.cls-7,.cls-8{font-family:Futura-Bold, Futura;font-weight:700;}.cls-4{letter-spacing:-0.05em;}.cls-5{fill:#fff;}.cls-6,.cls-7,.cls-8{font-size:70.87px;}.cls-6,.cls-8{letter-spacing:-0.07em;}.cls-7{fill:#006683;letter-spacing:-0.08em;}.cls-8{fill:#222;}</style></defs><path class="cls-1" d="M363.9,75.13h-1a.54.54,0,0,0-.54.59l.07.84Zm-.34,26.14-1.12-4a.51.51,0,0,0-.66-.34l-3.94,1.45a.5.5,0,0,0-.34.48l.05,2.67a.5.5,0,0,0,.75.43l1.44-.82a.5.5,0,0,1,.75.51l-.12.93a.5.5,0,0,0,.74.51l2.2-1.22A.51.51,0,0,0,363.56,101.27ZM361.38,59l-.9.37a.56.56,0,0,0-.33.56l.21,1.87a.54.54,0,0,1-.82.52l-1.68-1.06a.55.55,0,0,0-.83.49l0,.61a.53.53,0,0,1-.8.5h0a.54.54,0,0,0-.63.07l-.43.38a.54.54,0,0,0,.06.85l2.45,1.66.16-1.16.84.6a.54.54,0,0,1,.17.68l-.13.26a.54.54,0,0,0,0,.52l1.92,3.1a.53.53,0,0,0,.5.25l2.75-.26a.84.84,0,0,1,.91.77l.1,1.2a.84.84,0,0,0,1,.76l.11,0a.56.56,0,0,0,.41-.34l.84-2.22a.36.36,0,0,1,.14-.16l1.73-.92a.3.3,0,0,0,0-.52l-.68-.44a.34.34,0,0,0-.22,0l-1.52.26a.9.9,0,0,1-.51-.07l-2.83-1.36a.54.54,0,0,1-.3-.53l.35-4.44a.9.9,0,0,0-.14-.53l-1.32-2A.56.56,0,0,0,361.38,59Zm6.33,25.18L366.09,84a.49.49,0,0,1-.3-.14l-2.32-2.37a.5.5,0,0,0-.63-.07l-1.94,1.24a.51.51,0,0,0,.06.89l2.49,1.11a.51.51,0,0,1,0,.92l-.93.45a.51.51,0,0,0-.19.75h0a.49.49,0,0,1-.13.71l-.3.2a.51.51,0,0,0,.38.92l3.24-.66a.52.52,0,0,1,.59.38l.1.42L368.81,87a.5.5,0,0,0,.17-.64l-.89-1.84A.5.5,0,0,0,367.71,84.2Zm-8.12-10.93.65,1.14a.53.53,0,0,0,.81.15l.31-.25a.54.54,0,0,0,.13-.66l-.49-1a.55.55,0,0,0-.54-.29l-.46.06A.54.54,0,0,0,359.59,73.27Zm7,23.94L368,94.32a.51.51,0,0,0-.78-.62l-3.58,3a.51.51,0,0,0-.14.58l.69,1.62a.5.5,0,0,0,.85.13l1.45-1.76Zm-11-14.65,1.19-.48A2.16,2.16,0,0,0,358,80.74l.44-1.36Zm6.27,9.67-1,2.92L362.07,94a.49.49,0,0,0,.14-.5Zm65.08-74a.53.53,0,0,0-.79.13L425,20.28l1.88-1.22a.53.53,0,0,0,.05-.84Zm2.18-12.41,0-3a.54.54,0,0,0-.23-.43l-.28-.19a.53.53,0,0,0-.81.36l-.14,1a.67.67,0,0,1-.1.23l-1,1.33a.53.53,0,0,0,.06.69l1,1a.53.53,0,0,0,.73,0l.56-.56A.52.52,0,0,0,429.12,5.81ZM431,.14l-.23.21a.53.53,0,0,0-.1.67l.1.15a.53.53,0,0,0,.94-.09l.14-.37A.53.53,0,0,0,431,.14ZM401.87,34.41l-.78-1a.44.44,0,0,0-.46-.18l-.46.09a.47.47,0,0,0-.29.73l1,1.42a.47.47,0,0,0,.8,0l.25-.49A.46.46,0,0,0,401.87,34.41Zm-.35-4,.14,1.71a.46.46,0,0,0,.52.43l2.53-.29a.48.48,0,0,1,.28.06l.92.52a.47.47,0,0,0,.7-.4l0-1a.48.48,0,0,0-.51-.48l-3.12.23.86-.9a.46.46,0,0,0,0-.67l-1.45-1.3a.48.48,0,0,0-.35-.12l-1.84.16a.47.47,0,0,0-.43.46v2.07a.47.47,0,0,0,.12.32l.42.45a.46.46,0,0,0,.78-.15ZM424,5.66l-1.28.3a.52.52,0,0,0-.38.35L422,7.45a.53.53,0,0,0,.25.63l1.46.75a.52.52,0,0,0,.75-.43l.21-2.18A.53.53,0,0,0,424,5.66ZM404.09,27.11h0a.47.47,0,0,0-.28.79h0a.47.47,0,0,0,.8-.24h0A.47.47,0,0,0,404.09,27.11ZM369.45,130l-.8-.13a.74.74,0,0,1-.57-1l.48-1.2a.72.72,0,0,0,0-.61l-.29-.56a.74.74,0,0,1,.55-1.08l.22,0a.75.75,0,0,1,.79.48l.39,1.06a.38.38,0,0,0,.73-.19l-.35-2.29a.72.72,0,0,0-.69-.62l-1.73-.08a.74.74,0,0,1-.37-1.35h0a.74.74,0,0,0,.17-1.06l-4.31-5.55a.77.77,0,0,1-.15-.36l-.26-2.19a.76.76,0,0,0-.41-.58l-2-1a.72.72,0,0,0-.25-.07l-4.72-.46a.75.75,0,0,0-.44.1l-2.89,1.68a.66.66,0,0,1-.29.09l-1.48.16a.76.76,0,0,0-.45.21l-.71.72a.78.78,0,0,1-.4.21l-2.73.48a.78.78,0,0,0-.38.2l-1.35,1.33a.8.8,0,0,1-.19.13l-1.89.92a.71.71,0,0,0-.36.4l-.74,2a.73.73,0,0,1-.6.47l-2.57.34a.75.75,0,0,0-.56.38l-3.21,6a.75.75,0,0,0,.18.92l6.34,5.34a.73.73,0,0,0,.6.16l1.63-.29a.73.73,0,0,0,.58-.56l.83-3.42a.78.78,0,0,1,.29-.44l1.37-.94a.73.73,0,0,1,.73-.06l4.28,2a.71.71,0,0,1,.33.31l2.89,5.2a.73.73,0,0,0,.53.37l1.95.32a.73.73,0,0,1,.28.1l3.35,2.09a.77.77,0,0,0,.29.1l.53.07-.13-1.24a.74.74,0,0,1,.89-.8l.2,0a.77.77,0,0,0,.59-.13l2-1.49a.72.72,0,0,0,.29-.5l.16-1.13a.73.73,0,0,1,.83-.63l2.56.35a.74.74,0,0,0,.82-.58l.25-1.16A.75.75,0,0,0,369.45,130Zm97.75,61h-.06l-1.09.55,2,.93a.11.11,0,0,0,.08,0l1.44-.36a.12.12,0,0,0,.06-.21l-.82-.82a.11.11,0,0,0-.08,0Zm-94.51-87.62.78,4,3.23,1.24.88-2.82a.53.53,0,0,0,0-.39l-2-3.62a.5.5,0,0,0-.71-.19l-2,1.24A.49.49,0,0,0,372.69,103.31ZM479,166l-.68-3.32a.59.59,0,0,0-.25-.38l-5.33-3.76a.52.52,0,0,0-.32-.11l-7.62-.36h0l-4.32.11a.59.59,0,0,0-.58.52l-.32,2.68a.63.63,0,0,1-.1.27l-.8,1.18a.59.59,0,0,1-.91.09l-2-2a.64.64,0,0,0-.29-.16l-1.75-.39a.6.6,0,0,1-.27-1l3.81-3.48a.57.57,0,0,0,.2-.44v-2.23a.67.67,0,0,0-.1-.34l-3.08-4.52a2.75,2.75,0,0,0-1.82-1.15h0a1.85,1.85,0,0,1-.65-.22l-2.6-1.38a2.21,2.21,0,0,1-.78-.71l-.34-.53a2.13,2.13,0,0,0-2.16-.93l-.29.06-.16,0-.56.15a2.07,2.07,0,0,1-1.13,0l-1.22-.35a2.33,2.33,0,0,0-.59-.08h-.91l1.8-.42a2,2,0,0,1,1,0l.59.14a2.06,2.06,0,0,0,.89,0l1.43-.28a2.15,2.15,0,0,1,1.15.1l.63.24a2.28,2.28,0,0,1,.71.44l.23.22a2.11,2.11,0,0,0,1.81.55l.32-.05a1.94,1.94,0,0,1,.76,0l1.28.25-4.52-5.06L448,138.17a2.12,2.12,0,0,1-.13-2.59h0a2.19,2.19,0,0,1,1.07-.8l.57-.19-1.71-.87A2.07,2.07,0,0,1,447,133l-.52-.81a.51.51,0,0,0-.39-.24l-.48-.06a.55.55,0,0,1-.4-.26l-2.27-3.77a1.52,1.52,0,0,0-.67-.61l-3.38-1.6a2.29,2.29,0,0,0-.37-.12l-4.35-.84a1.58,1.58,0,0,1-1.27-1.39v0a1.58,1.58,0,0,0-.8-1.23h0a1.52,1.52,0,0,1-.73-.88l-1.55-4.67a1.86,1.86,0,0,0-.23-.47l-1.69-2.56a1.9,1.9,0,0,1-.3-.72l-1.26-6.59a.77.77,0,0,0-.07-.16l-1.55-2.12a.42.42,0,0,0-.32-.16h-1.12a.4.4,0,0,1-.32-.16l-4.56-6a.38.38,0,0,0-.24-.15l-2.29-.47a1.84,1.84,0,0,1-.7-.31l-1.72-1.27a1.7,1.7,0,0,0-.35-.19l-2.7-1a1.33,1.33,0,0,0-1.3.22l-.74.6-.15.1-2.06,1.24a1.76,1.76,0,0,1-1.4.18l-2.94-.86a1.75,1.75,0,0,0-.72-.06L400,95.7a1.83,1.83,0,0,1-.7,0L396.92,95a1.36,1.36,0,0,1-.82-.65l-.63-1.14,1.68.79a1.31,1.31,0,0,0,.47.12l3.36.25a1.11,1.11,0,0,0,.48,0l2.31-.68a1.35,1.35,0,0,0,.86-.77L405,92a1.35,1.35,0,0,1,1.29-.83l1.9.07A1.34,1.34,0,0,0,409,91l.51-.35a1.35,1.35,0,0,0-.23-2.37h0a1.33,1.33,0,0,1-.81-1.07l0-.22a1.33,1.33,0,0,0-.58-.94l-.1-.07a1.34,1.34,0,0,0-1.34-.1l-2.52,1.19a1.36,1.36,0,0,1-1.58-.3h0l2.82-1.88a1.45,1.45,0,0,1,.83-.23l2.86.16a1.35,1.35,0,0,0,.91-.28l1.47-1.15a1.36,1.36,0,0,0,.49-.77l.12-.54a1.34,1.34,0,0,1,.63-.87l.76-.46a1.41,1.41,0,0,0,.48-.49l2-3.54.1-.14,1-1.31a1.35,1.35,0,0,0,.25-1l0-.2a1.35,1.35,0,0,1,.17-.9l1-1.8a.86.86,0,0,0,0-.9l-.06-.1a.89.89,0,0,1-.06-.78l1.2-3a.91.91,0,0,1,.28-.37l2.13-1.67a.9.9,0,0,0,.34-.7V62.3a.86.86,0,0,0-.33-.68l-3.11-2.56a.89.89,0,0,0-1.11,0h0a.88.88,0,0,1-.51.18l-6.34.19a2.6,2.6,0,0,1-.4,0l-3.16-.52a2.13,2.13,0,0,0-1.48.3h0a2.09,2.09,0,0,1-1.14.34h-1.1a2,2,0,0,1-.64-.11l-1.89-.6a2.14,2.14,0,0,0-.71-.1l-1,0a.59.59,0,0,0-.57.43l0,.11a.59.59,0,0,1-.43.41l-2.06.56a1.61,1.61,0,0,0-.33.12l-2.32,1.13a1.29,1.29,0,0,1-.58.13l-.4,0a1.19,1.19,0,0,0-.75.23l-1.52,1.09-.58-.52,2.46-2.49a1.78,1.78,0,0,0,.21-.27L394.71,56l-1.18.61a1.86,1.86,0,0,1-1.46.09l-.36-.13a.61.61,0,0,1-.08-1.11h0a.6.6,0,0,0,.29-.37l.36-1.33a.6.6,0,0,1,.25-.35l6.32-4.29A.69.69,0,0,0,399,49l1.76-2.66a.68.68,0,0,1,.33-.25l1.77-.58a.64.64,0,0,0,.38-.36l.79-2a.64.64,0,0,0-.14-.68l-.49-.47a.64.64,0,0,1-.07-.8l.87-1.26a.64.64,0,0,0,.11-.44h0a1.1,1.1,0,0,0-1.09-.95h-1.9a1.06,1.06,0,0,0-.75.31l-.79.75a.62.62,0,0,1-.59.16l-1.43-.39a1.16,1.16,0,0,0-.69,0l-2.84,1.14-3-.24-2.44.89-1.43,0-1.48,1.27.33-1.39-1.36-.53-2.7,2.2.8-2-3.8-1.55L378.65,41a1.15,1.15,0,0,1-.44.62l-.34.25a1.15,1.15,0,0,0-.46,1.17l.23,1.2-.78.06.06,1.43a1.16,1.16,0,0,1-.94,1.2h0a1.17,1.17,0,0,0-.76,1.78v0a1.16,1.16,0,0,1,.05,1.18l-.47.86a1.16,1.16,0,0,1-1,.61l-.69,0,3.13,2.53a1.14,1.14,0,0,1,.27.31l1,1.66-2.66-1.21a1.17,1.17,0,0,0-1.22.16h0a1.18,1.18,0,0,1-1.35.09l-1.71-1.05-.15,1a.32.32,0,0,0,0,.17l.53,1.15a.29.29,0,0,1,0,.3l-.41.54a.3.3,0,0,1-.5,0l-.74-1.37a.3.3,0,0,0-.53,0l-.84,1.7a.31.31,0,0,0,.06.34l.94,1a.3.3,0,0,1,0,.39l-.65.82a.32.32,0,0,0,0,.4L370,62a.25.25,0,0,0,.2.09l1.81.09-2.15.72a.31.31,0,0,1-.23,0L368,62a.3.3,0,0,0-.44.31L368,65a.16.16,0,0,1,0,.07l-.05.72a.3.3,0,0,0,.34.32l3.88-.54-2.64,1.2a.31.31,0,0,0-.15.15l-.25.55.76.46a.28.28,0,0,0,.25,0l2.52-.85-.61.65L373.11,69l-1.85-.65a.36.36,0,0,0-.25,0l-.59.33a.36.36,0,0,0-.14.16l-.45,1.26a.32.32,0,0,0,.12.35l.89.57-1.48.23a.28.28,0,0,0-.2.12l-.71,1a.3.3,0,0,0,.16.46l1.3.4a.31.31,0,0,1,.2.19l.37,1.13-2.72-1a.3.3,0,0,0-.39.19l-.3,1a.79.79,0,0,0,.35.92h0a.8.8,0,0,1,.27,1.09l-.22.39a.79.79,0,0,1-.23.25l-1,.73a.88.88,0,0,1-.46.16l-2.56,0a.51.51,0,0,0-.35.15l-.63.61a.51.51,0,0,0,.12.81l.39.21a.63.63,0,0,0,.27.06l2.26-.14a.47.47,0,0,1,.17,0l1.62.46-.28.42a.48.48,0,0,1-.42.23h-.26a.51.51,0,0,0-.33.89l1.37,1.17a.5.5,0,0,0,.51.08l.24-.09a.51.51,0,0,1,.54.11l.77.74a.5.5,0,0,0,.69,0l6.52-5.94-.86,1.45a.5.5,0,0,0,.19.69l.56.32-1.82.58a.52.52,0,0,0-.31.27l-1.49,3.24a.55.55,0,0,0,0,.31l.11.54a.48.48,0,0,1-.06.37l-1.77,3a.5.5,0,0,0,.21.7l0,0a.51.51,0,0,1,.24.64L369.81,94a.45.45,0,0,0,0,.28l.4,2.49a.52.52,0,0,1-.11.4l-.92,1.11a.51.51,0,0,0,0,.6l.53.81a.51.51,0,0,0,.64.17l.8-.38-2.1,3a.54.54,0,0,0-.09.25l-.33,4.23-1.64,1.48.08.41a.74.74,0,0,0,.72.6h2a.74.74,0,0,0,.72-.89l-.29-1.36,1.49-3.15a.51.51,0,0,0,0-.25l-.11-1.61a.52.52,0,0,1,.13-.38l1.55-1.72a.51.51,0,0,0,.11-.46l-1.19-4.5a.5.5,0,0,1,.47-.63h.46a.52.52,0,0,0,.35-.16l4.16-4.42-3.19,4.25a.54.54,0,0,0-.09.25l-.32,2.7a.52.52,0,0,0,.22.48l.29.2a.51.51,0,0,0,.78-.35l.14-.88a.52.52,0,0,1,.21-.33l1.39-1a.51.51,0,0,1,.78.26l.32,1a.51.51,0,0,0,.94.07l1.12-2.27a.51.51,0,0,0,0-.3L380,92.12a.52.52,0,0,1,.3-.54l.17-.08a.5.5,0,0,1,.7.55L380.79,94a.52.52,0,0,0,.22.51l3.29,2.22L381.7,96a.5.5,0,0,0-.61.36l-.93,3.47a.43.43,0,0,0,0,.25l.62,2.59a.48.48,0,0,0,.38.37l1.56.35,1.08,2.59-2.74,2.59L378.34,115a.62.62,0,0,0,0,.38l.3,1.39a.62.62,0,0,1-.91.67l-.26-.14a.62.62,0,0,0-.93.57l.1,1.86a.63.63,0,0,0,.13.35l1.33,1.68a.62.62,0,0,0,1.09-.55l-.1-.36a.63.63,0,0,1,.44-.76l1.44-.39a.64.64,0,0,1,.5.09l4.75,3.13a.62.62,0,0,0,1-.5l.08-1.6a.64.64,0,0,0-.25-.53l-1.1-.8a.63.63,0,0,1,.23-1.11h0a.63.63,0,0,1,.45.06l4.34,2.48a.59.59,0,0,0,.41.07l3.14-.47v-.84a.39.39,0,0,1,.41-.4l2.14,0a.72.72,0,0,0,.7-.5l.52-1.54a.75.75,0,0,1,.72-.49l2.38.09a.73.73,0,0,1,.14,1.44h0a.38.38,0,0,0-.28.24l-3.12,8.06a.81.81,0,0,0,.07.74l3.49,5.67a.82.82,0,0,0,1.1.3l.14-.07a.84.84,0,0,1,1.23.74h0a.83.83,0,0,0,1.46.55l.9-1a.81.81,0,0,1,.73-.27l2.93.39-1.17,3.63,1,.61-2.77,2a1,1,0,0,0-.39,1.05l.77,3a1,1,0,0,1-.1.74l-1.26,2.18a1,1,0,0,0,.11,1.15l1.55,1.8.13.12,2.09,1.67a1,1,0,0,0,.54.21l1.72.15-1.13.74a1,1,0,0,1-.49.16l-1.44.09a1,1,0,0,1-.84-.38l-1.17-1.48a1,1,0,0,0-1.11-.32h0a1,1,0,0,0-.51,1.48l.7,1.09a1,1,0,0,0,.34.32l1.44.83-2.33-.43a1,1,0,0,1-.49-.25l-1.59-1.48a.66.66,0,0,0-.62-.15l-4.91,1.41a.88.88,0,0,1-.28,0l-2.13-.31a.74.74,0,0,0-.36,0l-5.22,2.3a.63.63,0,0,0-.26.2l-2.69,3.44a.63.63,0,0,1-.19.17l-3.81,2.16a.68.68,0,0,0-.2.18l-.65.86a.65.65,0,0,0,.61,1l.84-.12a.53.53,0,0,1,.28,0l.5.15a.66.66,0,0,0,.82-.45l.1-.36a.67.67,0,0,1,.47-.45l4.32-1.07a.66.66,0,0,1,.8.75l-.26,1.42a.67.67,0,0,0,.19.59l1.14,1.09a.65.65,0,0,1-.09,1l-.93.6a.67.67,0,0,0-.2.89l.76,1.25a.68.68,0,0,0,.43.31l.19,0a.66.66,0,0,1,.43,1L389.52,176l-2.68.86-2.67,1.78-1.33.09-3.34,1.85a.6.6,0,0,1-.29.08H377a.52.52,0,0,0-.3.08l-2.43,1.46a.59.59,0,0,0,.22,1.09l1.09.16a.58.58,0,0,1,.5.53l.11,1.17a.59.59,0,0,1-.36.6h0a.59.59,0,0,0,.14,1.13l2,.32-.36.32a.59.59,0,0,0,.14,1l.61.29a.65.65,0,0,0,.39,0l2-.5.15-.06,2.54-1.39.11,0,3.7-1.15a.59.59,0,0,1,.75.44l.19.85a.58.58,0,0,0,.44.44l.62.14a.59.59,0,0,1,0,1.15h0a.62.62,0,0,0-.44.46l-.08.43a.59.59,0,0,0,.57.7l4,.1V190a.59.59,0,0,1,.46-.58l1.62-.38a.6.6,0,0,1,.57.17l2.15,2.28,2.21,2.29,5.06,0a.69.69,0,0,0,.57-.31l.82-1.3a1.24,1.24,0,0,1,.61-.5l2.17-.86.07,0,3.29-1.07a.72.72,0,0,0,.29-.2l1.12-1.48a.58.58,0,0,1,.23-.18l2.82-1.22-4,4.2a.76.76,0,0,1-.09.09l-3.76,3.24a.67.67,0,0,0-.23.49l-.13,3.15a.67.67,0,0,1-.71.65l-1.93-.09-.24,0-1.8.6a.65.65,0,0,1-.51,0l-2.13-1a.67.67,0,0,0-.24-.07l-7-.67-5,1.18.08,2.32-1.91,1.66a.57.57,0,0,1-.37.14l-2,0a.6.6,0,0,0-.58.54l-.41,4.41a.63.63,0,0,1-.21.4l-2.7,2.26a.43.43,0,0,0-.14.16l-.57,1a.57.57,0,0,1-.43.29l-2.58.38a.63.63,0,0,0-.49.44l-.58,2.16a.6.6,0,0,1-.58.44h-.58a.58.58,0,0,0-.54.34l-.52,1.13a.58.58,0,0,1-.21.25L370.81,219a.61.61,0,0,1-.51.07l-1.28-.42a.56.56,0,0,0-.5.07l-2.24,1.45a.6.6,0,0,0-.27.5v1.41a.6.6,0,0,0,.56.59l1.85.1a.59.59,0,0,0,.62-.57l0-.75a.59.59,0,0,1,.73-.55l2.76.66a.6.6,0,0,1,.36.26l1,1.62a.6.6,0,0,0,.89.14l.89-.76a.6.6,0,0,0,.1-.78l-.28-.43a.59.59,0,0,1,0-.71l.94-1.1a.59.59,0,0,1,.89,0h0a.6.6,0,0,0,.83.06l1.43-1.24a.55.55,0,0,1,.37-.14l.79,0a.59.59,0,0,0,.52-.35l.64-1.43a.59.59,0,0,1,.68-.33l2.47.6a.59.59,0,0,0,.37,0l2.1-.87a.69.69,0,0,1,.32,0l1.6.24a.58.58,0,0,0,.36-.06l.82-.42a.59.59,0,0,1,.73.15l.91,1.11a.62.62,0,0,0,.5.21l1.18-.08a.59.59,0,0,1,.4.12l1.95,1.48a.55.55,0,0,0,.39.12l1.68-.07a.6.6,0,0,0,.54-.78l-.11-.33a.61.61,0,0,1,.34-.73l1.36-.56a.59.59,0,0,0,.33-.33l.43-1.11a.57.57,0,0,0,0-.34l-.47-2.1a.61.61,0,0,1,.19-.57l1.32-1.18a1.25,1.25,0,0,1,.68-.31l.54-.07a1.28,1.28,0,0,0,.9-.57l.05-.08a1.27,1.27,0,0,1,.8-.56l5.3-1.15a1.16,1.16,0,0,1,.37,0l2.81.22a.67.67,0,0,1,.31.1l3.2,2a.69.69,0,0,0,.56.08l1-.31a.46.46,0,0,1,.23,0l3.71.1.21,0,1.4.5a.67.67,0,0,0,.85-.36l.67-1.49a.66.66,0,0,1,.33-.33l3.22-1.49a.7.7,0,0,1,.45,0l2,.5a.7.7,0,0,0,.51-.08l3-1.83a.67.67,0,0,1,.48-.09l2.06.4a1.19,1.19,0,0,0,.42,0l.73-.09a1.32,1.32,0,0,0,.58-.22l.78-.53a.67.67,0,0,1,1,.32l.06.15a.7.7,0,0,0,.32.36l1.59.83a.65.65,0,0,0,.67,0l1.77-1.1a1.51,1.51,0,0,1,.75-.21l4.93-.09a.82.82,0,0,0,.22,0l3.22-.55a.78.78,0,0,1,.34,0l3.14.87.07,0,1.27.23a.76.76,0,0,0,.6-.14l2.09-1.54a1,1,0,0,1,.33-.14l2.35-.41a.8.8,0,0,0,.36-.17l2.1-1.75a.83.83,0,0,1,.45-.19l1.31-.08a.74.74,0,0,1,.21,0l.43.09a.79.79,0,0,0,.92-1h0a.78.78,0,0,1,.35-.85l3.43-2.1.05,0,2.28-.43a.14.14,0,0,0,.11-.11l.16-2.12a.13.13,0,0,0,0-.06l-.62-1.5a.17.17,0,0,1,0-.1l.66-1.61a.13.13,0,0,0-.12-.18l-4.2.15h0l-3.12,1h0l-1.78.29h-.06l-2.94-1h0l-1-.23,1-.83a.09.09,0,0,1,.07,0l.9-.08.24-.54-2.62-.61h-.07l-2.28.73,3.19-2,.08,0,2,.2h.07l1.94-.85a.74.74,0,0,0,.39-.94l-.37-1a.62.62,0,0,0-.57-.39h0a.74.74,0,0,1-.46-1.31l.24-.18,0,0,.93-.84a.72.72,0,0,1,.94,0l.63.49a.74.74,0,0,0,.85,0l1.83-1.18a.9.9,0,0,0,.2-.19l.88-1.23-1.18-.2,0-.06a.74.74,0,0,0-.54-1.16l-.46,0a.61.61,0,0,1-.46-.93l.31-.48a.62.62,0,0,1,.65-.26l1,.24a.59.59,0,0,1,.42.35h0a.61.61,0,0,0,1,.16l1.25-1.47a.74.74,0,0,1,.25-.17l1.4-.54a.61.61,0,0,0,.39-.52l.29-4a.65.65,0,0,1,.05-.2l1.58-3.69a.6.6,0,0,0-.1-.63l-1.06-1.23A.57.57,0,0,1,479,166Zm-97.12-32.6-.8,2.41a.84.84,0,0,0,.91,1.09l1.23-.18a.78.78,0,0,0,.44-.2l3.43-3.12a.82.82,0,0,0,.21-.93l-.33-.81a.81.81,0,0,1-.05-.51h0a.83.83,0,0,0-1.32-.84l-3.44,2.7A.83.83,0,0,0,381.86,133.4Zm6.88,21.76L390.4,154a.65.65,0,0,0-.44-1.18h0a.66.66,0,0,1-.64-.35l-.93-1.74a.66.66,0,0,0-.65-.35l-2.63.3a.64.64,0,0,0-.54.42c-.15.42-.4,1.1-.56,1.59a.65.65,0,0,0,.34.8l3.74,1.73A.66.66,0,0,0,388.74,155.16ZM435.47,207,433.22,208a.68.68,0,0,0,.16,1.28h0a.85.85,0,0,1,.24.09l2,1.26a.68.68,0,0,0,.46.1l1.41-.21a.68.68,0,0,0,.58-.67v-.28a.62.62,0,0,1,.11-.37l.2-.3a.68.68,0,0,0-.64-1.05h0a.65.65,0,0,1-.45-.11l-1.14-.75A.67.67,0,0,0,435.47,207ZM354,53.76l-1,.48a.57.57,0,0,0-.26.25l-.45.94a.56.56,0,0,1-.24.24l-1,.49,1.71,1.24a.54.54,0,0,0,.65,0l2.67-2.1a.55.55,0,0,0-.14-.93l-1.52-.6A.51.51,0,0,0,354,53.76Zm23.92,45-.52-.46a.5.5,0,0,0-.84.32l-.08.77a.51.51,0,0,0,.2.45l.67.51a.5.5,0,0,0,.81-.45l-.08-.82A.58.58,0,0,0,377.87,98.76ZM350.23,60.59l.09-.78a.54.54,0,0,0-.49-.59l-3.46-.31a.58.58,0,0,0-.29.05l-.46.23a.53.53,0,0,0-.11.88L347,61.44a.56.56,0,0,0,.48.13l2.3-.52A.53.53,0,0,0,350.23,60.59Zm1.49-8.35.81.63A.57.57,0,0,0,353,53l2.54-.4a.5.5,0,0,1,.21,0l2.47.6a.55.55,0,0,0,.56-.2l1.55-2a.54.54,0,0,0-.13-.78l-.18-.12a.52.52,0,0,1-.19-.66l.73-1.67a.56.56,0,0,1,.14-.2l2.55-2.19a.54.54,0,0,0,.19-.48L363,42.11a.54.54,0,0,0-.83-.38l-6.45,4.12a.54.54,0,0,0-.21.64l.27.73a.54.54,0,0,1-.71.69l-2-.82a.54.54,0,0,0-.61.13l-1.3,1.45a.54.54,0,0,0,0,.75l.95.89a.54.54,0,0,1-.06.84l-.33.22A.54.54,0,0,0,351.72,52.24ZM352.34,85l.81-.57a.51.51,0,0,0-.26-.92l-.74,0a.51.51,0,0,0-.53.45l-.08.61A.51.51,0,0,0,352.34,85Zm-7.4-12.49-.61.72a.5.5,0,0,0-.12.28l0,.39a.53.53,0,0,0,.79.54l.91-.5a.53.53,0,0,0,.24-.67l-.25-.62A.54.54,0,0,0,344.94,72.54Zm1.51-9.3v.08a.54.54,0,0,0,.35.51l1.24.44a.53.53,0,0,0,.68-.3l.31-.73a.54.54,0,0,0-.57-.75l-1.55.22A.53.53,0,0,0,346.45,63.24ZM347.9,65l-.67-.11a.54.54,0,0,0-.62.58l.08.92a.52.52,0,0,1-.05.28l-.75,1.55a.56.56,0,0,0,0,.4l.49,1.55a.54.54,0,0,0,.41.36l.79.16a.54.54,0,0,0,.63-.66l-.38-1.51a.54.54,0,0,1,.07-.41l.64-1.06a.55.55,0,0,0,.06-.38l-.23-1.24A.56.56,0,0,0,347.9,65Z"/><path class="cls-2" d="M141.89,63.18A57.07,57.07,0,0,0,121,39.72q-16.2-10.29-47.07-10.29H26.58L0,223.76H34.65L44,168.49H69.56q44.94,0,65.82-28.29Q149.45,121.14,149.45,96A74.28,74.28,0,0,0,141.89,63.18Z"/><text class="cls-3" transform="translate(124.67 220.48)"><tspan class="cls-4">a</tspan><tspan x="97.65" y="0">n</tspan><tspan class="cls-4" x="197.25" y="0">-</tspan></text><ellipse class="cls-5" cx="79.81" cy="98.33" rx="48.19" ry="49.61"/><text class="cls-6" transform="translate(25.5 130.13)">UK</text><text class="cls-7" transform="translate(128.75 130.13) scale(0.5 1)"><tspan xml:space="preserve">  </tspan></text><text class="cls-8" transform="translate(147.53 130.13)">Biobank</text></svg>