<?xml version="1.0" encoding="utf-8"?>
<!-- Generator: Adobe Illustrator 24.1.3, SVG Export Plug-In . SVG Version: 6.00 Build 0)  -->
<svg version="1.1" id="Layer_1" xmlns="http://www.w3.org/2000/svg" xmlns:xlink="http://www.w3.org/1999/xlink" x="0px" y="0px"
	 viewBox="0 0 318.8 214.9" style="enable-background:new 0 0 318.8 214.9;" xml:space="preserve">
<style type="text/css">
	.st0{fill:#CCCCCC;}
	.st1{fill:#036070;}
	.st2{fill:#222222;}
</style>
<path class="st0" d="M215.9,65.4l-1-0.1c-0.3,0-0.6,0.2-0.6,0.5l0,0.8L215.9,65.4z M212.1,91.3l-0.6-4.1c0-0.3-0.3-0.5-0.6-0.4
	l-4.1,0.9c-0.2,0-0.4,0.2-0.4,0.4l-0.3,2.7c0,0.4,0.3,0.7,0.7,0.5l1.5-0.6c0.4-0.2,0.8,0.2,0.7,0.6l-0.2,0.9
	c-0.1,0.4,0.3,0.8,0.7,0.6l2.3-0.9C212,91.7,212.1,91.5,212.1,91.3z M215.6,49.1l-0.9,0.2c-0.2,0.1-0.4,0.3-0.4,0.5l0,1.9
	c0,0.4-0.5,0.7-0.9,0.4l-1.5-1.3c-0.3-0.3-0.8-0.1-0.9,0.4l0,0.6c0,0.4-0.5,0.6-0.9,0.4l0,0c-0.2-0.1-0.4-0.1-0.6,0l-0.5,0.3
	c-0.3,0.2-0.3,0.6-0.1,0.8l2.2,2l0.3-1.1l0.8,0.7c0.2,0.2,0.2,0.5,0.1,0.7l-0.2,0.2c-0.1,0.2-0.1,0.4,0,0.5l1.5,3.3
	c0.1,0.2,0.3,0.3,0.5,0.3l2.8,0.1c0.5,0,0.8,0.4,0.8,0.9l-0.1,1.2c0,0.5,0.4,0.9,0.9,0.9l0.1,0c0.2,0,0.4-0.1,0.4-0.3l1.1-2.1
	c0-0.1,0.1-0.1,0.2-0.1l1.8-0.7c0.2-0.1,0.3-0.4,0.1-0.5l-0.6-0.5c-0.1,0-0.1-0.1-0.2-0.1l-1.5,0.1c-0.2,0-0.3,0-0.5-0.1l-2.6-1.7
	c-0.2-0.1-0.3-0.3-0.2-0.6l0.9-4.4c0-0.2,0-0.4-0.1-0.5l-1-2.2C216.1,49.2,215.8,49.1,215.6,49.1z M218.5,74.9l-1.6-0.4
	c-0.1,0-0.2-0.1-0.3-0.2l-2-2.7c-0.1-0.2-0.4-0.3-0.6-0.2l-2.1,1c-0.4,0.2-0.4,0.7-0.1,0.9l2.3,1.4c0.4,0.2,0.3,0.8-0.1,0.9l-1,0.3
	c-0.3,0.1-0.4,0.4-0.3,0.7l0,0c0.1,0.3,0,0.6-0.2,0.7l-0.3,0.2c-0.5,0.2-0.3,1,0.3,1l3.3-0.2c0.3,0,0.5,0.2,0.5,0.5l0,0.4l2.8-1.4
	c0.2-0.1,0.3-0.4,0.3-0.6l-0.6-1.9C218.8,75.1,218.6,75,218.5,74.9z M211.9,63l0.5,1.2c0.1,0.3,0.5,0.4,0.8,0.3l0.3-0.2
	c0.2-0.1,0.3-0.4,0.2-0.6l-0.4-1c-0.1-0.2-0.3-0.4-0.5-0.4l-0.5,0C212,62.3,211.7,62.6,211.9,63z M215.6,87.7l1.8-2.7
	c0.3-0.5-0.2-1-0.7-0.7l-4,2.5c-0.2,0.1-0.3,0.3-0.2,0.6L213,89c0.1,0.4,0.6,0.5,0.8,0.2L215.6,87.7
	C215.5,87.7,215.5,87.7,215.6,87.7z M206.7,71.7l1.2-0.3c0.6-0.2,1.1-0.6,1.4-1.2l0.6-1.3L206.7,71.7z M211.6,82.1l-1.4,2.8l1.4-1
	c0.2-0.1,0.2-0.3,0.2-0.5L211.6,82.1z M286,17.5c-0.2-0.2-0.6-0.2-0.8,0l-1.4,1.8l2-1C286.2,18.1,286.2,17.7,286,17.5L286,17.5z
	 M289.8,5.5l0.4-2.9c0-0.2,0-0.3-0.2-0.5l-0.2-0.2c-0.3-0.3-0.7-0.1-0.9,0.2L288.7,3c0,0.1-0.1,0.2-0.1,0.2l-1.1,1.2
	c-0.2,0.2-0.2,0.5,0,0.7l0.9,1.1c0.2,0.2,0.5,0.3,0.7,0.1l0.6-0.5C289.7,5.7,289.8,5.6,289.8,5.5z M292.5,0.1l-0.3,0.2
	c-0.2,0.1-0.3,0.4-0.2,0.6l0.1,0.2c0.2,0.4,0.7,0.4,0.9,0l0.2-0.3C293.5,0.3,292.9-0.2,292.5,0.1z M259,30.2l-0.6-1.1
	c-0.1-0.2-0.3-0.3-0.4-0.2l-0.5,0c-0.3,0-0.5,0.4-0.4,0.7l0.8,1.5c0.2,0.3,0.6,0.3,0.8,0.1l0.3-0.4C259.1,30.5,259.1,30.3,259,30.2z
	 M259.2,26.1l-0.1,1.7c0,0.3,0.2,0.5,0.5,0.5l2.5,0.1c0.1,0,0.2,0,0.3,0.1l0.8,0.6c0.3,0.2,0.7,0.1,0.7-0.3l0.2-1
	c0-0.3-0.2-0.5-0.4-0.5l-3.1-0.2l1-0.8c0.2-0.2,0.2-0.5,0.1-0.7l-1.3-1.5c-0.1-0.1-0.2-0.2-0.3-0.2l-1.8-0.1c-0.2,0-0.5,0.2-0.5,0.4
	l-0.3,2.1c0,0.1,0,0.2,0.1,0.3l0.3,0.5c0.2,0.3,0.6,0.3,0.8,0L259.2,26.1z M284.8,4.6l-1.3,0.1c-0.2,0-0.3,0.1-0.4,0.3l-0.5,1.1
	c-0.1,0.2,0,0.5,0.2,0.7c0.4,0.3,0.9,0.6,1.3,0.9c0.3,0.2,0.7,0,0.8-0.3l0.5-2.1C285.4,4.9,285.1,4.6,284.8,4.6z M262.2,23.2
	L262.2,23.2c-0.4,0-0.6,0.4-0.4,0.7l0,0c0.2,0.3,0.7,0.2,0.8-0.1l0,0C262.7,23.5,262.5,23.2,262.2,23.2z M214.1,120.5l-0.8-0.2
	c-0.5-0.1-0.7-0.7-0.4-1.1l0.6-1.1c0.1-0.2,0.1-0.4,0.1-0.6l-0.2-0.6c-0.2-0.5,0.2-1,0.7-1l0.2,0c0.3,0,0.6,0.2,0.7,0.6l0.2,1.1
	c0.1,0.5,0.8,0.4,0.8-0.1l0-2.3c0-0.4-0.3-0.6-0.6-0.7l-1.7-0.3c-0.7-0.1-0.8-1.1-0.2-1.4l0,0c0.4-0.2,0.5-0.7,0.3-1l-3.5-6.1
	c-0.1-0.1-0.1-0.2-0.1-0.4l0-2.2c0-0.3-0.1-0.5-0.3-0.6l-1.9-1.2c-0.1,0-0.2-0.1-0.2-0.1l-4.6-1.1c-0.1,0-0.3,0-0.4,0l-3.1,1.3
	c-0.1,0-0.2,0.1-0.3,0.1l-1.5,0c-0.2,0-0.3,0-0.5,0.2l-0.8,0.6c-0.1,0.1-0.3,0.1-0.4,0.1l-2.8,0.1c-0.1,0-0.3,0.1-0.4,0.1l-1.5,1.1
	c-0.1,0-0.1,0.1-0.2,0.1l-2,0.7c-0.2,0.1-0.3,0.2-0.4,0.3l-1,1.8c-0.1,0.2-0.4,0.4-0.7,0.4l-2.6,0c-0.2,0-0.5,0.1-0.6,0.3l-4,5.5
	c-0.2,0.3-0.2,0.7,0.1,0.9l5.6,6.1c0.1,0.2,0.4,0.3,0.6,0.2l1.6-0.1c0.3,0,0.5-0.2,0.7-0.5l1.3-3.3c0.1-0.2,0.2-0.3,0.4-0.4l1.5-0.8
	c0.2-0.1,0.5-0.1,0.7,0l4,2.5c0.1,0.1,0.2,0.2,0.3,0.4l2.2,5.5c0.1,0.2,0.3,0.4,0.5,0.4l1.9,0.6c0.1,0,0.2,0.1,0.3,0.1l3,2.5
	c0.1,0.1,0.2,0.1,0.3,0.1l0.5,0.1l0-1.2c0-0.5,0.5-0.8,1-0.7l0.2,0.1c0.2,0.1,0.4,0.1,0.6,0l2.2-1.2c0.2-0.1,0.3-0.3,0.4-0.4
	l0.3-1.1c0.1-0.4,0.5-0.6,0.9-0.5l2.5,0.7c0.4,0.1,0.8-0.1,0.9-0.5l0.4-1.1C214.7,121.1,214.5,120.6,214.1,120.5z M302.8,194
	C302.7,194,302.7,194,302.8,194l-1.2,0.4l1.8,1.2c0,0,0.1,0,0.1,0l1.5-0.2c0.1,0,0.1-0.1,0.1-0.2l-0.7-0.9c0,0,0,0-0.1,0L302.8,194z
	 M220.8,94.5l0.2,4.1l3,1.7l1.2-2.7c0.1-0.1,0.1-0.3,0-0.4l-1.4-3.8c-0.1-0.3-0.4-0.4-0.7-0.3l-2.1,1
	C220.9,94.1,220.8,94.3,220.8,94.5z M317.8,170.9l-0.2-3.4c0-0.2-0.1-0.3-0.2-0.4l-4.8-4.4c-0.1-0.1-0.2-0.1-0.3-0.2l-7.5-1.4
	c0,0,0,0,0,0l-4.3-0.5c-0.3,0-0.6,0.2-0.6,0.4l-0.7,2.6c0,0.1-0.1,0.2-0.1,0.2l-1,1.1c-0.2,0.3-0.7,0.3-0.9,0l-1.7-2.2
	c-0.1-0.1-0.2-0.2-0.3-0.2l-1.7-0.6c-0.5-0.2-0.5-0.8-0.1-1l4.2-2.9c0.1-0.1,0.2-0.2,0.3-0.4l0.3-2.2c0-0.1,0-0.2-0.1-0.3l-2.4-4.9
	c-0.3-0.7-0.9-1.2-1.6-1.4l0,0c-0.2-0.1-0.4-0.2-0.6-0.3l-2.4-1.7c-0.3-0.2-0.5-0.5-0.7-0.8l-0.3-0.6c-0.4-0.8-1.2-1.2-2-1.2l-0.3,0
	c-0.1,0-0.1,0-0.2,0l-0.6,0.1c-0.4,0-0.8,0-1.1-0.2l-1.2-0.5c-0.2-0.1-0.4-0.1-0.6-0.2l-0.9-0.1l1.8-0.2c0.3,0,0.7,0,1,0.1l0.6,0.2
	c0.3,0.1,0.6,0.2,0.9,0.1l1.4-0.1c0.4,0,0.8,0.1,1.1,0.3l0.6,0.3c0.2,0.1,0.5,0.3,0.6,0.5l0.2,0.2c0.4,0.5,1.1,0.8,1.7,0.8l0.3,0
	c0.3,0,0.5,0,0.8,0.1l1.2,0.4l-3.8-5.6l-0.9-1.4c-0.5-0.8-0.4-1.9,0.2-2.6l0,0c0.3-0.3,0.7-0.6,1.2-0.7l0.6-0.1l-1.6-1.1
	c-0.3-0.2-0.6-0.5-0.7-0.9l-0.4-0.9c-0.1-0.1-0.2-0.3-0.4-0.3l-0.5-0.1c-0.2,0-0.3-0.2-0.4-0.3l-1.7-4c-0.1-0.3-0.3-0.5-0.6-0.7
	l-3.1-2c-0.1-0.1-0.2-0.1-0.4-0.2l-4.2-1.4c-0.7-0.2-1.1-0.9-1.1-1.5l0,0c0-0.5-0.2-1-0.6-1.3l0,0c-0.3-0.2-0.5-0.6-0.6-1l-0.9-4.8
	c0-0.2-0.1-0.3-0.2-0.5l-1.3-2.8c-0.1-0.2-0.2-0.5-0.2-0.7l-0.4-6.7c0-0.1,0-0.1,0-0.2l-1.2-2.3c-0.1-0.1-0.2-0.2-0.3-0.2l-1.1-0.1
	c-0.1,0-0.2-0.1-0.3-0.2l-3.7-6.6c0-0.1-0.1-0.1-0.2-0.2l-2.2-0.8c-0.2-0.1-0.5-0.2-0.6-0.4l-1.5-1.5c-0.1-0.1-0.2-0.2-0.3-0.2
	l-2.5-1.3c-0.4-0.2-0.9-0.2-1.3,0l-0.8,0.5c-0.1,0-0.1,0.1-0.2,0.1l-2.2,1c-0.5,0.2-1,0.2-1.4,0l-2.8-1.2c-0.2-0.1-0.5-0.2-0.7-0.2
	l-1.1,0c-0.2,0-0.5,0-0.7-0.1l-2.2-1c-0.3-0.1-0.6-0.4-0.7-0.8l-0.5-1.2l1.6,1c0.1,0.1,0.3,0.2,0.5,0.2l3.3,0.7c0.2,0,0.3,0,0.5,0
	l2.4-0.4c0.4-0.1,0.8-0.3,1-0.6l0.5-0.8c0.3-0.5,0.8-0.7,1.4-0.6l1.9,0.3c0.3,0,0.6,0,0.8-0.1l0.6-0.3c1-0.5,1-1.8,0.1-2.4l0,0
	c-0.4-0.2-0.7-0.7-0.7-1.2l0-0.2c0-0.4-0.2-0.8-0.4-1l-0.1-0.1c-0.4-0.3-0.9-0.4-1.3-0.3l-2.7,0.8c-0.6,0.2-1.2,0-1.5-0.5l0,0l3-1.5
	c0.3-0.1,0.6-0.2,0.8-0.1l2.8,0.5c0.3,0.1,0.7,0,0.9-0.2l1.6-0.9c0.3-0.2,0.5-0.4,0.6-0.7l0.2-0.5c0.1-0.3,0.4-0.6,0.7-0.8l0.8-0.4
	c0.2-0.1,0.4-0.2,0.5-0.4l2.5-3.2c0,0,0.1-0.1,0.1-0.1l1.2-1.2c0.3-0.3,0.4-0.6,0.4-1l0-0.2c0-0.3,0.1-0.6,0.3-0.9l1.3-1.6
	c0.2-0.3,0.2-0.6,0.1-0.9l0-0.1c-0.1-0.3-0.1-0.5,0-0.8l1.6-2.8c0.1-0.1,0.2-0.3,0.3-0.3l2.3-1.4c0.2-0.1,0.4-0.4,0.4-0.6l0.2-1.5
	c0-0.3,0-0.5-0.2-0.7l-2.7-2.9c-0.3-0.3-0.7-0.4-1.1-0.2l0,0c-0.2,0.1-0.4,0.1-0.5,0.1l-6.3-0.7c-0.1,0-0.3,0-0.4-0.1l-3.1-0.9
	c-0.5-0.2-1-0.1-1.5,0.1l0,0c-0.4,0.2-0.8,0.2-1.2,0.2l-1.1-0.1c-0.2,0-0.4-0.1-0.6-0.2l-1.8-0.9c-0.2-0.1-0.4-0.2-0.7-0.2l-1-0.1
	c-0.3,0-0.5,0.1-0.6,0.4l0,0.1c-0.1,0.2-0.3,0.3-0.5,0.4l-2.1,0.3c-0.1,0-0.2,0-0.3,0.1l-2.5,0.8c-0.2,0.1-0.4,0.1-0.6,0l-0.4-0.1
	c-0.3,0-0.5,0-0.8,0.1l-1.7,0.9l-0.5-0.6l2.8-2.1c0.1-0.1,0.2-0.1,0.2-0.2l2.9-3.3l-1.3,0.4c-0.5,0.2-1,0.1-1.5-0.1l-0.3-0.2
	c-0.5-0.2-0.4-0.9,0.1-1.1l0,0c0.2-0.1,0.3-0.2,0.3-0.3l0.5-1.3c0.1-0.1,0.2-0.2,0.3-0.3l6.8-3.4c0.1,0,0.1-0.1,0.2-0.1l2.1-2.4
	c0.1-0.1,0.2-0.2,0.4-0.2l1.8-0.3c0.2,0,0.3-0.1,0.4-0.3l1-1.9c0.1-0.2,0.1-0.5-0.1-0.7l-0.4-0.5c-0.2-0.2-0.2-0.6,0-0.8l1-1.1
	c0.1-0.1,0.2-0.3,0.2-0.4l0,0c0-0.5-0.4-1-0.9-1.1l-1.9-0.3c-0.3,0-0.6,0-0.8,0.2l-0.9,0.6c-0.2,0.1-0.4,0.2-0.6,0.1l-1.4-0.6
	c-0.2-0.1-0.5-0.1-0.7-0.1l-3,0.7l-3-0.6l-2.5,0.6l-1.4-0.2l-1.6,1.1l0.5-1.3l-1.3-0.7l-3,1.8l1-1.8l-3.6-2l-0.7,1.6
	c-0.1,0.2-0.3,0.4-0.5,0.6l-0.4,0.2c-0.4,0.2-0.6,0.6-0.6,1.1l0.1,1.2l-0.8-0.1l-0.1,1.4c-0.1,0.6-0.5,1-1.1,1.1l0,0
	c-0.8,0-1.3,0.9-1,1.7l0,0c0.2,0.4,0.1,0.8-0.1,1.2l-0.6,0.8c-0.2,0.3-0.6,0.5-1,0.5l-0.7-0.1L231,46c0.1,0.1,0.2,0.2,0.2,0.3
	l0.8,1.8l-2.5-1.6c-0.4-0.2-0.9-0.2-1.2,0l0,0c-0.4,0.3-1,0.2-1.3-0.1l-1.5-1.3l-0.3,1c0,0.1,0,0.1,0,0.2l0.4,1.2
	c0,0.1,0,0.2-0.1,0.3l-0.5,0.5c-0.2,0.2-0.4,0.1-0.5-0.1l-0.5-1.5c-0.1-0.2-0.4-0.3-0.5-0.1l-1.1,1.6c-0.1,0.1-0.1,0.2,0,0.3
	l0.8,1.1c0.1,0.1,0.1,0.3,0,0.4l-0.8,0.7c-0.1,0.1-0.1,0.3,0,0.4l1.4,2c0,0.1,0.1,0.1,0.2,0.1l1.8,0.3l-2.2,0.4c-0.1,0-0.2,0-0.2,0
	l-1.5-1.1c-0.2-0.1-0.5,0-0.5,0.3l0.1,2.7c0,0,0,0,0,0.1l-0.1,0.7c0,0.2,0.1,0.4,0.3,0.4l3.9,0l-2.8,0.8c-0.1,0-0.1,0.1-0.2,0.1
	l-0.3,0.5l0.7,0.6c0.1,0.1,0.2,0.1,0.2,0.1l2.6-0.5l-0.7,0.6l0.9,1.4l-1.7-0.9c-0.1,0-0.2,0-0.2,0l-0.6,0.2c-0.1,0-0.1,0.1-0.2,0.1
	l-0.6,1.2c-0.1,0.1,0,0.3,0.1,0.4l0.8,0.7l-1.5,0c-0.1,0-0.2,0-0.2,0.1l-0.8,0.9c-0.1,0.1-0.1,0.4,0.1,0.5l1.2,0.6
	c0.1,0,0.2,0.1,0.2,0.2l0.2,1.2l-2.6-1.3c-0.2-0.1-0.3,0-0.4,0.1l-0.4,0.9c-0.2,0.3-0.1,0.7,0.2,1l0,0c0.3,0.3,0.4,0.8,0.1,1.1
	l-0.3,0.4c-0.1,0.1-0.2,0.2-0.3,0.2l-1.1,0.6c-0.1,0.1-0.3,0.1-0.5,0.1l-2.5-0.3c-0.1,0-0.3,0-0.4,0.1l-0.7,0.5
	c-0.3,0.2-0.3,0.6,0,0.8l0.4,0.3c0.1,0.1,0.2,0.1,0.3,0.1l2.3,0.2c0.1,0,0.1,0,0.2,0l1.5,0.7l-0.3,0.4c-0.1,0.1-0.3,0.2-0.4,0.2
	l-0.3,0c-0.5-0.1-0.8,0.5-0.4,0.8l1.2,1.3c0.1,0.1,0.3,0.2,0.5,0.2l0.2-0.1c0.2,0,0.4,0,0.5,0.2l0.7,0.8c0.2,0.2,0.5,0.3,0.7,0.1
	l7.3-5l-1,1.3c-0.2,0.2-0.1,0.5,0.1,0.7l0.5,0.4l-1.9,0.3c-0.1,0-0.3,0.1-0.3,0.2l-1.9,3c-0.1,0.1-0.1,0.2-0.1,0.3l0,0.6
	c0,0.1,0,0.3-0.1,0.3L221,80c-0.2,0.2-0.1,0.6,0.1,0.7l0,0c0.2,0.2,0.3,0.4,0.1,0.7l-2.1,3.6c0,0.1-0.1,0.2-0.1,0.3l0.1,2.5
	c0,0.1-0.1,0.3-0.2,0.4l-1.1,1c-0.2,0.2-0.2,0.4-0.1,0.6l0.4,0.9c0.1,0.2,0.4,0.3,0.6,0.3l0.8-0.3l-2.5,2.7
	c-0.1,0.1-0.1,0.1-0.1,0.2l-0.9,4.1l-1.8,1.2l0,0.4c0,0.4,0.3,0.6,0.6,0.7l2,0.3c0.5,0.1,0.9-0.3,0.8-0.8l-0.1-1.4l1.9-2.9
	c0-0.1,0.1-0.2,0.1-0.2l0.1-1.6c0-0.1,0.1-0.3,0.2-0.4l1.8-1.5c0.1-0.1,0.2-0.3,0.2-0.4l-0.6-4.6c0-0.3,0.2-0.6,0.6-0.6l0.5,0
	c0.1,0,0.3,0,0.4-0.1l4.7-3.8l-3.7,3.8c-0.1,0.1-0.1,0.1-0.1,0.2l-0.7,2.6c0,0.2,0,0.4,0.2,0.5l0.3,0.2c0.3,0.2,0.7,0.1,0.8-0.2
	l0.3-0.9c0-0.1,0.1-0.2,0.2-0.3l1.5-0.8c0.3-0.2,0.7,0,0.7,0.4l0.2,1.1c0.1,0.4,0.7,0.6,0.9,0.2l1.4-2.1c0.1-0.1,0.1-0.2,0.1-0.3
	l-0.1-1.9c0-0.2,0.1-0.4,0.4-0.5l0.2-0.1c0.4-0.1,0.7,0.3,0.6,0.6l-0.6,1.9c-0.1,0.2,0,0.4,0.1,0.5l3,2.6l-2.5-1
	c-0.3-0.1-0.5,0-0.7,0.3l-1.4,3.3c0,0.1,0,0.2,0,0.2l0.3,2.6c0,0.2,0.1,0.4,0.3,0.4l1.5,0.6l0.7,2.7l-3.1,2.2l-3.5,6
	c-0.1,0.1-0.1,0.2-0.1,0.4l0.1,1.4c0,0.5-0.6,0.9-1,0.5l-0.2-0.2c-0.4-0.3-1,0-1,0.4l-0.1,1.9c0,0.1,0,0.3,0.1,0.4l1.1,1.8
	c0.3,0.6,1.2,0.3,1.2-0.4l0-0.4c0-0.3,0.2-0.7,0.5-0.7l1.5-0.2c0.2,0,0.4,0,0.5,0.1l4.3,3.7c0.4,0.3,0.9,0.1,1-0.4l0.3-1.6
	c0-0.2,0-0.4-0.2-0.6l-1-0.9c-0.4-0.4-0.2-1,0.4-1.1l0,0c0.2,0,0.3,0,0.4,0.1l4,3c0.1,0.1,0.2,0.1,0.4,0.1l3.2,0l0.1-0.8
	c0-0.2,0.2-0.4,0.5-0.3l2.1,0.3c0.3,0,0.6-0.1,0.8-0.4l0.7-1.5c0.1-0.3,0.5-0.4,0.8-0.4l2.3,0.4c0.8,0.1,0.8,1.4-0.1,1.4l0,0
	c-0.1,0-0.2,0.1-0.3,0.2l-4.2,7.6c-0.1,0.2-0.1,0.5,0,0.7l2.7,6.1c0.2,0.4,0.6,0.6,1.1,0.4l0.1-0.1c0.6-0.2,1.2,0.3,1.1,0.9l0,0
	c-0.1,0.8,0.8,1.2,1.4,0.7l1-0.9c0.2-0.2,0.5-0.2,0.8-0.2l2.8,0.8l-1.6,3.4l0.9,0.7l-3,1.6c-0.4,0.2-0.6,0.6-0.5,1l0.4,3.1
	c0,0.3,0,0.5-0.2,0.7l-1.5,2c-0.3,0.3-0.3,0.8,0,1.2l1.3,2c0,0.1,0.1,0.1,0.1,0.1l1.8,1.9c0.1,0.1,0.3,0.2,0.5,0.3l1.7,0.4l-1.2,0.6
	c-0.2,0.1-0.3,0.1-0.5,0.1l-1.4-0.1c-0.3,0-0.6-0.2-0.8-0.5l-1-1.6c-0.2-0.4-0.6-0.6-1.1-0.5l0,0c-0.6,0.1-1,0.8-0.7,1.4l0.5,1.2
	c0.1,0.1,0.2,0.3,0.3,0.4l1.3,1l-2.2-0.7c-0.2-0.1-0.3-0.2-0.5-0.3l-1.4-1.7c-0.1-0.2-0.4-0.3-0.6-0.2l-5.1,0.7c-0.1,0-0.2,0-0.3,0
	l-2.1-0.6c-0.1,0-0.2,0-0.4,0l-5.5,1.6c-0.1,0-0.2,0.1-0.3,0.2l-3.1,3.1c-0.1,0.1-0.1,0.1-0.2,0.1l-4.1,1.6c-0.1,0-0.2,0.1-0.2,0.1
	l-0.8,0.8c-0.4,0.4-0.1,1.1,0.5,1.1l0.8,0c0.1,0,0.2,0,0.3,0.1l0.5,0.2c0.3,0.1,0.7,0,0.9-0.3l0.2-0.3c0.1-0.2,0.3-0.4,0.5-0.4
	l4.4-0.5c0.5-0.1,0.8,0.4,0.7,0.8l-0.4,1.4c-0.1,0.2,0,0.4,0.1,0.6l1,1.2c0.3,0.3,0.1,0.8-0.2,1l-1,0.5c-0.3,0.2-0.5,0.5-0.3,0.9
	l0.6,1.3c0.1,0.2,0.2,0.3,0.4,0.4l0.2,0.1c0.4,0.1,0.6,0.7,0.3,1l-4,5.1l-2.8,0.5l-2.9,1.4l-1.3-0.1l-3.6,1.4c-0.1,0-0.2,0-0.3,0
	l-2.2-0.3c-0.1,0-0.2,0-0.3,0l-2.6,1.1c-0.5,0.2-0.5,1,0.1,1.1l1.1,0.3c0.3,0.1,0.4,0.3,0.4,0.6l-0.1,1.2c0,0.3-0.2,0.5-0.4,0.5l0,0
	c-0.6,0.2-0.6,1,0,1.1l2,0.6l-0.4,0.3c-0.4,0.2-0.4,0.8,0,1l0.6,0.4c0.1,0.1,0.2,0.1,0.4,0.1l2.1-0.2c0.1,0,0.1,0,0.2,0l2.7-1
	c0,0,0.1,0,0.1,0l3.8-0.6c0.3-0.1,0.7,0.2,0.7,0.5l0.1,0.9c0,0.2,0.2,0.4,0.4,0.5l0.6,0.2c0.6,0.2,0.5,1.1-0.1,1.1l0,0
	c-0.2,0-0.4,0.2-0.5,0.4l-0.1,0.4c-0.1,0.3,0.1,0.7,0.5,0.8l4,0.6l0.1-0.4c0-0.3,0.3-0.5,0.5-0.5l1.7-0.2c0.2,0,0.4,0.1,0.5,0.2
	l1.8,2.5l1.9,2.6l5,0.6c0.2,0,0.5-0.1,0.6-0.2l1-1.2c0.2-0.2,0.4-0.4,0.7-0.4l2.3-0.6c0,0,0.1,0,0.1,0l3.4-0.6
	c0.1,0,0.2-0.1,0.3-0.2l1.3-1.3c0.1-0.1,0.2-0.1,0.3-0.2l3-0.8l-4.5,3.6c0,0-0.1,0.1-0.1,0.1l-4.2,2.7c-0.2,0.1-0.3,0.3-0.3,0.4
	l-0.5,3.1c-0.1,0.4-0.4,0.6-0.8,0.5l-1.9-0.3c-0.1,0-0.2,0-0.2,0l-1.9,0.4c-0.2,0-0.4,0-0.5-0.1l-2-1.3c-0.1,0-0.1-0.1-0.2-0.1
	l-6.8-1.6l-5.1,0.5l-0.2,2.3l-2.1,1.4c-0.1,0.1-0.3,0.1-0.4,0.1l-2-0.2c-0.3,0-0.6,0.2-0.6,0.5l-1,4.3c0,0.2-0.1,0.3-0.3,0.4l-3,1.9
	c-0.1,0-0.1,0.1-0.2,0.1l-0.7,0.9c-0.1,0.1-0.3,0.2-0.5,0.2l-2.6,0c-0.2,0-0.4,0.1-0.5,0.4l-0.9,2.1c-0.1,0.2-0.4,0.4-0.6,0.4
	l-0.6-0.1c-0.2,0-0.5,0.1-0.6,0.3l-0.7,1.1c-0.1,0.1-0.1,0.2-0.2,0.2l-3.9,1.9c-0.2,0.1-0.4,0.1-0.5,0l-1.2-0.6
	c-0.2-0.1-0.4-0.1-0.5,0l-2.4,1.1c-0.2,0.1-0.3,0.3-0.3,0.5l-0.2,1.4c0,0.3,0.2,0.6,0.5,0.7l1.8,0.3c0.3,0.1,0.6-0.2,0.7-0.5
	l0.1-0.7c0.1-0.4,0.5-0.6,0.8-0.4l2.6,1c0.1,0.1,0.3,0.2,0.3,0.3l0.8,1.7c0.2,0.3,0.6,0.4,0.9,0.3l1-0.6c0.3-0.2,0.3-0.5,0.2-0.8
	l-0.2-0.5c-0.1-0.2-0.1-0.5,0.1-0.7l1.1-1c0.3-0.2,0.7-0.2,0.9,0.1l0,0c0.2,0.3,0.5,0.3,0.8,0.2l1.6-1c0.1-0.1,0.3-0.1,0.4-0.1
	l0.8,0.1c0.2,0,0.4-0.1,0.6-0.3l0.8-1.3c0.2-0.2,0.5-0.3,0.7-0.2l2.4,0.9c0.1,0,0.2,0.1,0.4,0l2.2-0.6c0.1,0,0.2,0,0.3,0l1.6,0.5
	c0.1,0,0.2,0,0.4,0l0.9-0.3c0.3-0.1,0.6,0,0.7,0.2l0.8,1.2c0.1,0.2,0.3,0.3,0.5,0.3l1.2,0.1c0.1,0,0.3,0.1,0.4,0.2l1.7,1.7
	c0.1,0.1,0.2,0.2,0.4,0.2l1.7,0.2c0.4,0,0.7-0.3,0.6-0.7l-0.1-0.3c-0.1-0.3,0.1-0.6,0.4-0.7l1.4-0.4c0.2,0,0.3-0.1,0.4-0.3l0.6-1
	c0.1-0.1,0.1-0.2,0.1-0.3l-0.2-2.1c0-0.2,0.1-0.4,0.3-0.5l1.5-1c0.2-0.1,0.5-0.2,0.7-0.2l0.5,0c0.4,0,0.7-0.2,1-0.4l0.1-0.1
	c0.2-0.3,0.5-0.4,0.9-0.4l5.4-0.4c0.1,0,0.2,0,0.4,0l2.8,0.6c0.1,0,0.2,0.1,0.3,0.1l2.9,2.4c0.2,0.1,0.4,0.2,0.5,0.1l1-0.2
	c0.1,0,0.1,0,0.2,0l3.7,0.6c0.1,0,0.1,0,0.2,0.1l1.3,0.7c0.3,0.2,0.7,0.1,0.9-0.2l0.9-1.4c0.1-0.1,0.2-0.2,0.4-0.3l3.4-1
	c0.1,0,0.3,0,0.4,0l1.9,0.8c0.2,0.1,0.4,0.1,0.5,0l3.2-1.4c0.2-0.1,0.3-0.1,0.5,0l2,0.7c0.1,0,0.3,0.1,0.4,0.1l0.7,0
	c0.2,0,0.4,0,0.6-0.1l0.8-0.4c0.4-0.2,0.9,0,1,0.5l0,0.2c0,0.2,0.1,0.3,0.3,0.4l1.5,1c0.2,0.1,0.4,0.2,0.7,0.1l1.9-0.8
	c0.2-0.1,0.5-0.1,0.8-0.1l4.9,0.6c0.1,0,0.1,0,0.2,0l3.3-0.1c0.1,0,0.2,0,0.3,0.1l3,1.3c0,0,0,0,0.1,0l1.2,0.4
	c0.2,0.1,0.4,0,0.6-0.1l2.3-1.2c0.1-0.1,0.2-0.1,0.3-0.1l2.4-0.1c0.1,0,0.3,0,0.4-0.1l2.3-1.5c0.1-0.1,0.3-0.1,0.5-0.1l1.3,0.1
	c0.1,0,0.1,0,0.2,0l0.4,0.1c0.5,0.2,1.1-0.2,1-0.8l0,0c0-0.3,0.2-0.7,0.5-0.8l3.7-1.6c0,0,0,0,0,0l2.3-0.1c0.1,0,0.1,0,0.1-0.1
	l0.4-2.1c0,0,0,0,0-0.1l-0.4-1.6c0,0,0-0.1,0-0.1l0.9-1.5c0-0.1,0-0.2-0.1-0.2l-4.2-0.4c0,0,0,0,0,0l-3.2,0.6c0,0,0,0,0,0l-1.8,0
	c0,0,0,0-0.1,0l-2.8-1.4c0,0,0,0,0,0l-1-0.4l1.1-0.7c0,0,0,0,0.1,0l0.9,0l0.3-0.5l-2.5-1c0,0,0,0-0.1,0l-2.4,0.4l3.4-1.5
	c0,0,0.1,0,0.1,0l2,0.5c0,0,0,0,0.1,0l2-0.6c0.4-0.1,0.6-0.5,0.5-0.9l-0.2-1c-0.1-0.2-0.3-0.4-0.5-0.5l0,0c-0.7-0.1-0.9-1-0.3-1.4
	l0.3-0.2c0,0,0,0,0,0l1-0.7c0.3-0.2,0.7-0.2,0.9,0.1l0.6,0.6c0.2,0.2,0.6,0.3,0.8,0.2l2-0.9c0.1,0,0.2-0.1,0.2-0.2l1-1.1l-1.1-0.4
	l0-0.1c0.4-0.4,0.2-1.1-0.4-1.2l-0.4-0.1c-0.4-0.1-0.6-0.6-0.3-1l0.4-0.4c0.2-0.2,0.4-0.3,0.7-0.2l1,0.4c0.2,0.1,0.3,0.2,0.4,0.4
	l0,0c0.1,0.4,0.7,0.6,1,0.3l1.4-1.3c0.1-0.1,0.2-0.1,0.3-0.1l1.5-0.3c0.2-0.1,0.4-0.2,0.5-0.5l0.8-3.9c0-0.1,0-0.1,0.1-0.2l2.1-3.4
	c0.1-0.2,0.1-0.4,0-0.6l-0.9-1.4C317.8,171.1,317.8,171,317.8,170.9z M225.9,125.6l-1.1,2.3c-0.3,0.6,0.1,1.2,0.8,1.2l1.2,0
	c0.2,0,0.3-0.1,0.5-0.1l3.8-2.6c0.3-0.2,0.4-0.6,0.3-0.9l-0.2-0.8c0-0.2,0-0.3,0-0.5l0,0c0.3-0.7-0.5-1.4-1.2-1l-3.8,2.2
	C226.1,125.3,226,125.4,225.9,125.6z M229.8,148l1.8-0.9c0.6-0.3,0.4-1.2-0.3-1.2l0,0c-0.3,0-0.5-0.2-0.6-0.4l-0.7-1.9
	c-0.1-0.3-0.3-0.4-0.6-0.4l-2.6-0.1c-0.2,0-0.5,0.1-0.6,0.3c-0.2,0.4-0.5,1-0.8,1.5c-0.1,0.3,0,0.7,0.2,0.8l3.5,2.2
	C229.3,148.1,229.6,148.2,229.8,148z M269.2,205.7l-2.4,0.7c-0.6,0.2-0.6,1.1,0,1.3l0,0c0.1,0,0.2,0.1,0.2,0.1l1.8,1.5
	c0.1,0.1,0.3,0.2,0.4,0.2l1.4,0c0.3,0,0.6-0.3,0.7-0.6l0-0.3c0-0.1,0.1-0.3,0.2-0.4l0.2-0.3c0.4-0.4,0.1-1.1-0.5-1.1l0,0
	c-0.2,0-0.3-0.1-0.4-0.2l-1-0.9C269.6,205.6,269.4,205.6,269.2,205.7z M208.9,42.9l-1.1,0.3c-0.1,0-0.2,0.1-0.3,0.2l-0.6,0.9
	c-0.1,0.1-0.2,0.2-0.3,0.2l-1,0.4l1.5,1.5c0.2,0.2,0.4,0.2,0.6,0.1l2.9-1.7c0.4-0.2,0.4-0.7,0-0.9l-1.4-0.8
	C209.2,42.9,209,42.9,208.9,42.9z M226.6,90.7l-0.4-0.5c-0.3-0.3-0.8-0.2-0.9,0.2l-0.2,0.8c0,0.2,0,0.4,0.1,0.5l0.6,0.6
	c0.3,0.3,0.8,0.1,0.9-0.3l0-0.8C226.7,90.9,226.7,90.8,226.6,90.7z M204.3,49.2l0.2-0.8c0.1-0.3-0.1-0.6-0.4-0.7l-3.4-0.8
	c-0.1,0-0.2,0-0.3,0l-0.5,0.2c-0.4,0.1-0.5,0.6-0.2,0.9l1.3,1.6c0.1,0.1,0.3,0.2,0.5,0.2l2.3-0.2C204.1,49.6,204.3,49.4,204.3,49.2z
	 M206.9,41.1l0.7,0.7c0.1,0.1,0.2,0.2,0.4,0.2l2.6-0.1c0.1,0,0.1,0,0.2,0l2.4,0.9c0.2,0.1,0.4,0,0.6-0.1l1.8-1.8
	c0.2-0.2,0.2-0.6,0-0.8l-0.2-0.1c-0.2-0.2-0.2-0.5-0.1-0.7l0.9-1.6c0-0.1,0.1-0.1,0.2-0.2l2.8-1.8c0.2-0.1,0.2-0.3,0.2-0.5l0-2.8
	c0-0.4-0.4-0.7-0.8-0.5l-6.9,3.2c-0.2,0.1-0.4,0.4-0.3,0.6l0.2,0.8c0.1,0.5-0.4,0.8-0.8,0.6l-1.9-1.1c-0.2-0.1-0.4-0.1-0.6,0.1
	l-1.5,1.3c-0.2,0.2-0.3,0.5-0.1,0.7l0.8,1c0.2,0.3,0.1,0.7-0.2,0.8l-0.4,0.2C206.7,40.4,206.6,40.8,206.9,41.1z M203.1,73.7l0.9-0.5
	c0.4-0.2,0.3-0.9-0.1-0.9l-0.7-0.1c-0.3-0.1-0.5,0.1-0.6,0.4l-0.2,0.6C202.3,73.5,202.7,73.9,203.1,73.7z M197.5,60.3l-0.7,0.6
	c-0.1,0.1-0.1,0.2-0.2,0.3l-0.1,0.4c-0.1,0.4,0.3,0.8,0.7,0.6l1-0.4c0.3-0.1,0.4-0.4,0.3-0.6l-0.2-0.6
	C198.2,60.2,197.8,60,197.5,60.3z M200.2,51.3L200.2,51.3c0,0.3,0.1,0.5,0.3,0.6l1.2,0.6c0.3,0.1,0.6,0,0.7-0.2l0.4-0.7
	c0.2-0.4,0-0.8-0.5-0.8l-1.6,0C200.5,50.8,200.2,51,200.2,51.3z M201.4,53.3l-0.6-0.2c-0.3-0.1-0.7,0.1-0.7,0.5l0,0.9
	c0,0.1,0,0.2-0.1,0.3l-1,1.4c-0.1,0.1-0.1,0.3-0.1,0.4l0.3,1.6c0,0.2,0.2,0.4,0.4,0.4l0.8,0.3c0.4,0.1,0.8-0.2,0.7-0.6l-0.2-1.6
	c0-0.1,0-0.3,0.1-0.4l0.8-1c0.1-0.1,0.1-0.2,0.1-0.4l-0.1-1.3C201.8,53.5,201.6,53.3,201.4,53.3z"/>
<g>
	<path class="st1" d="M20.6,114.1H5.9V57.6h23.4c6.3,0,11.2,1.6,14.6,4.9c3.4,3.3,5.1,8,5.1,14s-1.7,10.6-5.1,13.9
		c-3.4,3.3-8.2,5-14.6,5h-8.7V114.1z M20.6,83.5h4.9c5.4,0,8.1-2.3,8.1-7c0-4.7-2.7-7.1-8.1-7.1h-4.9V83.5z"/>
	<path class="st1" d="M80.6,75.6h13.6v38.5H80.6v-4.3c-2.9,3.7-6.8,5.5-11.8,5.5c-2.8,0-5.4-0.5-7.7-1.5c-2.4-1-4.4-2.5-6.1-4.3
		c-1.8-1.8-3.1-4-4.1-6.5c-1-2.5-1.5-5.2-1.5-8.2c0-2.7,0.5-5.4,1.4-7.8c0.9-2.5,2.3-4.6,4-6.5c1.7-1.8,3.7-3.3,6.1-4.4
		c2.3-1.1,5-1.6,7.8-1.6c4.8,0,8.8,1.7,11.9,5V75.6z M63.5,94.8c0,1.3,0.2,2.4,0.7,3.5c0.5,1.1,1.1,2,1.8,2.8
		c0.8,0.8,1.7,1.4,2.8,1.9c1.1,0.4,2.2,0.7,3.5,0.7c1.2,0,2.3-0.2,3.4-0.7c1.1-0.5,2-1.1,2.8-1.9c0.8-0.8,1.4-1.7,1.9-2.8
		c0.5-1,0.7-2.2,0.7-3.4c0-1.2-0.2-2.3-0.7-3.4c-0.5-1.1-1.1-2-1.9-2.8c-0.8-0.8-1.7-1.4-2.8-1.9c-1.1-0.5-2.2-0.7-3.4-0.7
		c-1.3,0-2.4,0.2-3.5,0.7c-1.1,0.4-2,1.1-2.8,1.9c-0.8,0.8-1.4,1.7-1.8,2.7C63.7,92.5,63.5,93.6,63.5,94.8z"/>
	<path class="st1" d="M99.7,75.6h13.6v4.9c1.8-2.2,3.7-3.8,5.6-4.5c1.9-0.8,4.1-1.2,6.7-1.2c2.7,0,5,0.4,6.9,1.3
		c1.9,0.9,3.6,2.1,4.9,3.7c1.1,1.3,1.8,2.8,2.2,4.4c0.4,1.6,0.6,3.4,0.6,5.5v24.5h-13.6V94.7c0-1.9-0.1-3.4-0.4-4.6
		c-0.3-1.2-0.8-2.1-1.5-2.8c-0.6-0.6-1.3-1-2-1.3c-0.8-0.2-1.6-0.4-2.4-0.4c-2.3,0-4.1,0.7-5.3,2.1c-1.2,1.4-1.8,3.3-1.8,5.9v20.5
		H99.7V75.6z"/>
	<path class="st1" d="M144.8,88.4h21.5v11.3h-21.5V88.4z"/>
	<path class="st1" d="M187,57.6v30.8c0,1.6,0.1,3.3,0.2,5.1c0.1,1.7,0.5,3.3,1.1,4.7c0.6,1.4,1.6,2.5,3,3.4c1.3,0.9,3.2,1.3,5.7,1.3
		c2.4,0,4.3-0.4,5.7-1.3c1.3-0.9,2.3-2,3-3.4c0.6-1.4,1-3,1.2-4.7c0.1-1.7,0.2-3.4,0.2-5.1V57.6h14.6v32.8c0,8.8-2,15.2-6,19.3
		c-4,4-10.2,6.1-18.6,6.1c-8.4,0-14.5-2-18.6-6.1s-6.1-10.5-6.1-19.3V57.6H187z"/>
	<path class="st1" d="M244.3,80.9l17.9-23.3h18.2L258,84.3l24.5,29.8h-19l-19.1-24.5v24.5h-14.7V57.6h14.7V80.9z"/>
	<path class="st2" d="M5.9,132.6h21.9c5.2,0,9.1,1.2,11.8,3.8c2.7,2.5,4.1,6.1,4.1,10.8c0,2.8-0.5,5.2-1.5,7.1
		c-1,1.9-2.6,3.5-4.7,4.8c2.1,0.4,3.9,1,5.4,1.8c1.5,0.8,2.7,1.8,3.6,3c0.9,1.2,1.6,2.5,2,4c0.4,1.5,0.6,3.1,0.6,4.8
		c0,2.7-0.5,5-1.4,7c-0.9,2.1-2.2,3.8-3.9,5.2c-1.7,1.4-3.7,2.5-6.1,3.2s-5.1,1-8.1,1H5.9V132.6z M20.6,154.8h2.7
		c4.6,0,6.9-1.8,6.9-5.5c0-3.6-2.3-5.5-6.9-5.5h-2.7V154.8z M20.6,177.7h3.2c3.7,0,6.3-0.5,7.9-1.4c1.6-0.9,2.4-2.5,2.4-4.6
		c0-2.1-0.8-3.6-2.4-4.6c-1.6-0.9-4.2-1.4-7.9-1.4h-3.2V177.7z"/>
	<path class="st2" d="M51.9,135.9c0-1,0.2-2,0.6-3c0.4-0.9,0.9-1.7,1.6-2.4c0.7-0.7,1.5-1.2,2.4-1.6c0.9-0.4,1.9-0.6,3-0.6
		c1.1,0,2,0.2,3,0.6c0.9,0.4,1.7,1,2.4,1.6c0.7,0.7,1.2,1.5,1.7,2.4c0.4,0.9,0.6,1.9,0.6,3s-0.2,2-0.6,3c-0.4,0.9-1,1.7-1.7,2.4
		c-0.7,0.7-1.5,1.3-2.4,1.7c-0.9,0.4-1.9,0.6-3,0.6c-1,0-2-0.2-3-0.6c-0.9-0.4-1.7-0.9-2.4-1.7c-0.7-0.7-1.3-1.5-1.6-2.4
		C52.1,137.9,51.9,136.9,51.9,135.9z M66.4,150.6v38.5H52.8v-38.5H66.4z"/>
	<path class="st2" d="M70.4,169.5c0-2.8,0.6-5.5,1.7-8c1.1-2.5,2.7-4.6,4.8-6.5c2-1.8,4.5-3.3,7.3-4.3c2.8-1,5.9-1.6,9.3-1.6
		c3.3,0,6.4,0.5,9.2,1.5c2.8,1,5.3,2.5,7.4,4.3c2.1,1.8,3.7,4,4.8,6.5c1.1,2.5,1.7,5.3,1.7,8.4c0,3.1-0.6,5.8-1.8,8.4
		c-1.2,2.5-2.8,4.7-4.8,6.5c-2.1,1.8-4.5,3.2-7.4,4.2c-2.9,1-6,1.5-9.3,1.5c-3.3,0-6.4-0.5-9.1-1.5c-2.8-1-5.2-2.4-7.2-4.3
		c-2-1.8-3.6-4.1-4.8-6.6C71,175.6,70.4,172.7,70.4,169.5z M84.7,169.7c0,1.3,0.2,2.5,0.7,3.6c0.5,1.1,1.1,2,1.9,2.8
		c0.8,0.8,1.7,1.4,2.8,1.9c1.1,0.4,2.2,0.7,3.4,0.7s2.3-0.2,3.4-0.7c1.1-0.5,2-1.1,2.8-1.9c0.8-0.8,1.4-1.7,1.9-2.8
		c0.5-1.1,0.7-2.2,0.7-3.5c0-1.2-0.2-2.3-0.7-3.4c-0.5-1.1-1.1-2-1.9-2.8c-0.8-0.8-1.7-1.4-2.8-1.9c-1.1-0.5-2.2-0.7-3.4-0.7
		s-2.3,0.2-3.4,0.7c-1.1,0.5-2,1.1-2.8,1.9c-0.8,0.8-1.4,1.7-1.9,2.8C85,167.4,84.7,168.5,84.7,169.7z"/>
	<path class="st2" d="M134.2,126.9v27.6c3.2-3.3,7.2-5,12-5c2.9,0,5.5,0.5,7.8,1.6c2.4,1.1,4.4,2.5,6.1,4.3c1.7,1.8,3,4,3.9,6.5
		c0.9,2.5,1.4,5.1,1.4,7.9c0,2.9-0.5,5.5-1.5,8c-1,2.5-2.3,4.7-4.1,6.5c-1.8,1.8-3.8,3.3-6.2,4.4c-2.4,1.1-4.9,1.6-7.7,1.6
		c-5,0-9-1.8-11.9-5.5v4.3h-13.6v-62.2H134.2z M151.3,170c0-1.2-0.2-2.3-0.7-3.4c-0.5-1.1-1.1-2-1.9-2.8c-0.8-0.8-1.7-1.4-2.8-1.9
		c-1-0.5-2.2-0.7-3.5-0.7c-1.2,0-2.3,0.2-3.4,0.7c-1,0.4-2,1.1-2.7,1.9c-0.8,0.8-1.4,1.7-1.9,2.8c-0.5,1.1-0.7,2.2-0.7,3.4
		s0.2,2.3,0.7,3.4c0.4,1,1.1,2,1.9,2.7c0.8,0.8,1.7,1.4,2.8,1.9c1.1,0.5,2.2,0.7,3.4,0.7s2.3-0.2,3.4-0.7c1-0.5,2-1.1,2.7-1.9
		c0.8-0.8,1.4-1.7,1.9-2.8C151.1,172.2,151.3,171.1,151.3,170z"/>
	<path class="st2" d="M199.2,150.6h13.7v38.5h-13.7v-4.3c-2.9,3.7-6.8,5.5-11.8,5.5c-2.8,0-5.4-0.5-7.7-1.5c-2.4-1-4.4-2.5-6.1-4.3
		c-1.8-1.8-3.1-4-4.1-6.5c-1-2.5-1.5-5.2-1.5-8.2c0-2.7,0.5-5.4,1.4-7.8c0.9-2.5,2.3-4.6,4-6.5c1.7-1.8,3.7-3.3,6.1-4.4
		c2.3-1.1,5-1.6,7.8-1.6c4.8,0,8.8,1.7,11.9,5V150.6z M182.1,169.8c0,1.3,0.2,2.4,0.7,3.5s1.1,2,1.8,2.8c0.8,0.8,1.7,1.4,2.8,1.9
		c1.1,0.4,2.2,0.7,3.5,0.7c1.2,0,2.3-0.2,3.4-0.7c1.1-0.5,2-1.1,2.8-1.9c0.8-0.8,1.4-1.7,1.9-2.8c0.5-1,0.7-2.2,0.7-3.4
		s-0.2-2.3-0.7-3.4c-0.5-1.1-1.1-2-1.9-2.8c-0.8-0.8-1.7-1.4-2.8-1.9c-1.1-0.5-2.2-0.7-3.4-0.7c-1.3,0-2.4,0.2-3.5,0.7
		c-1.1,0.4-2,1.1-2.8,1.9c-0.8,0.8-1.4,1.7-1.8,2.7C182.3,167.5,182.1,168.6,182.1,169.8z"/>
	<path class="st2" d="M218.3,150.6h13.6v4.9c1.8-2.2,3.7-3.8,5.6-4.5c1.9-0.8,4.1-1.2,6.7-1.2c2.7,0,5,0.4,6.9,1.3
		c1.9,0.9,3.6,2.1,4.9,3.7c1.1,1.3,1.8,2.8,2.2,4.4c0.4,1.6,0.6,3.4,0.6,5.5v24.5h-13.6v-19.4c0-1.9-0.1-3.4-0.4-4.6
		c-0.3-1.2-0.8-2.1-1.5-2.8c-0.6-0.6-1.3-1-2-1.3c-0.8-0.2-1.6-0.4-2.4-0.4c-2.3,0-4.1,0.7-5.3,2.1c-1.2,1.4-1.8,3.3-1.8,5.9v20.5
		h-13.6V150.6z"/>
	<path class="st2" d="M277.9,126.9v37.6l14.2-13.9h18.6l-19.3,17.8l20.4,20.7h-19l-14.9-15.7v15.7h-13.6v-62.2H277.9z"/>
</g>
<g>
</g>
<g>
</g>
<g>
</g>
<g>
</g>
<g>
</g>
<g>
</g>
</svg>
