<?xml version="1.0" encoding="utf-8"?>
<!-- Generator: Adobe Illustrator 23.0.6, SVG Export Plug-In . SVG Version: 6.00 Build 0)  -->
<svg version="1.1" id="Layer_1" xmlns="http://www.w3.org/2000/svg" xmlns:xlink="http://www.w3.org/1999/xlink" x="0px" y="0px"
	 viewBox="0 0 312.92 214.12" style="enable-background:new 0 0 312.92 214.12;" xml:space="preserve">
<style type="text/css">
	.st0{fill:#CCD0D5;}
	.st1{fill:#005F6F;}
	.st2{fill:#1C1E21;}
</style>
<path class="st0" d="M209.97,65.42l-1.01-0.14c-0.31-0.04-0.59,0.19-0.61,0.5l-0.05,0.84L209.97,65.42z M206.13,91.28l-0.57-4.13
	c-0.04-0.29-0.32-0.49-0.61-0.42l-4.1,0.9c-0.21,0.05-0.37,0.22-0.39,0.43l-0.31,2.65c-0.04,0.38,0.33,0.67,0.69,0.53l1.53-0.62
	c0.39-0.16,0.79,0.2,0.68,0.6l-0.25,0.9c-0.11,0.4,0.28,0.75,0.67,0.61l2.35-0.91C206.04,91.73,206.17,91.51,206.13,91.28z
	 M209.64,49.12l-0.94,0.25c-0.23,0.06-0.4,0.27-0.4,0.51l-0.04,1.88c-0.01,0.45-0.54,0.69-0.88,0.4l-1.53-1.27
	c-0.34-0.28-0.85-0.06-0.88,0.38l-0.04,0.61c-0.03,0.43-0.52,0.65-0.86,0.39l0,0c-0.18-0.14-0.44-0.15-0.63-0.02l-0.48,0.32
	c-0.29,0.2-0.32,0.61-0.06,0.85l2.2,1.97l0.31-1.12l0.75,0.7c0.19,0.18,0.23,0.47,0.08,0.69l-0.16,0.24
	c-0.1,0.15-0.12,0.35-0.04,0.52l1.49,3.32c0.08,0.19,0.27,0.31,0.47,0.32l2.75,0.11c0.47,0.02,0.83,0.42,0.8,0.88l-0.06,1.21
	c-0.03,0.5,0.38,0.9,0.88,0.88l0.11-0.01c0.19-0.01,0.36-0.12,0.45-0.28l1.14-2.09c0.03-0.06,0.09-0.11,0.16-0.14l1.83-0.69
	c0.21-0.08,0.26-0.36,0.09-0.51l-0.61-0.53c-0.06-0.05-0.13-0.07-0.2-0.07l-1.55,0.05c-0.17,0.01-0.34-0.04-0.49-0.14l-2.63-1.73
	c-0.19-0.12-0.28-0.35-0.23-0.56l0.94-4.36c0.04-0.18,0.02-0.37-0.06-0.54l-1.04-2.17C210.15,49.17,209.89,49.05,209.64,49.12z
	 M212.54,74.92l-1.58-0.44c-0.11-0.03-0.2-0.09-0.27-0.18l-1.99-2.65c-0.14-0.19-0.4-0.26-0.62-0.16L206,72.46
	c-0.36,0.17-0.4,0.68-0.05,0.89l2.32,1.44c0.36,0.23,0.3,0.77-0.11,0.91l-0.98,0.32c-0.3,0.1-0.43,0.44-0.29,0.72l0,0
	c0.13,0.25,0.03,0.56-0.22,0.69l-0.32,0.16c-0.5,0.24-0.3,0.99,0.26,0.96l3.29-0.22c0.27-0.02,0.51,0.18,0.54,0.45l0.05,0.43
	l2.79-1.4c0.22-0.11,0.33-0.37,0.25-0.61l-0.63-1.95C212.83,75.09,212.7,74.97,212.54,74.92z M205.96,63l0.49,1.22
	c0.12,0.31,0.5,0.44,0.79,0.26l0.33-0.21c0.21-0.13,0.3-0.4,0.22-0.64l-0.36-1c-0.08-0.21-0.28-0.36-0.5-0.36l-0.47-0.01
	C206.08,62.25,205.82,62.64,205.96,63z M209.65,87.65l1.82-2.67c0.31-0.45-0.23-1.01-0.69-0.71l-3.95,2.52
	c-0.19,0.12-0.27,0.34-0.22,0.56l0.46,1.7c0.1,0.37,0.55,0.5,0.83,0.24l1.67-1.54C209.6,87.71,209.62,87.68,209.65,87.65z
	 M200.75,71.67l1.25-0.32c0.62-0.16,1.14-0.58,1.42-1.16l0.62-1.28L200.75,71.67z M205.67,82.09l-1.41,2.75l1.38-0.97
	c0.15-0.11,0.24-0.29,0.21-0.48L205.67,82.09z M280.08,17.47c-0.22-0.24-0.6-0.23-0.8,0.03l-1.39,1.75l2.02-0.96
	C280.23,18.15,280.32,17.73,280.08,17.47L280.08,17.47z M283.9,5.46l0.38-2.95c0.02-0.17-0.04-0.34-0.17-0.46l-0.25-0.22
	c-0.29-0.26-0.74-0.13-0.85,0.24L282.74,3c-0.02,0.08-0.07,0.15-0.12,0.21l-1.13,1.19c-0.18,0.19-0.19,0.49-0.03,0.69l0.88,1.1
	c0.18,0.22,0.5,0.26,0.72,0.09l0.64-0.48C283.81,5.73,283.88,5.6,283.9,5.46z M286.53,0.1l-0.26,0.18
	c-0.21,0.14-0.28,0.42-0.18,0.65l0.08,0.17c0.18,0.4,0.73,0.42,0.94,0.03l0.19-0.35C287.54,0.29,286.98-0.22,286.53,0.1z
	 M253.07,30.16l-0.63-1.13c-0.09-0.16-0.26-0.25-0.44-0.24l-0.47,0.03c-0.33,0.02-0.54,0.38-0.39,0.68l0.78,1.55
	c0.16,0.31,0.59,0.35,0.8,0.06l0.32-0.44C253.14,30.51,253.16,30.32,253.07,30.16z M253.25,26.14l-0.09,1.72
	c-0.01,0.26,0.19,0.49,0.46,0.49l2.55,0.05c0.1,0,0.2,0.04,0.27,0.1l0.84,0.64c0.28,0.22,0.69,0.05,0.75-0.3l0.15-0.98
	c0.04-0.27-0.16-0.52-0.43-0.54l-3.13-0.19l0.98-0.78c0.21-0.16,0.24-0.47,0.07-0.67l-1.26-1.48c-0.08-0.1-0.2-0.16-0.33-0.16
	l-1.84-0.09c-0.24-0.01-0.46,0.16-0.49,0.41l-0.28,2.05c-0.02,0.12,0.01,0.23,0.08,0.33l0.35,0.5c0.2,0.29,0.63,0.26,0.8-0.04
	L253.25,26.14z M278.85,4.63l-1.3,0.12c-0.18,0.02-0.34,0.13-0.42,0.29l-0.52,1.08c-0.11,0.23-0.04,0.5,0.17,0.65
	c0.36,0.25,0.91,0.65,1.35,0.94c0.3,0.2,0.72,0.04,0.8-0.32l0.5-2.13C279.5,4.92,279.21,4.6,278.85,4.63z M256.24,23.21
	L256.24,23.21c-0.39,0-0.61,0.44-0.38,0.75l0,0c0.23,0.3,0.7,0.23,0.82-0.13l0,0C256.78,23.53,256.56,23.22,256.24,23.21z
	 M208.13,120.52l-0.77-0.23c-0.45-0.14-0.66-0.66-0.43-1.07l0.64-1.13c0.11-0.19,0.12-0.41,0.05-0.62l-0.22-0.59
	c-0.18-0.48,0.18-0.99,0.69-0.99l0.22,0c0.34,0,0.64,0.24,0.72,0.58l0.24,1.1c0.1,0.45,0.76,0.37,0.76-0.09l-0.04-2.32
	c-0.01-0.35-0.26-0.65-0.6-0.71l-1.7-0.31c-0.7-0.13-0.83-1.07-0.19-1.38l0,0c0.38-0.19,0.52-0.66,0.31-1.03l-3.52-6.07
	c-0.07-0.12-0.1-0.25-0.1-0.38l0.03-2.21c0-0.25-0.12-0.49-0.33-0.63l-1.87-1.22c-0.07-0.05-0.15-0.08-0.23-0.1l-4.62-1.09
	c-0.15-0.04-0.31-0.02-0.45,0.04l-3.08,1.27c-0.1,0.04-0.2,0.06-0.3,0.06l-1.5-0.04c-0.17,0-0.33,0.05-0.47,0.15l-0.81,0.62
	c-0.12,0.09-0.26,0.14-0.42,0.15l-2.77,0.12c-0.15,0.01-0.29,0.06-0.41,0.15l-1.51,1.13c-0.06,0.05-0.13,0.08-0.21,0.11l-1.99,0.66
	c-0.18,0.06-0.33,0.18-0.42,0.35l-1,1.85c-0.13,0.24-0.38,0.39-0.65,0.39l-2.6-0.01c-0.24,0-0.46,0.11-0.6,0.3l-3.98,5.48
	c-0.2,0.28-0.18,0.67,0.05,0.93l5.57,6.14c0.15,0.16,0.36,0.25,0.58,0.24l1.65-0.07c0.29-0.01,0.55-0.2,0.65-0.47l1.28-3.28
	c0.07-0.17,0.19-0.31,0.35-0.39l1.48-0.75c0.23-0.12,0.51-0.1,0.73,0.03l3.98,2.52c0.13,0.08,0.23,0.21,0.29,0.35l2.17,5.54
	c0.08,0.21,0.26,0.37,0.47,0.44l1.89,0.57c0.09,0.03,0.18,0.08,0.26,0.14l3.04,2.52c0.08,0.07,0.17,0.12,0.28,0.14l0.52,0.14
	l0.03-1.25c0.01-0.5,0.51-0.84,0.98-0.67l0.2,0.07c0.2,0.07,0.42,0.05,0.6-0.05l2.21-1.21c0.17-0.1,0.3-0.26,0.36-0.45l0.3-1.1
	c0.11-0.39,0.51-0.62,0.91-0.51l2.49,0.69c0.37,0.1,0.76-0.1,0.89-0.46l0.4-1.12C208.75,121.07,208.53,120.64,208.13,120.52z
	 M296.83,194.01c-0.02,0-0.04,0-0.07,0l-1.15,0.39l1.84,1.19c0.02,0.02,0.05,0.02,0.08,0.02l1.47-0.16c0.1-0.01,0.15-0.13,0.09-0.2
	l-0.7-0.92c-0.02-0.02-0.05-0.04-0.08-0.05L296.83,194.01z M214.91,94.52l0.23,4.09l3.04,1.66l1.25-2.67
	c0.06-0.12,0.06-0.26,0.02-0.39L218,93.35c-0.1-0.27-0.42-0.4-0.68-0.28l-2.11,0.96C215.02,94.12,214.9,94.31,214.91,94.52z
	 M311.84,170.89l-0.23-3.38c-0.01-0.15-0.08-0.3-0.19-0.4l-4.78-4.44c-0.09-0.08-0.19-0.13-0.31-0.15l-7.5-1.37
	c-0.01,0-0.03,0-0.04-0.01l-4.3-0.47c-0.29-0.03-0.57,0.16-0.64,0.44l-0.68,2.61c-0.02,0.09-0.07,0.18-0.13,0.25l-0.95,1.06
	c-0.25,0.28-0.69,0.26-0.92-0.03l-1.69-2.2c-0.07-0.09-0.16-0.16-0.26-0.2l-1.68-0.63c-0.45-0.17-0.53-0.77-0.13-1.05l4.24-2.93
	c0.14-0.1,0.23-0.24,0.25-0.41l0.3-2.21c0.02-0.12,0-0.24-0.06-0.35l-2.45-4.89c-0.33-0.67-0.93-1.17-1.64-1.38l0,0
	c-0.22-0.07-0.43-0.17-0.62-0.31l-2.39-1.72c-0.29-0.21-0.52-0.49-0.68-0.81l-0.27-0.57c-0.37-0.77-1.16-1.25-2.02-1.21l-0.29,0.01
	c-0.06,0-0.11,0.01-0.17,0.01l-0.57,0.07c-0.38,0.05-0.77-0.01-1.12-0.16l-1.16-0.51c-0.18-0.08-0.37-0.13-0.57-0.16l-0.9-0.12
	l1.83-0.18c0.33-0.03,0.66,0.01,0.97,0.13l0.56,0.22c0.28,0.11,0.58,0.16,0.89,0.14l1.45-0.08c0.39-0.02,0.78,0.06,1.13,0.25
	l0.59,0.32c0.25,0.13,0.46,0.32,0.64,0.53l0.2,0.25c0.42,0.52,1.05,0.81,1.72,0.79l0.32-0.01c0.26-0.01,0.51,0.03,0.75,0.11
	l1.24,0.42l-3.81-5.62l-0.9-1.38c-0.53-0.81-0.44-1.87,0.21-2.58l0,0c0.31-0.34,0.72-0.57,1.17-0.65l0.59-0.11l-1.58-1.09
	c-0.31-0.22-0.56-0.51-0.72-0.85l-0.4-0.87c-0.07-0.15-0.2-0.26-0.36-0.3l-0.46-0.12c-0.16-0.04-0.3-0.16-0.36-0.31l-1.74-4.04
	c-0.12-0.29-0.33-0.53-0.59-0.7l-3.13-2.03c-0.11-0.07-0.23-0.13-0.35-0.17l-4.2-1.42c-0.66-0.22-1.09-0.85-1.07-1.55l0-0.04
	c0.02-0.52-0.22-1.01-0.63-1.32l0,0c-0.32-0.24-0.53-0.58-0.6-0.97l-0.91-4.84c-0.03-0.17-0.09-0.34-0.16-0.5l-1.34-2.77
	c-0.11-0.23-0.18-0.49-0.19-0.75l-0.37-6.7c0-0.06-0.02-0.12-0.05-0.17l-1.25-2.31c-0.06-0.11-0.17-0.19-0.3-0.21l-1.11-0.15
	c-0.12-0.02-0.23-0.09-0.3-0.2l-3.71-6.59c-0.05-0.08-0.12-0.15-0.22-0.18l-2.21-0.77c-0.24-0.08-0.46-0.22-0.64-0.4l-1.54-1.49
	c-0.1-0.09-0.21-0.17-0.32-0.23l-2.54-1.31c-0.42-0.21-0.92-0.2-1.32,0.04l-0.82,0.49c-0.05,0.03-0.11,0.06-0.16,0.08L249,92.05
	c-0.45,0.19-0.96,0.19-1.41-0.01l-2.79-1.25c-0.22-0.1-0.47-0.15-0.71-0.15l-1.12,0c-0.23,0-0.47-0.05-0.68-0.14l-2.24-0.95
	c-0.33-0.14-0.6-0.41-0.73-0.75l-0.48-1.21l1.56,1c0.14,0.09,0.29,0.15,0.45,0.19l3.29,0.7c0.16,0.03,0.33,0.04,0.49,0.01l2.38-0.37
	c0.4-0.06,0.75-0.3,0.96-0.65l0.49-0.82c0.29-0.48,0.84-0.74,1.39-0.64l1.87,0.32c0.28,0.05,0.57,0.01,0.83-0.12l0.55-0.27
	c0.96-0.48,1.01-1.83,0.09-2.38l0,0c-0.41-0.25-0.67-0.69-0.67-1.17l0-0.22c0-0.39-0.16-0.76-0.45-1.02l-0.09-0.08
	c-0.36-0.32-0.86-0.43-1.32-0.28l-2.66,0.85c-0.56,0.18-1.18-0.03-1.52-0.51l0-0.01l3.05-1.49c0.26-0.13,0.56-0.17,0.85-0.11
	l2.82,0.54c0.32,0.06,0.65,0,0.94-0.16l1.61-0.94c0.27-0.16,0.48-0.41,0.59-0.7l0.19-0.52c0.13-0.35,0.39-0.63,0.74-0.78l0.82-0.35
	c0.21-0.09,0.4-0.24,0.54-0.42l2.49-3.24c0.03-0.04,0.07-0.09,0.11-0.13l1.15-1.17c0.26-0.26,0.4-0.62,0.39-0.99l-0.01-0.2
	c-0.01-0.31,0.09-0.62,0.29-0.87l1.28-1.64c0.2-0.25,0.24-0.6,0.12-0.89l-0.05-0.11c-0.11-0.25-0.09-0.54,0.04-0.78l1.59-2.82
	c0.08-0.14,0.19-0.25,0.33-0.33l2.33-1.37c0.24-0.14,0.4-0.38,0.43-0.65l0.2-1.48c0.04-0.26-0.05-0.53-0.23-0.73l-2.74-2.95
	c-0.28-0.3-0.74-0.37-1.1-0.17l0,0c-0.16,0.09-0.35,0.13-0.54,0.11l-6.3-0.67c-0.13-0.01-0.27-0.04-0.4-0.08l-3.06-0.94
	c-0.5-0.15-1.03-0.12-1.5,0.1l0,0c-0.37,0.17-0.77,0.23-1.17,0.18l-1.09-0.15c-0.22-0.03-0.43-0.09-0.63-0.19l-1.79-0.85
	c-0.22-0.1-0.45-0.17-0.69-0.19l-0.98-0.1c-0.26-0.03-0.51,0.12-0.62,0.36l-0.04,0.1c-0.09,0.19-0.27,0.33-0.48,0.36l-2.12,0.27
	c-0.12,0.01-0.23,0.04-0.34,0.08l-2.45,0.81c-0.19,0.06-0.39,0.08-0.59,0.04l-0.39-0.07c-0.27-0.05-0.54,0-0.78,0.13l-1.65,0.88
	l-0.5-0.6l2.77-2.14c0.09-0.07,0.17-0.15,0.25-0.23l2.91-3.27l-1.26,0.45c-0.48,0.17-1.01,0.13-1.46-0.1l-0.34-0.18
	c-0.47-0.24-0.43-0.92,0.07-1.11l0,0c0.16-0.06,0.28-0.18,0.35-0.33l0.53-1.27c0.06-0.14,0.16-0.25,0.29-0.31l6.84-3.41
	c0.07-0.04,0.14-0.09,0.19-0.15l2.1-2.4c0.09-0.11,0.22-0.18,0.36-0.2l1.83-0.34c0.18-0.03,0.34-0.15,0.43-0.31l1.05-1.87
	c0.12-0.22,0.1-0.49-0.05-0.69l-0.42-0.54c-0.18-0.24-0.17-0.58,0.03-0.8l1.03-1.13c0.1-0.11,0.16-0.26,0.16-0.42l0,0
	c0-0.55-0.4-1.01-0.94-1.09l-1.88-0.25c-0.28-0.04-0.56,0.03-0.79,0.2L250.32,35c-0.18,0.13-0.41,0.16-0.61,0.07l-1.36-0.57
	c-0.22-0.09-0.46-0.11-0.69-0.05l-2.97,0.75l-2.95-0.64l-2.54,0.56l-1.41-0.15l-1.64,1.06l0.51-1.34l-1.28-0.71l-2.97,1.82
	l1.05-1.83l-3.56-2.04l-0.73,1.61c-0.11,0.24-0.29,0.43-0.52,0.55l-0.37,0.19c-0.41,0.21-0.65,0.65-0.62,1.1l0.07,1.22l-0.78-0.05
	l-0.13,1.43c-0.05,0.58-0.52,1.03-1.1,1.07l-0.04,0c-0.82,0.05-1.34,0.91-0.99,1.66l0.01,0.02c0.18,0.39,0.13,0.84-0.12,1.18
	l-0.57,0.79c-0.24,0.33-0.64,0.51-1.04,0.48l-0.7-0.06l2.77,2.93c0.09,0.1,0.17,0.22,0.22,0.34l0.76,1.78l-2.47-1.55
	c-0.38-0.24-0.85-0.24-1.23-0.01l0,0c-0.42,0.26-0.96,0.22-1.35-0.09l-1.55-1.26l-0.28,0.95c-0.02,0.06-0.02,0.12,0,0.17l0.37,1.21
	c0.03,0.11,0,0.22-0.07,0.3l-0.47,0.48c-0.15,0.15-0.42,0.1-0.49-0.11l-0.55-1.45c-0.09-0.23-0.39-0.26-0.53-0.06l-1.06,1.57
	c-0.07,0.11-0.07,0.24,0.01,0.35l0.8,1.09c0.09,0.12,0.08,0.29-0.03,0.39l-0.75,0.73c-0.11,0.1-0.12,0.27-0.03,0.39l1.44,1.97
	c0.05,0.06,0.11,0.1,0.19,0.12l1.79,0.32l-2.23,0.43c-0.08,0.02-0.16,0-0.23-0.05l-1.53-1.07c-0.2-0.14-0.48,0.01-0.47,0.25
	l0.05,2.73c0,0.02,0,0.05-0.01,0.07l-0.15,0.72c-0.04,0.19,0.1,0.36,0.29,0.36l3.92-0.02l-2.78,0.84c-0.07,0.02-0.13,0.07-0.17,0.13
	l-0.32,0.51l0.69,0.56c0.07,0.06,0.16,0.08,0.25,0.06l2.61-0.5l-0.69,0.57l0.91,1.36l-1.75-0.89c-0.08-0.04-0.16-0.04-0.24-0.01
	l-0.63,0.24c-0.07,0.03-0.12,0.08-0.16,0.14l-0.61,1.18c-0.06,0.12-0.03,0.27,0.07,0.36l0.8,0.69l-1.49,0.02
	c-0.08,0-0.16,0.03-0.21,0.09l-0.84,0.88c-0.14,0.15-0.09,0.39,0.09,0.48l1.24,0.57c0.09,0.04,0.15,0.12,0.17,0.22l0.22,1.17
	L214,64.42c-0.15-0.08-0.33-0.01-0.41,0.14l-0.42,0.9c-0.16,0.33-0.07,0.73,0.22,0.97l0,0c0.34,0.28,0.39,0.77,0.13,1.11l-0.28,0.36
	c-0.07,0.09-0.16,0.17-0.26,0.22l-1.11,0.59c-0.15,0.08-0.31,0.11-0.48,0.09l-2.54-0.32c-0.13-0.02-0.26,0.02-0.37,0.1l-0.7,0.53
	c-0.27,0.2-0.27,0.61,0.01,0.81l0.36,0.26c0.08,0.06,0.17,0.09,0.26,0.1l2.26,0.16c0.06,0,0.11,0.02,0.16,0.04l1.55,0.67l-0.33,0.38
	c-0.11,0.13-0.28,0.19-0.45,0.17l-0.26-0.04c-0.47-0.06-0.76,0.49-0.44,0.84l1.2,1.34c0.12,0.14,0.32,0.2,0.5,0.15l0.25-0.06
	c0.19-0.05,0.4,0.02,0.52,0.18l0.66,0.84c0.16,0.21,0.46,0.26,0.68,0.1l7.26-5.01l-1.05,1.32c-0.18,0.22-0.14,0.55,0.09,0.72
	l0.51,0.39l-1.88,0.33c-0.14,0.02-0.26,0.11-0.34,0.23l-1.91,3.01c-0.06,0.09-0.09,0.2-0.08,0.31l0.04,0.55
	c0.01,0.13-0.03,0.25-0.11,0.35l-2.15,2.73c-0.18,0.23-0.13,0.56,0.11,0.73l0.03,0.02c0.22,0.15,0.28,0.44,0.15,0.67l-2.08,3.56
	c-0.05,0.08-0.07,0.17-0.07,0.27l0.07,2.52c0,0.15-0.06,0.29-0.16,0.38l-1.06,0.98c-0.16,0.15-0.21,0.39-0.11,0.59l0.42,0.87
	c0.11,0.23,0.37,0.34,0.61,0.26l0.85-0.27l-2.48,2.67c-0.06,0.07-0.1,0.15-0.12,0.24l-0.9,4.14l-1.82,1.25l0.02,0.42
	c0.02,0.35,0.29,0.65,0.64,0.69l1.99,0.27c0.46,0.06,0.87-0.32,0.83-0.79l-0.11-1.38l1.9-2.92c0.05-0.07,0.07-0.16,0.08-0.24
	l0.11-1.62c0.01-0.14,0.07-0.26,0.18-0.35l1.76-1.5c0.13-0.11,0.2-0.28,0.17-0.45l-0.58-4.61c-0.04-0.32,0.23-0.6,0.56-0.56
	l0.45,0.05c0.13,0.01,0.27-0.02,0.37-0.11l4.71-3.82l-3.73,3.79c-0.06,0.06-0.11,0.14-0.13,0.23l-0.67,2.64
	c-0.05,0.18,0.01,0.38,0.15,0.5l0.26,0.23c0.28,0.25,0.71,0.12,0.82-0.23l0.26-0.86c0.04-0.13,0.13-0.24,0.25-0.3l1.52-0.81
	c0.3-0.16,0.68,0.02,0.74,0.36l0.18,1.05c0.08,0.45,0.66,0.57,0.92,0.2l1.41-2.09c0.06-0.09,0.09-0.19,0.09-0.3l-0.05-1.91
	c-0.01-0.23,0.14-0.43,0.36-0.5l0.18-0.05c0.39-0.12,0.75,0.25,0.63,0.64l-0.59,1.85c-0.06,0.19,0,0.4,0.15,0.53l2.96,2.64
	l-2.49-0.99c-0.26-0.1-0.55,0.02-0.65,0.27l-1.39,3.32c-0.03,0.08-0.05,0.16-0.04,0.25l0.26,2.65c0.02,0.19,0.15,0.36,0.33,0.42
	l1.5,0.55l0.72,2.71l-3.07,2.19l-3.54,5.97c-0.07,0.11-0.1,0.24-0.09,0.37l0.11,1.42c0.04,0.53-0.57,0.87-1,0.55l-0.24-0.18
	c-0.39-0.29-0.96-0.04-0.99,0.45l-0.15,1.85c-0.01,0.13,0.02,0.26,0.08,0.37l1.09,1.84c0.34,0.58,1.24,0.28,1.16-0.39l-0.05-0.37
	c-0.04-0.34,0.2-0.65,0.54-0.69l1.47-0.19c0.18-0.02,0.36,0.03,0.49,0.15l4.28,3.74c0.36,0.32,0.94,0.12,1.02-0.36l0.29-1.58
	c0.04-0.2-0.03-0.41-0.18-0.56l-0.97-0.94c-0.38-0.37-0.15-1.02,0.38-1.07l0,0c0.16-0.01,0.31,0.03,0.43,0.13l3.97,3.04
	c0.11,0.09,0.25,0.13,0.39,0.13l3.18-0.05l0.11-0.84c0.03-0.22,0.24-0.38,0.46-0.34l2.11,0.33c0.31,0.05,0.62-0.11,0.77-0.39
	l0.72-1.46c0.14-0.29,0.46-0.45,0.78-0.39l2.35,0.41c0.84,0.15,0.79,1.36-0.06,1.44l0,0c-0.13,0.01-0.25,0.09-0.31,0.21l-4.17,7.57
	c-0.13,0.23-0.14,0.5-0.03,0.74l2.7,6.08c0.18,0.4,0.64,0.6,1.06,0.45l0.15-0.05c0.59-0.22,1.2,0.27,1.12,0.9l0,0
	c-0.1,0.76,0.79,1.25,1.37,0.75l1.02-0.87c0.21-0.18,0.5-0.25,0.77-0.17l2.85,0.78l-1.64,3.44l0.94,0.75l-3,1.58
	c-0.36,0.19-0.57,0.59-0.53,1l0.35,3.11c0.03,0.26-0.04,0.52-0.2,0.72l-1.54,1.99c-0.26,0.34-0.28,0.8-0.05,1.15l1.29,1.99
	c0.03,0.05,0.07,0.1,0.11,0.14l1.85,1.93c0.14,0.14,0.31,0.24,0.5,0.28l1.68,0.37l-1.22,0.58c-0.16,0.08-0.33,0.11-0.51,0.09
	l-1.44-0.11c-0.32-0.02-0.62-0.21-0.78-0.49l-0.96-1.62c-0.22-0.37-0.64-0.55-1.06-0.47l0,0c-0.63,0.13-0.98,0.82-0.7,1.4l0.55,1.17
	c0.07,0.14,0.17,0.27,0.29,0.37l1.31,1.01l-2.24-0.74c-0.18-0.06-0.34-0.17-0.46-0.32l-1.37-1.67c-0.15-0.18-0.37-0.27-0.6-0.23
	l-5.06,0.73c-0.09,0.01-0.18,0.01-0.27-0.02l-2.07-0.59c-0.12-0.03-0.24-0.03-0.36,0l-5.49,1.58c-0.1,0.03-0.2,0.08-0.28,0.16
	l-3.13,3.05c-0.06,0.06-0.13,0.11-0.21,0.14l-4.07,1.64c-0.08,0.03-0.16,0.08-0.22,0.15l-0.77,0.77c-0.41,0.41-0.11,1.12,0.47,1.11
	l0.85-0.01c0.1,0,0.19,0.02,0.28,0.06l0.47,0.21c0.33,0.15,0.72,0,0.87-0.33l0.15-0.35c0.09-0.21,0.3-0.36,0.53-0.39l4.42-0.48
	c0.47-0.05,0.84,0.4,0.69,0.85l-0.44,1.37c-0.07,0.21-0.03,0.44,0.11,0.61l0.98,1.24c0.26,0.33,0.15,0.82-0.23,1l-1,0.47
	c-0.32,0.15-0.46,0.53-0.32,0.85l0.59,1.35c0.07,0.17,0.21,0.3,0.38,0.36l0.18,0.06c0.42,0.15,0.57,0.67,0.3,1.02l-4.01,5.13
	l-2.77,0.49l-2.89,1.41l-1.33-0.1l-3.55,1.39c-0.09,0.04-0.19,0.05-0.29,0.04l-2.17-0.29c-0.11-0.01-0.22,0-0.31,0.04l-2.6,1.12
	c-0.51,0.22-0.46,0.96,0.07,1.11l1.06,0.3c0.26,0.07,0.44,0.32,0.43,0.59l-0.05,1.18c-0.01,0.26-0.19,0.48-0.44,0.54l-0.02,0.01
	c-0.57,0.16-0.58,0.97-0.02,1.14l1.98,0.59l-0.4,0.26c-0.35,0.23-0.35,0.76,0,0.99l0.57,0.37c0.11,0.07,0.25,0.11,0.38,0.09
	l2.09-0.22c0.05-0.01,0.1-0.02,0.15-0.04l2.71-1.04c0.04-0.01,0.08-0.02,0.11-0.03l3.82-0.64c0.34-0.06,0.66,0.19,0.69,0.53
	l0.07,0.86c0.02,0.23,0.17,0.42,0.38,0.5l0.59,0.22c0.59,0.22,0.48,1.08-0.15,1.14l0,0c-0.23,0.02-0.42,0.18-0.5,0.4l-0.14,0.41
	c-0.12,0.35,0.1,0.72,0.47,0.77l3.96,0.63l0.05-0.39c0.04-0.27,0.26-0.48,0.53-0.51l1.66-0.16c0.21-0.02,0.41,0.07,0.54,0.24
	l1.83,2.55l1.88,2.57l5.02,0.64c0.23,0.03,0.46-0.06,0.6-0.24l0.99-1.18c0.17-0.21,0.41-0.35,0.67-0.41l2.27-0.56
	c0.03-0.01,0.05-0.01,0.08-0.02l3.4-0.62c0.12-0.02,0.23-0.08,0.31-0.16l1.31-1.31c0.07-0.07,0.16-0.12,0.26-0.15l2.95-0.83
	l-4.52,3.63c-0.03,0.03-0.07,0.05-0.1,0.07l-4.16,2.71c-0.16,0.1-0.26,0.27-0.3,0.45l-0.55,3.11c-0.07,0.37-0.42,0.62-0.79,0.55
	l-1.9-0.35c-0.08-0.01-0.17-0.01-0.25,0l-1.86,0.35c-0.18,0.03-0.36,0-0.5-0.1l-1.97-1.32c-0.07-0.05-0.14-0.08-0.22-0.1l-6.81-1.6
	l-5.11,0.5l-0.23,2.31l-2.11,1.38c-0.12,0.08-0.26,0.11-0.39,0.09l-1.98-0.23c-0.3-0.04-0.58,0.16-0.65,0.46l-1,4.31
	c-0.04,0.15-0.13,0.28-0.26,0.37l-2.98,1.88c-0.06,0.04-0.11,0.09-0.16,0.14l-0.7,0.93c-0.11,0.15-0.28,0.23-0.47,0.24l-2.61,0.03
	c-0.24,0-0.45,0.15-0.54,0.36l-0.87,2.07c-0.1,0.25-0.36,0.39-0.63,0.36l-0.58-0.08c-0.23-0.03-0.46,0.07-0.58,0.27l-0.66,1.05
	c-0.06,0.09-0.14,0.17-0.24,0.22l-3.86,1.86c-0.16,0.08-0.35,0.08-0.52,0l-1.21-0.59c-0.16-0.08-0.35-0.08-0.51,0l-2.41,1.14
	c-0.18,0.09-0.31,0.26-0.33,0.46l-0.19,1.39c-0.04,0.31,0.17,0.6,0.48,0.66l1.81,0.35c0.33,0.06,0.64-0.15,0.7-0.48l0.13-0.74
	c0.07-0.37,0.45-0.59,0.8-0.45l2.64,1.03c0.14,0.06,0.26,0.17,0.32,0.31l0.8,1.74c0.15,0.33,0.56,0.45,0.86,0.25l0.98-0.63
	c0.25-0.16,0.34-0.49,0.21-0.76l-0.23-0.46c-0.12-0.24-0.06-0.53,0.14-0.7l1.08-0.96c0.27-0.24,0.69-0.19,0.89,0.11l0,0
	c0.18,0.27,0.54,0.34,0.82,0.17l1.58-1.03c0.11-0.07,0.25-0.11,0.39-0.09l0.78,0.08c0.23,0.02,0.45-0.08,0.57-0.28l0.83-1.33
	c0.15-0.24,0.45-0.34,0.72-0.24l2.36,0.93c0.12,0.05,0.25,0.05,0.37,0.02l2.2-0.58c0.1-0.03,0.21-0.03,0.32,0l1.55,0.45
	c0.12,0.03,0.25,0.03,0.36-0.01l0.87-0.31c0.26-0.09,0.56,0.01,0.7,0.25l0.76,1.22c0.1,0.16,0.27,0.27,0.46,0.28l1.18,0.08
	c0.14,0.01,0.28,0.07,0.38,0.17l1.74,1.73c0.1,0.1,0.23,0.16,0.37,0.17l1.68,0.15c0.39,0.03,0.71-0.31,0.64-0.7l-0.06-0.34
	c-0.06-0.31,0.13-0.6,0.43-0.68l1.42-0.37c0.16-0.04,0.29-0.15,0.37-0.29l0.57-1.04c0.06-0.1,0.08-0.22,0.07-0.34l-0.18-2.14
	c-0.02-0.21,0.08-0.42,0.26-0.54l1.47-0.99c0.21-0.14,0.46-0.22,0.72-0.22l0.54,0c0.37,0,0.73-0.16,0.97-0.44l0.06-0.07
	c0.22-0.26,0.53-0.41,0.86-0.44l5.41-0.43c0.12-0.01,0.25,0,0.37,0.02l2.75,0.59c0.11,0.02,0.21,0.07,0.29,0.14l2.9,2.43
	c0.15,0.13,0.35,0.18,0.55,0.15l1.02-0.17c0.07-0.01,0.15-0.01,0.22,0l3.67,0.6c0.07,0.01,0.14,0.03,0.2,0.07l1.32,0.68
	c0.31,0.16,0.7,0.06,0.89-0.24l0.86-1.39c0.09-0.14,0.22-0.24,0.38-0.29l3.38-1.04c0.15-0.05,0.31-0.04,0.45,0.02l1.92,0.76
	c0.17,0.07,0.35,0.06,0.52-0.01l3.24-1.41c0.15-0.07,0.33-0.07,0.49-0.02l1.99,0.67c0.13,0.05,0.27,0.07,0.42,0.07l0.73,0.01
	c0.21,0,0.42-0.05,0.61-0.14l0.84-0.42c0.39-0.2,0.86,0.03,0.96,0.45l0.04,0.15c0.04,0.16,0.13,0.3,0.27,0.4l1.47,1.04
	c0.2,0.14,0.45,0.16,0.67,0.07l1.9-0.85c0.24-0.11,0.51-0.15,0.77-0.12l4.9,0.58c0.07,0.01,0.15,0.01,0.22,0.01l3.26-0.12
	c0.12,0,0.23,0.02,0.34,0.06l2.99,1.29c0.02,0.01,0.04,0.02,0.07,0.02l1.22,0.4c0.2,0.07,0.43,0.05,0.62-0.06l2.28-1.24
	c0.11-0.06,0.22-0.09,0.34-0.09l2.38-0.1c0.14-0.01,0.27-0.05,0.39-0.12l2.31-1.46c0.14-0.09,0.3-0.13,0.47-0.12l1.31,0.09
	c0.07,0,0.14,0.02,0.21,0.04l0.41,0.14c0.54,0.19,1.09-0.25,1.04-0.82l0,0c-0.03-0.34,0.15-0.66,0.46-0.79l3.68-1.62
	c0.01-0.01,0.03-0.01,0.04-0.01l2.32-0.12c0.06,0,0.11-0.04,0.12-0.1l0.45-2.08c0-0.02,0-0.04,0-0.06l-0.42-1.57
	c-0.01-0.03,0-0.07,0.01-0.1l0.87-1.51c0.05-0.08-0.01-0.18-0.1-0.19l-4.18-0.42c-0.01,0-0.02,0-0.04,0l-3.23,0.63
	c-0.01,0-0.01,0-0.02,0l-1.8,0.05c-0.02,0-0.04,0-0.06-0.01l-2.78-1.36c0,0-0.01,0-0.01,0l-0.99-0.37l1.08-0.69
	c0.02-0.01,0.05-0.02,0.07-0.02l0.9,0.04l0.31-0.5l-2.51-0.95c-0.02-0.01-0.04-0.01-0.07-0.01l-2.36,0.42l3.43-1.52
	c0.03-0.01,0.05-0.01,0.08-0.01l1.99,0.47c0.02,0,0.04,0,0.06,0l2.04-0.58c0.38-0.11,0.61-0.5,0.51-0.88l-0.24-0.99
	c-0.06-0.24-0.26-0.43-0.51-0.46l0,0c-0.69-0.09-0.88-1.01-0.28-1.36l0.25-0.15c0.01-0.01,0.03-0.02,0.04-0.03l1.03-0.71
	c0.3-0.2,0.69-0.17,0.94,0.09l0.55,0.56c0.22,0.22,0.56,0.28,0.84,0.15l1.97-0.93c0.08-0.04,0.16-0.09,0.22-0.16l1.04-1.1
	l-1.15-0.36l0.05-0.05c0.39-0.42,0.18-1.1-0.38-1.22l-0.44-0.1c-0.45-0.1-0.63-0.64-0.33-0.99l0.37-0.43
	c0.17-0.2,0.44-0.27,0.68-0.18l0.98,0.37c0.18,0.07,0.32,0.22,0.37,0.41l0,0c0.12,0.44,0.66,0.59,0.99,0.29l1.43-1.28
	c0.08-0.07,0.17-0.12,0.27-0.14l1.47-0.35c0.23-0.05,0.41-0.24,0.46-0.47l0.82-3.91c0.01-0.07,0.04-0.13,0.07-0.19l2.06-3.44
	c0.12-0.2,0.11-0.45-0.01-0.64l-0.88-1.35C311.88,171.09,311.85,170.99,311.84,170.89z M219.97,125.57l-1.12,2.28
	c-0.27,0.55,0.13,1.2,0.75,1.2l1.25-0.01c0.17,0,0.33-0.05,0.47-0.15l3.82-2.62c0.29-0.2,0.42-0.56,0.33-0.9l-0.22-0.85
	c-0.04-0.17-0.04-0.35,0.03-0.51l0,0c0.28-0.73-0.52-1.41-1.2-1.01l-3.77,2.21C220.15,125.3,220.04,125.42,219.97,125.57z
	 M223.87,148.05l1.8-0.93c0.6-0.31,0.39-1.21-0.28-1.23l0,0c-0.27-0.01-0.5-0.18-0.59-0.43l-0.69-1.86
	c-0.09-0.25-0.33-0.42-0.6-0.43l-2.64-0.06c-0.25-0.01-0.48,0.13-0.59,0.35c-0.21,0.4-0.55,1.04-0.77,1.5
	c-0.15,0.3-0.05,0.66,0.24,0.84l3.48,2.22C223.42,148.15,223.66,148.16,223.87,148.05z M263.23,205.66l-2.38,0.75
	c-0.63,0.2-0.63,1.08-0.01,1.29l0.01,0c0.08,0.03,0.16,0.07,0.22,0.12l1.8,1.51c0.12,0.1,0.28,0.16,0.44,0.16l1.42-0.02
	c0.34,0,0.62-0.25,0.66-0.59l0.04-0.27c0.02-0.13,0.07-0.25,0.16-0.35l0.24-0.28c0.37-0.43,0.08-1.1-0.49-1.12l0,0
	c-0.16,0-0.31-0.06-0.43-0.17l-1.03-0.9C263.71,205.64,263.46,205.59,263.23,205.66z M202.98,42.91l-1.09,0.34
	c-0.12,0.04-0.22,0.11-0.29,0.22l-0.57,0.86c-0.07,0.1-0.16,0.17-0.27,0.21l-1.01,0.35l1.53,1.46c0.17,0.17,0.44,0.2,0.65,0.07
	l2.92-1.73c0.36-0.21,0.35-0.73-0.01-0.93l-1.42-0.8C203.28,42.88,203.12,42.86,202.98,42.91z M220.65,90.71l-0.45-0.53
	c-0.27-0.32-0.78-0.2-0.88,0.21l-0.18,0.75c-0.04,0.17,0.01,0.35,0.13,0.48l0.6,0.6c0.31,0.31,0.85,0.1,0.86-0.34l0.03-0.82
	C220.77,90.92,220.73,90.8,220.65,90.71z M198.38,49.17l0.19-0.75c0.07-0.29-0.11-0.59-0.4-0.66l-3.39-0.77
	c-0.1-0.02-0.2-0.02-0.3,0.02L194,47.17c-0.36,0.12-0.48,0.57-0.23,0.86l1.34,1.56c0.11,0.13,0.28,0.2,0.45,0.19l2.34-0.2
	C198.14,49.56,198.33,49.4,198.38,49.17z M200.98,41.11l0.72,0.73c0.1,0.11,0.25,0.16,0.39,0.16l2.57-0.05
	c0.07,0,0.14,0.01,0.21,0.04l2.37,0.92c0.2,0.08,0.42,0.03,0.57-0.12l1.81-1.79c0.22-0.22,0.21-0.58-0.02-0.79l-0.16-0.14
	c-0.2-0.17-0.24-0.46-0.1-0.68l0.95-1.56c0.04-0.07,0.1-0.13,0.17-0.17l2.82-1.83c0.15-0.1,0.25-0.27,0.25-0.45l0-2.8
	c0-0.39-0.41-0.65-0.76-0.49l-6.95,3.22c-0.23,0.11-0.35,0.36-0.3,0.61l0.17,0.76c0.1,0.46-0.39,0.82-0.79,0.58L203,36.17
	c-0.2-0.11-0.44-0.09-0.62,0.06l-1.48,1.26c-0.22,0.19-0.25,0.52-0.07,0.75l0.82,1.02c0.22,0.27,0.13,0.67-0.18,0.82l-0.35,0.17
	C200.79,40.41,200.72,40.84,200.98,41.11z M197.19,73.68l0.88-0.45c0.43-0.22,0.34-0.85-0.14-0.95l-0.73-0.14
	c-0.26-0.05-0.52,0.11-0.58,0.37l-0.15,0.6C196.36,73.52,196.8,73.88,197.19,73.68z M191.54,60.31l-0.7,0.63
	c-0.08,0.07-0.13,0.16-0.16,0.26l-0.1,0.38c-0.11,0.42,0.3,0.8,0.71,0.64l0.97-0.37c0.26-0.1,0.4-0.37,0.33-0.64l-0.17-0.64
	C192.32,60.18,191.84,60.04,191.54,60.31z M194.27,51.3l-0.01,0.08c-0.03,0.23,0.08,0.45,0.29,0.55l1.17,0.6
	c0.25,0.13,0.56,0.04,0.71-0.2l0.41-0.69c0.21-0.36-0.05-0.81-0.47-0.81l-1.57,0.01C194.54,50.83,194.31,51.03,194.27,51.3z
	 M195.47,53.26l-0.64-0.2c-0.34-0.1-0.68,0.14-0.7,0.49l-0.04,0.93c0,0.1-0.04,0.19-0.09,0.27l-0.95,1.43
	c-0.08,0.12-0.11,0.26-0.08,0.39l0.28,1.6c0.03,0.19,0.17,0.35,0.35,0.42l0.77,0.27c0.37,0.13,0.75-0.17,0.71-0.57l-0.17-1.55
	c-0.02-0.14,0.03-0.28,0.12-0.4l0.78-0.96c0.08-0.1,0.13-0.23,0.12-0.37l-0.07-1.26C195.84,53.52,195.69,53.33,195.47,53.26z"/>
<g>
	<path class="st1" d="M14.7,114.12H0V57.57h23.4c6.35,0,11.21,1.65,14.59,4.95c3.38,3.3,5.06,7.95,5.06,13.95
		s-1.69,10.65-5.06,13.95c-3.38,3.3-8.24,4.95-14.59,4.95h-8.7V114.12z M14.7,83.52h4.88c5.4,0,8.1-2.35,8.1-7.05
		c0-4.7-2.7-7.05-8.1-7.05H14.7V83.52z"/>
	<path class="st1" d="M74.63,75.65h13.65v38.48H74.63v-4.27c-2.9,3.65-6.83,5.47-11.77,5.47c-2.8,0-5.38-0.51-7.73-1.54
		c-2.35-1.02-4.4-2.46-6.15-4.31c-1.75-1.85-3.11-4.02-4.09-6.53c-0.97-2.5-1.46-5.22-1.46-8.18c0-2.75,0.47-5.36,1.43-7.84
		c0.95-2.48,2.27-4.64,3.97-6.49c1.7-1.85,3.72-3.31,6.08-4.39c2.35-1.07,4.95-1.61,7.8-1.61c4.8,0,8.78,1.68,11.93,5.02V75.65z
		 M57.53,94.77c0,1.25,0.23,2.41,0.67,3.49c0.45,1.08,1.06,2.01,1.84,2.81c0.77,0.8,1.7,1.42,2.77,1.88
		c1.07,0.45,2.24,0.67,3.49,0.67c1.2,0,2.34-0.23,3.41-0.67c1.07-0.45,2-1.07,2.77-1.88c0.77-0.8,1.4-1.73,1.88-2.78
		c0.47-1.05,0.71-2.17,0.71-3.38c0-1.2-0.24-2.34-0.71-3.41c-0.48-1.07-1.1-2.01-1.88-2.81c-0.78-0.8-1.7-1.43-2.77-1.88
		c-1.08-0.45-2.21-0.68-3.41-0.68c-1.25,0-2.41,0.23-3.49,0.68c-1.08,0.45-2,1.08-2.77,1.88c-0.78,0.8-1.39,1.71-1.84,2.74
		C57.75,92.46,57.53,93.57,57.53,94.77z"/>
	<path class="st1" d="M93.75,75.65h13.58v4.88c1.85-2.25,3.72-3.76,5.62-4.54c1.9-0.77,4.12-1.16,6.68-1.16
		c2.7,0,5.01,0.44,6.94,1.31c1.92,0.88,3.56,2.11,4.91,3.71c1.1,1.3,1.85,2.75,2.25,4.35c0.4,1.6,0.6,3.43,0.6,5.47v24.45h-13.57
		V94.7c0-1.9-0.14-3.44-0.41-4.61c-0.28-1.17-0.76-2.11-1.46-2.81c-0.6-0.6-1.28-1.02-2.03-1.27c-0.75-0.25-1.55-0.38-2.4-0.38
		c-2.3,0-4.06,0.69-5.29,2.06c-1.23,1.38-1.84,3.34-1.84,5.89v20.55H93.75V75.65z"/>
	<path class="st1" d="M138.9,88.4h21.53v11.33H138.9V88.4z"/>
	<path class="st1" d="M181.05,57.57v30.75c0,1.65,0.06,3.34,0.19,5.06c0.12,1.72,0.5,3.29,1.12,4.69c0.62,1.4,1.61,2.54,2.96,3.41
		c1.35,0.88,3.25,1.31,5.7,1.31c2.45,0,4.34-0.44,5.66-1.31c1.32-0.87,2.31-2.01,2.96-3.41c0.65-1.4,1.04-2.96,1.16-4.69
		c0.12-1.73,0.19-3.41,0.19-5.06V57.57h14.62v32.77c0,8.8-2.01,15.23-6.04,19.27c-4.03,4.05-10.21,6.08-18.56,6.08
		c-8.35,0-14.55-2.03-18.6-6.08s-6.08-10.47-6.08-19.27V57.57H181.05z"/>
	<path class="st1" d="M238.42,80.9l17.92-23.32h18.15l-22.42,26.77l24.52,29.77h-19.05L238.42,89.6v24.52h-14.7V57.57h14.7V80.9z"/>
	<path class="st2" d="M0,132.57h21.9c5.2,0,9.15,1.25,11.85,3.75c2.7,2.5,4.05,6.1,4.05,10.8c0,2.85-0.51,5.21-1.54,7.09
		c-1.03,1.88-2.59,3.46-4.69,4.76c2.1,0.4,3.89,1.01,5.36,1.84c1.47,0.83,2.67,1.84,3.6,3.04c0.92,1.2,1.59,2.55,1.99,4.05
		c0.4,1.5,0.6,3.1,0.6,4.8c0,2.65-0.46,5-1.39,7.05c-0.93,2.05-2.23,3.78-3.9,5.17c-1.68,1.4-3.71,2.45-6.11,3.15
		s-5.1,1.05-8.1,1.05H0V132.57z M14.7,154.77h2.7c4.6,0,6.9-1.82,6.9-5.47c0-3.65-2.3-5.47-6.9-5.47h-2.7V154.77z M14.7,177.72h3.23
		c3.7,0,6.35-0.47,7.95-1.42c1.6-0.95,2.4-2.47,2.4-4.58c0-2.1-0.8-3.62-2.4-4.58c-1.6-0.95-4.25-1.42-7.95-1.42H14.7V177.72z"/>
	<path class="st2" d="M45.97,135.87c0-1.05,0.2-2.04,0.6-2.96c0.4-0.92,0.95-1.74,1.65-2.44c0.7-0.7,1.51-1.25,2.44-1.65
		c0.92-0.4,1.91-0.6,2.96-0.6c1.05,0,2.04,0.2,2.96,0.6c0.92,0.4,1.74,0.95,2.44,1.65c0.7,0.7,1.25,1.51,1.65,2.44
		c0.4,0.93,0.6,1.91,0.6,2.96s-0.2,2.04-0.6,2.96c-0.4,0.93-0.95,1.74-1.65,2.44c-0.7,0.7-1.51,1.25-2.44,1.65
		c-0.93,0.4-1.91,0.6-2.96,0.6c-1.05,0-2.04-0.2-2.96-0.6c-0.93-0.4-1.74-0.95-2.44-1.65c-0.7-0.7-1.25-1.51-1.65-2.44
		C46.17,137.91,45.97,136.92,45.97,135.87z M60.45,150.65v38.48H46.87v-38.48H60.45z"/>
	<path class="st2" d="M64.5,169.55c0-2.85,0.57-5.51,1.73-7.99c1.15-2.48,2.75-4.62,4.8-6.45c2.05-1.82,4.49-3.26,7.31-4.31
		c2.82-1.05,5.91-1.58,9.26-1.58c3.3,0,6.36,0.51,9.19,1.54c2.82,1.03,5.27,2.45,7.35,4.27c2.07,1.83,3.69,4,4.84,6.53
		c1.15,2.53,1.73,5.31,1.73,8.36c0,3.05-0.59,5.84-1.76,8.36c-1.18,2.53-2.79,4.7-4.84,6.53c-2.05,1.83-4.51,3.24-7.39,4.24
		c-2.88,1-5.99,1.5-9.34,1.5c-3.3,0-6.35-0.5-9.15-1.5c-2.8-1-5.21-2.42-7.24-4.28c-2.03-1.85-3.61-4.06-4.76-6.64
		C65.07,175.56,64.5,172.7,64.5,169.55z M78.82,169.7c0,1.3,0.24,2.49,0.71,3.56c0.47,1.08,1.1,2.01,1.88,2.81
		c0.77,0.8,1.7,1.42,2.77,1.88c1.07,0.45,2.21,0.67,3.41,0.67s2.34-0.23,3.41-0.67c1.07-0.45,2-1.08,2.77-1.88
		c0.77-0.8,1.4-1.74,1.88-2.81c0.47-1.08,0.71-2.24,0.71-3.49c0-1.2-0.24-2.34-0.71-3.41c-0.48-1.07-1.1-2.01-1.88-2.81
		c-0.78-0.8-1.7-1.42-2.77-1.88c-1.08-0.45-2.21-0.67-3.41-0.67s-2.34,0.22-3.41,0.67c-1.08,0.45-2,1.08-2.77,1.88
		c-0.78,0.8-1.4,1.72-1.88,2.78C79.06,167.37,78.82,168.5,78.82,169.7z"/>
	<path class="st2" d="M128.32,126.87v27.6c3.2-3.35,7.2-5.02,12-5.02c2.85,0,5.46,0.54,7.84,1.61c2.37,1.08,4.4,2.53,6.08,4.35
		c1.67,1.83,2.99,3.98,3.94,6.45c0.95,2.47,1.42,5.11,1.42,7.91c0,2.85-0.49,5.53-1.46,8.03c-0.97,2.5-2.34,4.68-4.09,6.53
		c-1.75,1.85-3.81,3.31-6.19,4.39c-2.38,1.07-4.94,1.61-7.69,1.61c-5,0-8.95-1.83-11.85-5.48v4.28h-13.57v-62.25H128.32z
		 M145.42,170c0-1.2-0.23-2.34-0.67-3.41c-0.45-1.07-1.08-2.01-1.88-2.81c-0.8-0.8-1.73-1.44-2.78-1.91
		c-1.05-0.47-2.2-0.71-3.45-0.71c-1.2,0-2.33,0.23-3.38,0.68c-1.05,0.45-1.96,1.08-2.74,1.88c-0.78,0.8-1.4,1.74-1.88,2.81
		c-0.48,1.08-0.71,2.21-0.71,3.41s0.23,2.33,0.68,3.38c0.45,1.05,1.07,1.96,1.88,2.74c0.8,0.78,1.74,1.4,2.81,1.88
		c1.07,0.48,2.21,0.71,3.41,0.71s2.33-0.23,3.38-0.67c1.05-0.45,1.96-1.08,2.74-1.88c0.77-0.8,1.4-1.73,1.88-2.78
		C145.19,172.25,145.42,171.15,145.42,170z"/>
	<path class="st2" d="M193.27,150.65h13.65v38.48h-13.65v-4.28c-2.9,3.65-6.82,5.48-11.77,5.48c-2.8,0-5.38-0.51-7.73-1.54
		c-2.35-1.02-4.4-2.46-6.15-4.31c-1.75-1.85-3.11-4.02-4.09-6.52c-0.97-2.5-1.46-5.22-1.46-8.18c0-2.75,0.47-5.36,1.42-7.84
		c0.95-2.48,2.27-4.64,3.98-6.49c1.7-1.85,3.72-3.31,6.08-4.39c2.35-1.08,4.95-1.61,7.8-1.61c4.8,0,8.78,1.68,11.92,5.02V150.65z
		 M176.17,169.77c0,1.25,0.22,2.41,0.67,3.49s1.06,2.01,1.84,2.81c0.77,0.8,1.7,1.42,2.77,1.88c1.08,0.45,2.24,0.67,3.49,0.67
		c1.2,0,2.34-0.23,3.41-0.67c1.07-0.45,2-1.08,2.78-1.88c0.77-0.8,1.4-1.73,1.88-2.78c0.47-1.05,0.71-2.17,0.71-3.38
		s-0.24-2.34-0.71-3.41c-0.48-1.08-1.1-2.01-1.88-2.81c-0.78-0.8-1.7-1.43-2.78-1.88c-1.08-0.45-2.21-0.68-3.41-0.68
		c-1.25,0-2.41,0.23-3.49,0.68c-1.08,0.45-2,1.08-2.77,1.88c-0.78,0.8-1.39,1.71-1.84,2.74
		C176.4,167.46,176.17,168.57,176.17,169.77z"/>
	<path class="st2" d="M212.4,150.65h13.57v4.88c1.85-2.25,3.72-3.76,5.62-4.54c1.9-0.77,4.12-1.16,6.68-1.16
		c2.7,0,5.01,0.44,6.94,1.31c1.92,0.88,3.56,2.11,4.91,3.71c1.1,1.3,1.85,2.75,2.25,4.35c0.4,1.6,0.6,3.42,0.6,5.47v24.45H239.4
		V169.7c0-1.9-0.14-3.44-0.41-4.61c-0.28-1.17-0.76-2.11-1.46-2.81c-0.6-0.6-1.28-1.02-2.03-1.27c-0.75-0.25-1.55-0.38-2.4-0.38
		c-2.3,0-4.06,0.69-5.29,2.06c-1.23,1.38-1.84,3.34-1.84,5.89v20.55H212.4V150.65z"/>
	<path class="st2" d="M272.02,126.87v37.65l14.25-13.88h18.6l-19.28,17.78l20.4,20.7h-19.05l-14.93-15.67v15.67h-13.57v-62.25
		H272.02z"/>
</g>
</svg>
