<?xml version="1.0" encoding="utf-8"?>
<!-- Generator: Adobe Illustrator 24.1.3, SVG Export Plug-In . SVG Version: 6.00 Build 0)  -->
<svg version="1.1" id="Layer_1" xmlns="http://www.w3.org/2000/svg" xmlns:xlink="http://www.w3.org/1999/xlink" x="0px" y="0px"
	 viewBox="0 0 318.8 214.9" style="enable-background:new 0 0 318.8 214.9;" xml:space="preserve">
<style type="text/css">
	.st0{fill:#036070;}
	.st1{fill:#EBEDEF;}
</style>
<g>
	<path class="st0" d="M20.6,114.1H5.9V57.6h23.4c6.3,0,11.2,1.6,14.6,4.9c3.4,3.3,5.1,8,5.1,14s-1.7,10.6-5.1,13.9
		c-3.4,3.3-8.2,5-14.6,5h-8.7V114.1z M20.6,83.5h4.9c5.4,0,8.1-2.3,8.1-7c0-4.7-2.7-7.1-8.1-7.1h-4.9V83.5z"/>
	<path class="st0" d="M80.6,75.6h13.6v38.5H80.6v-4.3c-2.9,3.7-6.8,5.5-11.8,5.5c-2.8,0-5.4-0.5-7.7-1.5c-2.4-1-4.4-2.5-6.1-4.3
		c-1.8-1.8-3.1-4-4.1-6.5c-1-2.5-1.5-5.2-1.5-8.2c0-2.7,0.5-5.4,1.4-7.8c0.9-2.5,2.3-4.6,4-6.5c1.7-1.8,3.7-3.3,6.1-4.4
		c2.3-1.1,5-1.6,7.8-1.6c4.8,0,8.8,1.7,11.9,5V75.6z M63.5,94.8c0,1.3,0.2,2.4,0.7,3.5c0.5,1.1,1.1,2,1.8,2.8
		c0.8,0.8,1.7,1.4,2.8,1.9c1.1,0.4,2.2,0.7,3.5,0.7c1.2,0,2.3-0.2,3.4-0.7c1.1-0.5,2-1.1,2.8-1.9c0.8-0.8,1.4-1.7,1.9-2.8
		c0.5-1,0.7-2.2,0.7-3.4c0-1.2-0.2-2.3-0.7-3.4c-0.5-1.1-1.1-2-1.9-2.8c-0.8-0.8-1.7-1.4-2.8-1.9c-1.1-0.5-2.2-0.7-3.4-0.7
		c-1.3,0-2.4,0.2-3.5,0.7c-1.1,0.4-2,1.1-2.8,1.9c-0.8,0.8-1.4,1.7-1.8,2.7C63.7,92.5,63.5,93.6,63.5,94.8z"/>
	<path class="st0" d="M99.7,75.6h13.6v4.9c1.8-2.2,3.7-3.8,5.6-4.5c1.9-0.8,4.1-1.2,6.7-1.2c2.7,0,5,0.4,6.9,1.3
		c1.9,0.9,3.6,2.1,4.9,3.7c1.1,1.3,1.8,2.8,2.2,4.4c0.4,1.6,0.6,3.4,0.6,5.5v24.5h-13.6V94.7c0-1.9-0.1-3.4-0.4-4.6
		c-0.3-1.2-0.8-2.1-1.5-2.8c-0.6-0.6-1.3-1-2-1.3c-0.8-0.2-1.6-0.4-2.4-0.4c-2.3,0-4.1,0.7-5.3,2.1c-1.2,1.4-1.8,3.3-1.8,5.9v20.5
		H99.7V75.6z"/>
	<path class="st0" d="M144.8,88.4h21.5v11.3h-21.5V88.4z"/>
	<path class="st0" d="M187,57.6v30.8c0,1.6,0.1,3.3,0.2,5.1c0.1,1.7,0.5,3.3,1.1,4.7c0.6,1.4,1.6,2.5,3,3.4c1.3,0.9,3.2,1.3,5.7,1.3
		c2.4,0,4.3-0.4,5.7-1.3c1.3-0.9,2.3-2,3-3.4c0.6-1.4,1-3,1.2-4.7c0.1-1.7,0.2-3.4,0.2-5.1V57.6h14.6v32.8c0,8.8-2,15.2-6,19.3
		c-4,4-10.2,6.1-18.6,6.1c-8.4,0-14.5-2-18.6-6.1s-6.1-10.5-6.1-19.3V57.6H187z"/>
	<path class="st0" d="M244.3,80.9l17.9-23.3h18.2L258,84.3l24.5,29.8h-19l-19.1-24.5v24.5h-14.7V57.6h14.7V80.9z"/>
	<path class="st1" d="M5.9,132.6h21.9c5.2,0,9.1,1.2,11.8,3.8c2.7,2.5,4.1,6.1,4.1,10.8c0,2.8-0.5,5.2-1.5,7.1
		c-1,1.9-2.6,3.5-4.7,4.8c2.1,0.4,3.9,1,5.4,1.8c1.5,0.8,2.7,1.8,3.6,3c0.9,1.2,1.6,2.5,2,4c0.4,1.5,0.6,3.1,0.6,4.8
		c0,2.7-0.5,5-1.4,7c-0.9,2.1-2.2,3.8-3.9,5.2c-1.7,1.4-3.7,2.5-6.1,3.2s-5.1,1-8.1,1H5.9V132.6z M20.6,154.8h2.7
		c4.6,0,6.9-1.8,6.9-5.5c0-3.6-2.3-5.5-6.9-5.5h-2.7V154.8z M20.6,177.7h3.2c3.7,0,6.3-0.5,7.9-1.4c1.6-0.9,2.4-2.5,2.4-4.6
		c0-2.1-0.8-3.6-2.4-4.6c-1.6-0.9-4.2-1.4-7.9-1.4h-3.2V177.7z"/>
	<path class="st1" d="M51.9,135.9c0-1,0.2-2,0.6-3c0.4-0.9,0.9-1.7,1.6-2.4c0.7-0.7,1.5-1.2,2.4-1.6c0.9-0.4,1.9-0.6,3-0.6
		c1.1,0,2,0.2,3,0.6c0.9,0.4,1.7,1,2.4,1.6c0.7,0.7,1.2,1.5,1.7,2.4c0.4,0.9,0.6,1.9,0.6,3s-0.2,2-0.6,3c-0.4,0.9-1,1.7-1.7,2.4
		c-0.7,0.7-1.5,1.3-2.4,1.7c-0.9,0.4-1.9,0.6-3,0.6c-1,0-2-0.2-3-0.6c-0.9-0.4-1.7-0.9-2.4-1.7c-0.7-0.7-1.3-1.5-1.6-2.4
		C52.1,137.9,51.9,136.9,51.9,135.9z M66.4,150.6v38.5H52.8v-38.5H66.4z"/>
	<path class="st1" d="M70.4,169.5c0-2.8,0.6-5.5,1.7-8c1.1-2.5,2.7-4.6,4.8-6.5c2-1.8,4.5-3.3,7.3-4.3c2.8-1,5.9-1.6,9.3-1.6
		c3.3,0,6.4,0.5,9.2,1.5c2.8,1,5.3,2.5,7.4,4.3c2.1,1.8,3.7,4,4.8,6.5c1.1,2.5,1.7,5.3,1.7,8.4c0,3.1-0.6,5.8-1.8,8.4
		c-1.2,2.5-2.8,4.7-4.8,6.5c-2.1,1.8-4.5,3.2-7.4,4.2c-2.9,1-6,1.5-9.3,1.5c-3.3,0-6.4-0.5-9.1-1.5c-2.8-1-5.2-2.4-7.2-4.3
		c-2-1.8-3.6-4.1-4.8-6.6C71,175.6,70.4,172.7,70.4,169.5z M84.7,169.7c0,1.3,0.2,2.5,0.7,3.6c0.5,1.1,1.1,2,1.9,2.8
		c0.8,0.8,1.7,1.4,2.8,1.9c1.1,0.4,2.2,0.7,3.4,0.7s2.3-0.2,3.4-0.7c1.1-0.5,2-1.1,2.8-1.9c0.8-0.8,1.4-1.7,1.9-2.8
		c0.5-1.1,0.7-2.2,0.7-3.5c0-1.2-0.2-2.3-0.7-3.4c-0.5-1.1-1.1-2-1.9-2.8c-0.8-0.8-1.7-1.4-2.8-1.9c-1.1-0.5-2.2-0.7-3.4-0.7
		s-2.3,0.2-3.4,0.7c-1.1,0.5-2,1.1-2.8,1.9c-0.8,0.8-1.4,1.7-1.9,2.8C85,167.4,84.7,168.5,84.7,169.7z"/>
	<path class="st1" d="M134.2,126.9v27.6c3.2-3.3,7.2-5,12-5c2.9,0,5.5,0.5,7.8,1.6c2.4,1.1,4.4,2.5,6.1,4.3c1.7,1.8,3,4,3.9,6.5
		c0.9,2.5,1.4,5.1,1.4,7.9c0,2.9-0.5,5.5-1.5,8c-1,2.5-2.3,4.7-4.1,6.5c-1.8,1.8-3.8,3.3-6.2,4.4c-2.4,1.1-4.9,1.6-7.7,1.6
		c-5,0-9-1.8-11.9-5.5v4.3h-13.6v-62.2H134.2z M151.3,170c0-1.2-0.2-2.3-0.7-3.4c-0.5-1.1-1.1-2-1.9-2.8c-0.8-0.8-1.7-1.4-2.8-1.9
		c-1-0.5-2.2-0.7-3.5-0.7c-1.2,0-2.3,0.2-3.4,0.7c-1,0.4-2,1.1-2.7,1.9c-0.8,0.8-1.4,1.7-1.9,2.8c-0.5,1.1-0.7,2.2-0.7,3.4
		s0.2,2.3,0.7,3.4c0.4,1,1.1,2,1.9,2.7c0.8,0.8,1.7,1.4,2.8,1.9c1.1,0.5,2.2,0.7,3.4,0.7s2.3-0.2,3.4-0.7c1-0.5,2-1.1,2.7-1.9
		c0.8-0.8,1.4-1.7,1.9-2.8C151.1,172.2,151.3,171.1,151.3,170z"/>
	<path class="st1" d="M199.2,150.6h13.7v38.5h-13.7v-4.3c-2.9,3.7-6.8,5.5-11.8,5.5c-2.8,0-5.4-0.5-7.7-1.5c-2.4-1-4.4-2.5-6.1-4.3
		c-1.8-1.8-3.1-4-4.1-6.5c-1-2.5-1.5-5.2-1.5-8.2c0-2.7,0.5-5.4,1.4-7.8c0.9-2.5,2.3-4.6,4-6.5c1.7-1.8,3.7-3.3,6.1-4.4
		c2.3-1.1,5-1.6,7.8-1.6c4.8,0,8.8,1.7,11.9,5V150.6z M182.1,169.8c0,1.3,0.2,2.4,0.7,3.5s1.1,2,1.8,2.8c0.8,0.8,1.7,1.4,2.8,1.9
		c1.1,0.4,2.2,0.7,3.5,0.7c1.2,0,2.3-0.2,3.4-0.7c1.1-0.5,2-1.1,2.8-1.9c0.8-0.8,1.4-1.7,1.9-2.8c0.5-1,0.7-2.2,0.7-3.4
		s-0.2-2.3-0.7-3.4c-0.5-1.1-1.1-2-1.9-2.8c-0.8-0.8-1.7-1.4-2.8-1.9c-1.1-0.5-2.2-0.7-3.4-0.7c-1.3,0-2.4,0.2-3.5,0.7
		c-1.1,0.4-2,1.1-2.8,1.9c-0.8,0.8-1.4,1.7-1.8,2.7C182.3,167.5,182.1,168.6,182.1,169.8z"/>
	<path class="st1" d="M218.3,150.6h13.6v4.9c1.8-2.2,3.7-3.8,5.6-4.5c1.9-0.8,4.1-1.2,6.7-1.2c2.7,0,5,0.4,6.9,1.3
		c1.9,0.9,3.6,2.1,4.9,3.7c1.1,1.3,1.8,2.8,2.2,4.4c0.4,1.6,0.6,3.4,0.6,5.5v24.5h-13.6v-19.4c0-1.9-0.1-3.4-0.4-4.6
		c-0.3-1.2-0.8-2.1-1.5-2.8c-0.6-0.6-1.3-1-2-1.3c-0.8-0.2-1.6-0.4-2.4-0.4c-2.3,0-4.1,0.7-5.3,2.1c-1.2,1.4-1.8,3.3-1.8,5.9v20.5
		h-13.6V150.6z"/>
	<path class="st1" d="M277.9,126.9v37.6l14.2-13.9h18.6l-19.3,17.8l20.4,20.7h-19l-14.9-15.7v15.7h-13.6v-62.2H277.9z"/>
</g>
<g>
	<path d="M-226.2,0.5h1v7.2h3.5v0.9h-4.5V0.5z"/>
	<path d="M-215.4,5.6c0,2.1-1.5,3.1-2.9,3.1c-1.6,0-2.8-1.2-2.8-3c0-1.9,1.3-3.1,2.9-3.1C-216.6,2.7-215.4,3.9-215.4,5.6z
		 M-220.1,5.7c0,1.3,0.7,2.2,1.8,2.2c1,0,1.8-0.9,1.8-2.3c0-1-0.5-2.2-1.7-2.2C-219.5,3.4-220.1,4.6-220.1,5.7z"/>
	<path d="M-214.1,4.6c0-0.7,0-1.3,0-1.8h0.9l0,1.1h0c0.3-0.8,0.9-1.3,1.6-1.3c0.1,0,0.2,0,0.3,0v1c-0.1,0-0.2,0-0.4,0
		c-0.7,0-1.3,0.6-1.4,1.4c0,0.1,0,0.3,0,0.5v3.1h-1V4.6z"/>
	<path d="M-209.7,5.9c0,1.4,0.9,2,2,2c0.8,0,1.2-0.1,1.6-0.3l0.2,0.8c-0.4,0.2-1,0.4-1.9,0.4c-1.8,0-2.9-1.2-2.9-2.9
		c0-1.8,1-3.1,2.7-3.1c1.9,0,2.4,1.7,2.4,2.7c0,0.2,0,0.4,0,0.5H-209.7z M-206.6,5.1c0-0.7-0.3-1.7-1.5-1.7c-1.1,0-1.5,1-1.6,1.7
		H-206.6z"/>
	<path d="M-204.3,4.4c0-0.6,0-1.1,0-1.6h0.9l0,0.9h0c0.3-0.6,0.9-1.1,1.8-1.1c0.8,0,1.4,0.5,1.6,1.2h0c0.2-0.3,0.4-0.6,0.6-0.8
		c0.3-0.3,0.7-0.4,1.3-0.4c0.8,0,1.9,0.5,1.9,2.5v3.4h-1V5.3c0-1.1-0.4-1.8-1.3-1.8c-0.6,0-1.1,0.4-1.2,1c0,0.1-0.1,0.3-0.1,0.5v3.6
		h-1V5.1c0-0.9-0.4-1.6-1.2-1.6c-0.7,0-1.1,0.5-1.3,1.1c-0.1,0.2-0.1,0.3-0.1,0.5v3.5h-1V4.4z"/>
	<path d="M-190.6,1.2c0,0.4-0.3,0.6-0.7,0.6c-0.4,0-0.6-0.3-0.6-0.6c0-0.4,0.3-0.7,0.7-0.7C-190.8,0.5-190.6,0.8-190.6,1.2z
		 M-191.7,8.6V2.8h1.1v5.8H-191.7z"/>
	<path d="M-188.9,4.7c0-0.7,0-1.3,0-1.9h0.9l0,1h0c0.4-0.7,1.1-1.1,2.1-1.1c1.4,0,2.5,1.2,2.5,3c0,2.1-1.3,3.1-2.6,3.1
		c-0.8,0-1.4-0.3-1.8-0.9h0V11h-1V4.7z M-187.9,6.2c0,0.2,0,0.3,0,0.4c0.2,0.7,0.8,1.2,1.6,1.2c1.1,0,1.8-0.9,1.8-2.2
		c0-1.2-0.6-2.2-1.7-2.2c-0.7,0-1.4,0.5-1.6,1.3c0,0.1-0.1,0.3-0.1,0.4V6.2z"/>
	<path d="M-182.3,7.5c0.3,0.2,0.9,0.4,1.4,0.4c0.8,0,1.1-0.4,1.1-0.9c0-0.5-0.3-0.8-1.1-1.1c-1-0.4-1.5-0.9-1.5-1.6
		c0-0.9,0.8-1.7,2-1.7c0.6,0,1.1,0.2,1.4,0.4l-0.3,0.8c-0.2-0.1-0.6-0.3-1.2-0.3c-0.6,0-1,0.4-1,0.8c0,0.5,0.3,0.7,1.1,1
		c1,0.4,1.5,0.9,1.5,1.8c0,1-0.8,1.7-2.2,1.7c-0.6,0-1.2-0.2-1.6-0.4L-182.3,7.5z"/>
	<path d="M-172.5,7c0,0.6,0,1.1,0,1.6h-0.9l-0.1-0.9h0c-0.3,0.5-0.9,1.1-1.9,1.1c-0.9,0-2-0.5-2-2.5V2.8h1.1V6
		c0,1.1,0.3,1.8,1.3,1.8c0.7,0,1.2-0.5,1.4-1c0.1-0.2,0.1-0.3,0.1-0.5V2.8h1.1V7z"/>
	<path d="M-170.7,4.4c0-0.6,0-1.1,0-1.6h0.9l0,0.9h0c0.3-0.6,0.9-1.1,1.8-1.1c0.8,0,1.4,0.5,1.6,1.2h0c0.2-0.3,0.4-0.6,0.6-0.8
		c0.3-0.3,0.7-0.4,1.3-0.4c0.8,0,1.9,0.5,1.9,2.5v3.4h-1V5.3c0-1.1-0.4-1.8-1.3-1.8c-0.6,0-1.1,0.4-1.2,1c0,0.1-0.1,0.3-0.1,0.5v3.6
		h-1V5.1c0-0.9-0.4-1.6-1.2-1.6c-0.7,0-1.1,0.5-1.3,1.1c-0.1,0.2-0.1,0.3-0.1,0.5v3.5h-1V4.4z"/>
</g>
<g>
</g>
<g>
</g>
<g>
</g>
<g>
</g>
<g>
</g>
<g>
</g>
</svg>
